<svg width="50" height="50" viewBox="0 0 50 50" fill="none" xmlns="http://www.w3.org/2000/svg">
<g clip-path="url(#clip0_2159_56001)">
<path d="M47.2656 11.5031H47.4406V11.3281V5.46875C47.4406 3.84866 46.1513 2.55938 44.5312 2.55938H5.46875C3.84866 2.55938 2.55938 3.84866 2.55938 5.46875V11.3281V11.5031H2.73438H47.2656ZM2.73438 13.4969H2.55938V13.6719V44.5312C2.55938 46.1513 3.84866 47.4406 5.46875 47.4406H44.5312C46.1513 47.4406 47.4406 46.1513 47.4406 44.5312V13.6719V13.4969H47.2656H2.73438ZM31.25 25.6063H31.075V25.7812V35.1562V35.3312H31.25H39.4531H39.6281V35.1562V25.7812V25.6063H39.4531H31.25ZM0.565625 5.46875C0.565625 2.7529 2.7529 0.565625 5.46875 0.565625H44.5312C47.2471 0.565625 49.4344 2.7529 49.4344 5.46875V44.5312C49.4344 47.2471 47.2471 49.4344 44.5312 49.4344H5.46875C2.7529 49.4344 0.565625 47.2471 0.565625 44.5312V5.46875ZM6.03438 7.03125C6.03438 6.46384 6.46384 6.03438 7.03125 6.03438H8.59375C9.16116 6.03438 9.59062 6.46384 9.59062 7.03125C9.59062 7.59866 9.16116 8.02812 8.59375 8.02812H7.03125C6.46384 8.02812 6.03438 7.59866 6.03438 7.03125ZM12.2844 7.03125C12.2844 6.46384 12.7138 6.03438 13.2812 6.03438H14.8438C15.4112 6.03438 15.8406 6.46384 15.8406 7.03125C15.8406 7.59866 15.4112 8.02812 14.8438 8.02812H13.2812C12.7138 8.02812 12.2844 7.59866 12.2844 7.03125ZM8.37813 24.6094C8.37813 24.042 8.80759 23.6125 9.375 23.6125H23.8281C24.3955 23.6125 24.825 24.042 24.825 24.6094C24.825 25.1768 24.3955 25.6063 23.8281 25.6063H9.375C8.80759 25.6063 8.37813 25.1768 8.37813 24.6094ZM29.0812 24.6094C29.0812 24.042 29.5107 23.6125 30.0781 23.6125H40.625C41.1924 23.6125 41.6219 24.042 41.6219 24.6094V36.3281C41.6219 36.8955 41.1924 37.325 40.625 37.325H30.0781C29.5107 37.325 29.0812 36.8955 29.0812 36.3281V24.6094ZM8.37813 30.4688C8.37813 29.9013 8.80759 29.4719 9.375 29.4719H23.8281C24.3955 29.4719 24.825 29.9013 24.825 30.4688C24.825 31.0362 24.3955 31.4656 23.8281 31.4656H9.375C8.80759 31.4656 8.37813 31.0362 8.37813 30.4688ZM8.37813 36.3281C8.37813 35.7607 8.80759 35.3312 9.375 35.3312H15.625C16.1924 35.3312 16.6219 35.7607 16.6219 36.3281C16.6219 36.8955 16.1924 37.325 15.625 37.325H9.375C8.80759 37.325 8.37813 36.8955 8.37813 36.3281ZM20.8781 36.3281C20.8781 35.7607 21.3076 35.3312 21.875 35.3312H23.8281C24.3955 35.3312 24.825 35.7607 24.825 36.3281C24.825 36.8955 24.3955 37.325 23.8281 37.325H21.875C21.3076 37.325 20.8781 36.8955 20.8781 36.3281Z" fill="black" stroke="#EAEAEA" stroke-width="0.35"/>
</g>
<defs>
<clipPath id="clip0_2159_56001">
<rect width="50" height="50" fill="white"/>
</clipPath>
</defs>
</svg>
