<svg width="50" height="50" viewBox="0 0 50 50" fill="none" xmlns="http://www.w3.org/2000/svg">
<path d="M36.9531 22.8704V22.8705L36.9592 22.8703C38.0176 22.8338 38.9327 23.4152 39.4125 24.3728C39.8523 25.328 39.7027 26.4618 39.0109 27.2264L39.0099 27.2275L23.1896 45.0009L23.1886 45.002C22.6763 45.5876 21.9828 45.8798 21.25 45.8798C20.8509 45.8798 20.4109 45.7706 20.0057 45.5496C18.9386 44.9605 18.3934 43.7887 18.6854 42.6207L18.6855 42.6201L21.4199 31.5263L21.4204 31.5265L21.4226 31.5132C21.4463 31.371 21.4353 31.2569 21.4085 31.1629C21.3871 31.0881 21.3545 31.0263 21.3367 30.9924C21.3334 30.9861 21.3305 30.9808 21.3284 30.9765C21.264 30.8478 21.0911 30.6845 20.8203 30.6845H13.0078C12.0171 30.6845 11.1024 30.134 10.6643 29.2578L10.6644 29.2577L10.6617 29.2527C10.1872 28.3767 10.2577 27.3157 10.8453 26.4694L26.6237 5.22321C27.3956 4.23208 28.6757 3.90478 29.8108 4.41739C30.9488 4.93132 31.5695 6.10143 31.313 7.34761L31.3128 7.34841L28.3459 22.1047C28.2885 22.2938 28.3575 22.5113 28.5091 22.6629L28.5125 22.6663C28.5534 22.7075 28.7152 22.8704 28.9453 22.8704H36.9531ZM21.7253 43.6395L21.7255 43.6397L21.7322 43.6322L37.5103 25.9404C37.7779 25.6688 37.6682 25.3412 37.6294 25.2256L37.627 25.2182C37.5986 25.1332 37.542 25.0338 37.4421 24.9553C37.3401 24.8751 37.2034 24.8251 37.0312 24.8251H36.9922H28.9844C28.2152 24.8251 27.484 24.4961 26.971 23.8732C26.4592 23.2517 26.275 22.4461 26.4217 21.6743C26.4218 21.674 26.4219 21.6737 26.4219 21.6735L29.39 6.95039C29.4388 6.72858 29.3908 6.55075 29.2971 6.42106C29.208 6.29766 29.0866 6.2299 29.0007 6.20126L28.9737 6.19228H28.9552C28.9547 6.19214 28.9541 6.192 28.9535 6.19184C28.9465 6.19003 28.9405 6.18825 28.9321 6.18578C28.9263 6.18408 28.9194 6.18206 28.9104 6.17948C28.8745 6.16924 28.8153 6.15321 28.75 6.15321C28.6709 6.15321 28.5842 6.16663 28.496 6.21075C28.4083 6.25458 28.3298 6.32337 28.2584 6.41853L28.258 6.41906L12.4785 27.6277C12.2711 27.8895 12.3648 28.1604 12.4052 28.2773C12.4077 28.2847 12.4101 28.2915 12.4121 28.2976C12.4675 28.4639 12.6379 28.6907 12.9688 28.6907H20.7812C21.5882 28.6907 22.3541 29.0573 22.8269 29.7119L22.8268 29.712L22.8306 29.7169C23.342 30.3745 23.4906 31.1786 23.3062 31.9913C23.3061 31.9917 23.306 31.9921 23.3059 31.9926L20.6112 43.0446L20.6108 43.0445L20.6086 43.0573C20.5849 43.1996 20.5942 43.3351 20.6522 43.4584C20.7075 43.5759 20.7989 43.6648 20.91 43.7343C20.991 43.8039 21.1181 43.847 21.25 43.847C21.4025 43.847 21.5744 43.7904 21.7253 43.6395ZM5.57381 39.108L5.57377 39.1079L5.56943 39.1107C5.11337 39.4039 4.51534 39.2481 4.20971 38.7726C3.91696 38.3173 4.07186 37.7203 4.54564 37.4143L8.56339 34.9958C8.56394 34.9955 8.56448 34.9952 8.56503 34.9948C9.03501 34.7274 9.67163 34.865 9.96998 35.3291L9.9696 35.3293L9.97719 35.3395C10.0604 35.4504 10.0984 35.6385 10.0984 35.8204C10.0984 36.142 9.90304 36.4805 9.5937 36.6882L5.57381 39.108ZM4.54338 17.1939L4.5434 17.1939L4.53995 17.1919C4.07868 16.9283 3.91323 16.2981 4.20971 15.8369C4.5182 15.357 5.11403 15.2108 5.52539 15.4955L5.52519 15.4958L5.53475 15.5016L9.55819 17.9235L9.5584 17.9236C9.89447 18.1252 10.0594 18.4578 10.0594 18.7892C10.0594 18.9591 10.0259 19.1219 9.92806 19.2851L9.92803 19.285L9.92618 19.2883C9.6626 19.7495 9.03238 19.915 8.57119 19.6185L8.57124 19.6184L8.56681 19.6158L4.54338 17.1939ZM45.4566 37.4156L45.4566 37.4157L45.4601 37.4177C45.9116 37.6757 46.0583 38.3069 45.8222 38.7846C45.5572 39.2427 44.9294 39.4063 44.4696 39.1107L44.4697 39.1106L44.4653 39.108L40.4418 36.6861L40.4416 36.686C40.1055 36.4843 39.9406 36.1517 39.9406 35.8204C39.9406 35.6504 39.9741 35.4876 40.0719 35.3245L40.072 35.3245L40.0738 35.3213C40.3374 34.86 40.9676 34.6946 41.4288 34.991L41.4288 34.9911L41.4332 34.9938L45.4566 37.4156ZM44.4262 15.5016L44.4262 15.5016L44.4306 15.4989C44.8866 15.2057 45.4847 15.3615 45.7903 15.8369C46.083 16.2923 45.9281 16.8892 45.4544 17.1953L41.4366 19.6138C41.436 19.6141 41.4355 19.6144 41.4349 19.6148C40.9649 19.8821 40.3284 19.7445 40.03 19.2805L40.0304 19.2802L40.0228 19.2701C39.9396 19.1591 39.9016 18.9711 39.9016 18.7892C39.9016 18.4675 40.097 18.129 40.4063 17.9213L44.4262 15.5016ZM7.03125 26.3079C7.59866 26.3079 8.02812 26.7374 8.02812 27.3048C8.02812 27.8369 7.59489 28.3017 7.03125 28.3017H1.5625C0.995087 28.3017 0.565625 27.8722 0.565625 27.3048C0.565625 26.7374 0.995087 26.3079 1.5625 26.3079H7.03125ZM42.9688 26.3079H48.4375C49.0049 26.3079 49.4344 26.7374 49.4344 27.3048C49.4344 27.8722 49.0049 28.3017 48.4375 28.3017H42.9688C42.4013 28.3017 41.9719 27.8722 41.9719 27.3048C41.9719 26.7374 42.4013 26.3079 42.9688 26.3079Z" fill="black" stroke="#EAEAEA" stroke-width="0.35"/>
</svg>
