<svg width="50" height="50" viewBox="0 0 50 50" fill="none" xmlns="http://www.w3.org/2000/svg">
<path d="M24.0028 17.0865L23.8745 17.122C22.1133 17.6091 20.8389 19.2203 20.8389 21.1327C20.8389 22.4819 21.4748 23.7174 22.5998 24.5049L24.0028 17.0865ZM24.0028 17.0865V16.9533V16.7969C24.0028 16.2295 24.4323 15.8 24.9997 15.8C25.5671 15.8 25.9966 16.2295 25.9966 16.7969V16.9533V17.0859L26.1242 17.1218C27.3242 17.4593 28.3348 18.3213 28.8215 19.5191C29.0222 20.0217 28.7835 20.618 28.2939 20.8138C27.791 21.015 27.1937 20.7761 26.9978 20.2865L26.9978 20.2864L26.9966 20.2835C26.6566 19.476 25.8899 18.9657 24.9997 18.9657C23.8093 18.9657 22.8327 19.9423 22.8327 21.1327C22.8327 21.8544 23.1729 22.4908 23.7211 22.9125L23.721 22.9127L23.7286 22.918L27.3606 25.4165C27.3607 25.4167 27.3609 25.4168 27.3611 25.4169C28.4864 26.2048 29.1605 27.48 29.1605 28.8674C29.1605 30.7798 27.886 32.391 26.1249 32.8781L25.9966 32.9136V33.0468V33.2032C25.9966 33.7706 25.5671 34.2 24.9997 34.2C24.4323 34.2 24.0028 33.7706 24.0028 33.2032V32.9689V32.8364L23.8752 32.8005C22.6787 32.464 21.7038 31.6036 21.1767 30.4392C20.9814 29.9455 21.2088 29.3814 21.71 29.1448C22.2038 28.95 22.7681 29.1787 23.0042 29.6809C23.3457 30.4883 24.1516 30.9955 24.9997 30.9955C26.1901 30.9955 27.1667 30.0189 27.1667 28.8285C27.1667 28.1056 26.8253 27.4671 26.2344 27.045L26.2329 27.0439L22.5999 24.505L24.0028 17.0865ZM9.10744 9.10852L9.1078 9.10816C13.432 4.78393 19.0798 2.59319 24.7499 2.52946C29.7531 2.47323 34.7728 4.07318 38.9152 7.32534L39.1983 7.54757V7.18769V4.72645C39.1983 4.15904 39.6277 3.72957 40.1951 3.72957C40.7626 3.72957 41.192 4.15904 41.192 4.72645V9.80457C41.192 10.372 40.7626 10.8014 40.1951 10.8014H35.117C34.5496 10.8014 34.1201 10.372 34.1201 9.80457C34.1201 9.23716 34.5496 8.8077 35.117 8.8077H37.0312H37.561L37.1355 8.49213C33.6283 5.8913 29.4116 4.51254 24.9997 4.51254C19.5234 4.51254 14.4009 6.64016 10.5013 10.5004L10.5006 10.501C4.51291 16.4887 2.81878 25.3931 6.24465 33.193C6.43925 33.6834 6.21635 34.2431 5.72187 34.4826C5.56851 34.5209 5.43823 34.5518 5.31203 34.5518C4.91191 34.5518 4.54556 34.3182 4.37857 33.9521C0.658145 25.4247 2.51839 15.6588 9.10744 9.10852ZM39.4975 39.5393L39.4987 39.538C45.5266 33.5101 47.1808 24.5655 43.7535 16.7654C43.5193 16.2298 43.7512 15.6662 44.2532 15.4319C44.377 15.3741 44.5073 15.3453 44.6366 15.3422C45.0255 15.3329 45.4067 15.5572 45.5823 15.9315C49.3414 24.4979 47.5197 34.2638 40.8916 40.8919C36.5114 45.272 30.7752 47.4813 24.9997 47.4813C20.0772 47.4813 15.1541 45.8532 11.0838 42.6745L10.8011 42.4537V42.8124V45.2736C10.8011 45.841 10.3716 46.2705 9.80422 46.2705C9.23681 46.2705 8.80734 45.841 8.80734 45.2736V40.1955C8.80734 39.6281 9.23681 39.1986 9.80422 39.1986H14.8823C15.4498 39.1986 15.8792 39.6281 15.8792 40.1955C15.8792 40.7629 15.4498 41.1924 14.8823 41.1924H12.9681H12.4384L12.8639 41.5079C16.3711 44.1088 20.5877 45.4875 24.9997 45.4875C30.4759 45.4875 35.5981 43.3599 39.4975 39.5393Z" fill="black" stroke="#EAEAEA" stroke-width="0.35"/>
</svg>
