<svg width="50" height="50" viewBox="0 0 50 50" fill="none" xmlns="http://www.w3.org/2000/svg">
<path d="M35.1504 8.44978L35.1504 8.4498L35.1524 8.44635C35.316 8.15999 35.6231 7.98482 35.9463 7.9682C36.1388 7.9583 36.3346 8.00514 36.5072 8.11611L36.5071 8.11631L36.5151 8.12085C36.9763 8.38443 37.1418 9.0145 36.8453 9.47568L36.8452 9.47564L36.8426 9.48008L34.421 13.5038L34.4209 13.504C34.2192 13.8401 33.8868 14.005 33.5555 14.005C33.398 14.005 33.2005 13.9391 33.0745 13.8447L33.0658 13.8381L33.0563 13.8327C32.5951 13.5692 32.4296 12.9384 32.7261 12.4771L32.7262 12.4772L32.7288 12.4728L35.1504 8.44978ZM13.1587 9.51899L13.1587 9.51895L13.1559 9.51459C12.8628 9.05854 13.0186 8.46066 13.494 8.15502C13.6676 8.04342 13.8577 7.99731 14.044 8.0071C14.3555 8.02346 14.6617 8.19612 14.8522 8.49098L17.2724 12.5124L17.2723 12.5125L17.2751 12.5168C17.5683 12.9729 17.4125 13.5707 16.9371 13.8764L16.9368 13.876L16.9267 13.8836C16.8157 13.9668 16.6276 14.005 16.4458 14.005C16.1238 14.005 15.7844 13.8092 15.5755 13.5348L13.1587 9.51899ZM23.1566 17.4021L23.1567 17.4021L23.1591 17.4001C23.693 16.9582 24.3466 16.7377 25.0006 16.7377C25.6546 16.7377 26.3082 16.9582 26.8422 17.4001L26.8422 17.4002L26.8442 17.4018L34.1465 23.2595C34.4848 23.5474 35.0079 23.5475 35.3462 23.2596L41.2019 18.575C41.2022 18.5748 41.2024 18.5746 41.2027 18.5744C42.0504 17.9114 43.195 17.7633 44.1927 18.1697C45.1878 18.5751 45.8852 19.4947 45.9587 20.5973L45.9586 20.5973L45.9591 20.603C46.2709 23.7209 46.4849 28.1505 45.9402 32.6596C45.3954 37.1701 44.0936 41.7416 41.3893 45.1622C41.189 45.3944 40.8873 45.5281 40.5867 45.5281H9.33671C9.08248 45.5281 8.81338 45.3999 8.60412 45.1922C5.78838 42.0273 1.39401 34.6201 3.80634 20.1849L3.80639 20.185L3.80698 20.1808C3.95382 19.153 4.65093 18.3067 5.64764 17.9375L5.64768 17.9376L5.65289 17.9355C6.6469 17.5305 7.75052 17.7139 8.56137 18.3773L8.56233 18.3781L14.6151 23.2594C14.9533 23.5474 15.4765 23.5475 15.8148 23.2597L23.1566 17.4021ZM32.9636 24.7874L32.9612 24.7854L25.6202 18.9278C25.4495 18.7827 25.2335 18.7116 25.0205 18.7116C24.8074 18.7116 24.5914 18.7827 24.4208 18.9278L17.079 24.7854L17.079 24.7854L17.0765 24.7874C16.0085 25.6713 14.4615 25.6713 13.3935 24.7873L13.3916 24.7859L7.37585 19.942L7.37591 19.9419L7.37109 19.9383C6.99505 19.6562 6.57859 19.7465 6.43578 19.7927C6.22711 19.8473 5.89883 20.0477 5.80589 20.5124L5.80582 20.5124L5.805 20.5172C5.31523 23.3774 4.88327 27.4274 5.28564 31.6036C5.68791 35.7788 6.92563 40.0956 9.78917 43.4726L9.84159 43.5344H9.92265H40.0397H40.1293L40.1817 43.4616C42.3208 40.4907 45.2954 33.8443 44.0424 20.7647C43.9952 20.2479 43.6182 20.0058 43.4542 19.9512L43.4508 19.95C43.3288 19.9093 42.8931 19.7639 42.5055 20.1003L36.6489 24.7855L36.6467 24.7874C35.5786 25.6713 34.0317 25.6713 32.9636 24.7874ZM7.90995 25.8702L7.90996 25.87C7.94306 25.3403 8.40764 24.9074 8.97425 24.9404C9.50413 24.9737 9.93768 25.4386 9.90435 26.0052L9.90428 26.0066C9.78665 28.3199 9.8647 30.5182 10.1398 32.4837C10.205 33.0104 9.84607 33.5072 9.31981 33.6141H9.18031C8.67937 33.6141 8.24808 33.2468 8.18192 32.7505L8.18154 32.7479C7.87084 30.6507 7.75448 28.3188 7.90995 25.8702ZM10.8495 40.3715L10.8496 40.3715L10.8463 40.3669C10.4655 39.8338 10.1594 39.2225 9.84605 38.5958C9.61258 38.0927 9.81611 37.4978 10.3087 37.268C10.4341 37.2094 10.5658 37.1783 10.6963 37.172C11.0883 37.1532 11.4657 37.3599 11.6386 37.7304L11.6386 37.7304L11.6407 37.7347C11.9157 38.2846 12.192 38.7972 12.508 39.3106L12.5078 39.3108L12.5131 39.3185C12.8047 39.7397 12.6794 40.37 12.2129 40.6716C12.034 40.7787 11.871 40.8406 11.6805 40.8406C11.3531 40.8406 11.0542 40.6785 10.8495 40.3715ZM24.0037 5.46875C24.0037 4.90134 24.4332 4.47187 25.0006 4.47187C25.568 4.47187 25.9975 4.90134 25.9975 5.46875V10.9375C25.9975 11.5049 25.568 11.9344 25.0006 11.9344C24.4332 11.9344 24.0037 11.5049 24.0037 10.9375V5.46875Z" fill="black" stroke="#EAEAEA" stroke-width="0.35"/>
</svg>
