<svg width="50" height="50" viewBox="0 0 50 50" fill="none" xmlns="http://www.w3.org/2000/svg">
<path d="M3.99524 30.4569L3.99477 30.4575C3.80239 30.7295 3.49733 30.8758 3.18451 30.8758C2.9853 30.8758 2.78303 30.8161 2.60694 30.6899C2.15772 30.3671 2.05489 29.7455 2.37401 29.2967C10.7108 17.6285 22.3584 12.1374 30.6695 9.58136C36.4202 7.81639 41.3252 7.17368 44.1907 6.94397L44.5683 6.9137L44.3004 6.64579L40.0934 2.43876C39.7047 2.05007 39.7047 1.41868 40.0934 1.02999C40.4821 0.641304 41.1135 0.641305 41.5022 1.02999L47.5803 7.10812C47.7666 7.29442 47.8728 7.54694 47.8728 7.8125C47.8728 8.0785 47.7663 8.33089 47.5842 8.51298L41.5061 14.5911L41.505 14.5922C41.3135 14.787 41.0587 14.8836 40.8017 14.8836C40.5456 14.8836 40.2938 14.7875 40.0973 14.5911C39.7086 14.2024 39.7086 13.571 40.0973 13.1823L43.9879 9.29171L44.3319 8.94779L43.8477 8.99375C36.3028 9.70988 16.3027 13.2288 3.99524 30.4569ZM13.1072 41.0156V44.1406C13.1072 47.0596 10.7324 49.4344 7.81342 49.4344C4.89444 49.4344 2.51967 47.0596 2.51967 44.1406V41.0156C2.51967 38.0966 4.89444 35.7219 7.81342 35.7219C10.7324 35.7219 13.1072 38.0966 13.1072 41.0156ZM4.51342 41.0156V44.1406C4.51342 45.9599 5.99411 47.4406 7.81342 47.4406C9.63273 47.4406 11.1134 45.9599 11.1134 44.1406V41.0156C11.1134 39.1963 9.63273 37.7156 7.81342 37.7156C5.99411 37.7156 4.51342 39.1963 4.51342 41.0156ZM42.1884 20.0969C45.1074 20.0969 47.4822 22.4716 47.4822 25.3906V44.1406C47.4822 47.0596 45.1074 49.4344 42.1884 49.4344C39.2694 49.4344 36.8947 47.0596 36.8947 44.1406V25.3906C36.8947 22.4716 39.2694 20.0969 42.1884 20.0969ZM42.1884 47.4406C44.0077 47.4406 45.4884 45.9599 45.4884 44.1406V25.3906C45.4884 23.5713 44.0077 22.0906 42.1884 22.0906C40.3691 22.0906 38.8884 23.5713 38.8884 25.3906V44.1406C38.8884 45.9599 40.3691 47.4406 42.1884 47.4406ZM30.2947 33.2031V44.1406C30.2947 47.0596 27.9199 49.4344 25.0009 49.4344C22.0819 49.4344 19.7072 47.0596 19.7072 44.1406V33.2031C19.7072 30.2842 22.0819 27.9094 25.0009 27.9094C27.9199 27.9094 30.2947 30.2842 30.2947 33.2031ZM21.7009 33.2031V44.1406C21.7009 45.9599 23.1816 47.4406 25.0009 47.4406C26.8202 47.4406 28.3009 45.9599 28.3009 44.1406V33.2031C28.3009 31.3838 26.8202 29.9031 25.0009 29.9031C23.1816 29.9031 21.7009 31.3838 21.7009 33.2031Z" fill="black" stroke="#EAEAEA" stroke-width="0.35"/>
</svg>
