<svg width="112" height="112" viewBox="0 0 112 112" fill="none" xmlns="http://www.w3.org/2000/svg">
<path d="M0.00355837 78.2167V77.9756C-0.0614134 73.542 0.763943 69.1405 2.43073 65.0316C4.09752 60.9227 6.57185 57.1901 9.70722 54.0547C12.8426 50.9193 16.5752 48.445 20.6841 46.7782C24.793 45.1114 29.1946 44.2861 33.6282 44.351C38.0402 44.2697 42.4234 45.0768 46.5172 46.7242C50.6109 48.3715 54.3314 50.8255 57.4573 53.9402C60.5832 57.0549 63.0506 60.7665 64.7127 64.8543C66.3748 68.942 67.1976 73.3224 67.1322 77.7346V77.9756C67.1322 96.2944 53.0316 111.6 33.5076 111.6C13.9837 111.6 0.00355837 96.5355 0.00355837 78.2167ZM50.2597 78.3372V78.0962C50.2597 69.0573 43.1491 61.3441 33.3871 61.3441C23.2636 61.3441 16.7556 68.9368 16.7556 77.8551V78.0962C16.7556 87.135 23.8662 94.8482 33.6282 94.8482C43.8722 94.8482 50.2597 87.2556 50.2597 78.3372ZM42.5465 78.2167V78.0962C42.5465 73.1549 38.6899 69.0573 33.3871 69.0573C32.2069 69.024 31.0323 69.232 29.9353 69.6684C28.8382 70.1048 27.8417 70.7605 27.0069 71.5954C26.172 72.4302 25.5163 73.4267 25.0798 74.5238C24.6434 75.6208 24.4355 76.7954 24.4688 77.9756V78.0962C24.4688 83.0374 28.3254 87.135 33.6282 87.135C34.8084 87.1683 35.983 86.9604 37.08 86.524C38.1771 86.0875 39.1736 85.4318 40.0084 84.597C40.8433 83.7621 41.499 82.7656 41.9354 81.6686C42.3718 80.5715 42.5798 79.3969 42.5465 78.2167Z" fill="#3B79CC"/>
<path d="M41.5827 22.2959C63.276 22.2959 89.0669 41.4583 89.0669 69.5391C89.0669 73.8777 85.5719 77.2522 81.3537 77.2522H81.2332C79.8506 77.2306 78.5236 76.704 77.5024 75.7716C76.4812 74.8392 75.8363 73.5655 75.6894 72.1905C73.279 53.1486 58.8168 37.9633 38.8108 35.6734C37.4256 35.499 36.1502 34.8295 35.2199 33.7885C34.2896 32.7475 33.7672 31.4051 33.749 30.0091V29.8885C33.8695 25.6704 37.3646 22.2959 41.5827 22.2959ZM42.0648 0C40.0191 0 38.0572 0.812635 36.6107 2.25914C35.1642 3.70564 34.3516 5.66751 34.3516 7.71317V7.83369C34.3516 10.6056 36.6414 12.8955 39.5339 13.1365C54.7051 14.2416 68.9786 20.7448 79.7679 31.4677C90.5571 42.1906 97.1482 56.4237 98.3468 71.5879C98.437 72.9421 99.0317 74.2133 100.013 75.1504C100.995 76.0875 102.293 76.6225 103.65 76.6496H103.77C107.988 76.6496 111.483 73.1546 111.483 68.9365C111.363 28.0808 74.6047 0 42.0648 0Z" fill="#3B79CC"/>
</svg>
