<svg width="101" height="101" viewBox="0 0 101 101" fill="none" xmlns="http://www.w3.org/2000/svg">
<path d="M100.666 50.3333C100.666 22.5349 78.1315 0 50.3333 0C22.5349 0 0 22.5349 0 50.3333C0 75.456 18.4061 96.279 42.4687 100.055V64.8827H29.6888V50.3333H42.4687V39.2442C42.4687 26.6294 49.983 19.6614 61.4803 19.6614C66.9872 19.6614 72.7473 20.6445 72.7473 20.6445V33.0312H66.4003C60.1477 33.0312 58.1978 36.9111 58.1978 40.8916V50.3333H72.1574L69.9258 64.8827H58.1978V100.055C82.2603 96.279 100.666 75.456 100.666 50.3333Z" fill="#1877F2"/>
<path d="M69.9246 64.8824L72.1562 50.3329H58.1965V40.8912C58.1965 36.9108 60.1465 33.0309 66.3991 33.0309H72.746V20.6442C72.746 20.6442 66.9859 19.6611 61.479 19.6611C49.9818 19.6611 42.4674 26.6291 42.4674 39.2439V50.3329H29.6875V64.8824H42.4674V100.055C45.0691 100.462 47.6986 100.667 50.332 100.666C53.0075 100.666 55.6339 100.457 58.1965 100.055V64.8824H69.9246Z" fill="white"/>
</svg>
