<svg width="81" height="121" viewBox="0 0 81 121" fill="none" xmlns="http://www.w3.org/2000/svg">
<g clip-path="url(#clip0_2594_4529)">
<path d="M20.1667 121C31.2987 121 40.3333 111.966 40.3333 100.834V80.667H20.1667C9.03467 80.667 0 89.7017 0 100.834C0 111.966 9.03467 121 20.1667 121Z" fill="#0ACF83"/>
<path d="M0 60.4997C0 49.3677 9.03467 40.333 20.1667 40.333H40.3333V80.6663H20.1667C9.03467 80.6663 0 71.6317 0 60.4997Z" fill="#A259FF"/>
<path d="M0 20.1667C0 9.03467 9.03467 0 20.1667 0H40.3333V40.3333H20.1667C9.03467 40.3333 0 31.2987 0 20.1667Z" fill="#F24E1E"/>
<path d="M40.334 0H60.5007C71.6326 0 80.6673 9.03467 80.6673 20.1667C80.6673 31.2987 71.6326 40.3333 60.5007 40.3333H40.334V0Z" fill="#FF7262"/>
<path d="M80.6673 60.4997C80.6673 71.6317 71.6326 80.6663 60.5007 80.6663C49.3687 80.6663 40.334 71.6317 40.334 60.4997C40.334 49.3677 49.3687 40.333 60.5007 40.333C71.6326 40.333 80.6673 49.3677 80.6673 60.4997Z" fill="#1ABCFE"/>
</g>
<defs>
<clipPath id="clip0_2594_4529">
<rect width="80.6667" height="121" fill="white"/>
</clipPath>
</defs>
</svg>
