<svg width="135" height="135" viewBox="0 0 135 135" fill="none" xmlns="http://www.w3.org/2000/svg">
<g clip-path="url(#clip0_2703_15830)">
<path d="M91.4062 20.3906V113.203C91.4062 123.588 98.5711 129.375 106.172 129.375C113.203 129.375 120.938 124.453 120.938 113.203V21.0938C120.938 11.5734 113.906 5.625 106.172 5.625C98.4375 5.625 91.4062 12.1852 91.4062 20.3906Z" fill="#F9AB00"/>
<path d="M52.7344 67.5V113.203C52.7344 123.588 59.8992 129.375 67.5 129.375C74.5312 129.375 82.2656 124.453 82.2656 113.203V68.2031C82.2656 58.6828 75.2344 52.7344 67.5 52.7344C59.7656 52.7344 52.7344 59.2945 52.7344 67.5Z" fill="#E37400"/>
<path d="M28.8281 129.375C36.983 129.375 43.5938 122.764 43.5938 114.609C43.5938 106.455 36.983 99.8438 28.8281 99.8438C20.6733 99.8438 14.0625 106.455 14.0625 114.609C14.0625 122.764 20.6733 129.375 28.8281 129.375Z" fill="#E37400"/>
</g>
<defs>
<clipPath id="clip0_2703_15830">
<rect width="135" height="135" fill="white"/>
</clipPath>
</defs>
</svg>
