<svg width="142" height="123" viewBox="0 0 142 123" fill="none" xmlns="http://www.w3.org/2000/svg">
<path d="M141.641 19.3359V112.652C141.642 113.919 141.393 115.174 140.909 116.345C140.425 117.516 139.714 118.58 138.819 119.477C137.923 120.373 136.86 121.085 135.689 121.57C134.519 122.056 133.264 122.306 131.997 122.307H9.68589C7.1276 122.308 4.67346 121.293 2.86301 119.486C1.05257 117.678 0.0340034 115.226 0.03125 112.668V19.3359H141.641Z" fill="#DDDDDD"/>
<path d="M9.68461 0H131.991C134.548 -1.48162e-06 137.001 1.01521 138.81 2.82259C140.619 4.62996 141.637 7.08167 141.64 9.63906V19.3353H0.0351576V9.65464C0.0344754 8.38746 0.28339 7.13255 0.76769 5.96156C1.25199 4.79058 1.96219 3.72645 2.85774 2.82993C3.7533 1.93341 4.81666 1.22207 5.98712 0.736508C7.15759 0.250947 8.41223 0.000681832 9.67941 0L9.68461 0Z" fill="#C2C2C2"/>
<path d="M131.991 0H9.68461C7.12704 0.00822337 4.67666 1.02821 2.86867 2.83718C1.06067 4.64614 0.0420035 7.09708 0.0351562 9.65464V10.4233C0.0502044 7.87112 1.07249 5.42816 2.8796 3.62591C4.68671 1.82367 7.13242 0.807964 9.68461 0.799793H131.991C134.548 0.808016 136.999 1.828 138.807 3.63697C140.615 5.44594 141.633 7.89687 141.64 10.4544V9.6858C141.641 7.12284 140.626 4.66391 138.818 2.84822C137.009 1.03252 134.554 0.00824952 131.991 0Z" fill="white" fill-opacity="0.2"/>
<path d="M0.0351562 19.3359H141.64V20.1046H0.0351562V19.3359Z" fill="#212121" fill-opacity="0.1"/>
<path d="M70.7867 48.2787C64.0348 48.2787 57.3489 49.6086 51.1109 52.1924C44.873 54.7763 39.205 58.5635 34.4306 63.3378C24.7884 72.9801 19.3714 86.0578 19.3714 99.6939V99.7614C19.3714 100.842 19.3091 102.171 19.3714 102.981H41.8332C41.7725 101.909 41.7725 100.834 41.8332 99.7614C41.8406 94.6082 43.2219 89.5501 45.8346 85.1082C48.4473 80.6664 52.197 77.0014 56.6974 74.4909C61.1978 71.9804 66.2862 70.7151 71.4383 70.8254C76.5904 70.9357 81.6199 72.4176 86.0087 75.1185L102.171 58.9564C93.179 52.0184 82.1388 48.261 70.7815 48.2735L70.7867 48.2787Z" fill="#4285F4"/>
<path d="M102.172 58.9248L86 75.0972C90.2121 77.6852 93.6912 81.3088 96.1058 85.6226C98.5204 89.9363 99.7901 94.7966 99.7938 99.7402C99.8545 100.813 99.8545 101.888 99.7938 102.96H122.328C122.391 102.192 122.328 100.82 122.328 99.7402C122.327 91.8462 120.509 84.0584 117.013 76.9804C113.518 69.9023 108.44 63.7242 102.172 58.9248Z" fill="#F44336"/>
<path d="M12.9074 12.8745C14.6858 12.8745 16.1274 11.4328 16.1274 9.65452C16.1274 7.87619 14.6858 6.43457 12.9074 6.43457C11.1291 6.43457 9.6875 7.87619 9.6875 9.65452C9.6875 11.4328 11.1291 12.8745 12.9074 12.8745Z" fill="#EEEEEE"/>
<path d="M25.7864 12.8745C27.5647 12.8745 29.0063 11.4328 29.0063 9.65452C29.0063 7.87619 27.5647 6.43457 25.7864 6.43457C24.008 6.43457 22.5664 7.87619 22.5664 9.65452C22.5664 11.4328 24.008 12.8745 25.7864 12.8745Z" fill="#EEEEEE"/>
<path d="M132.007 121.491H9.65464C7.09618 121.484 4.64446 120.464 2.83535 118.655C1.02624 116.846 0.00685368 114.394 0 111.836L0 112.605C0.00685368 115.163 1.02624 117.615 2.83535 119.424C4.64446 121.233 7.09618 122.252 9.65464 122.259H132.007C134.562 122.247 137.009 121.225 138.813 119.417C140.618 117.608 141.634 115.159 141.641 112.605V111.836C141.634 114.391 140.618 116.839 138.813 118.648C137.009 120.456 134.562 121.478 132.007 121.491Z" fill="#212121" fill-opacity="0.1"/>
<path d="M102.319 60.884C102.519 60.6114 102.626 60.282 102.625 59.944C102.624 59.5174 102.454 59.1087 102.152 58.8071C101.851 58.5054 101.442 58.3354 101.015 58.334C100.654 58.333 100.303 58.4579 100.023 58.6871L64.9364 85.6931C63.8132 86.5584 62.8944 87.6606 62.2456 88.9213C61.5967 90.1819 61.2336 91.5701 61.1821 92.987C61.1307 94.4039 61.3921 95.8148 61.9478 97.1192C62.5035 98.4236 63.3398 99.5896 64.3973 100.534C65.4548 101.479 66.7074 102.178 68.066 102.584C69.4247 102.989 70.856 103.09 72.2581 102.88C73.6602 102.669 74.9987 102.152 76.1784 101.366C77.3581 100.579 78.3499 99.5422 79.0833 98.3288L102.314 60.884H102.319Z" fill="#9E9E9E"/>
<path opacity="0.2" d="M64.9346 86.5076L100.022 59.5016C100.228 59.3338 100.474 59.2208 100.735 59.1729C100.997 59.1251 101.267 59.1439 101.519 59.2278C101.772 59.3116 101.999 59.4577 102.18 59.6526C102.362 59.8475 102.491 60.0849 102.556 60.3429C102.593 60.2181 102.614 60.0889 102.618 59.9586C102.617 59.532 102.447 59.1233 102.145 58.8217C101.844 58.5201 101.435 58.35 101.008 58.3486C100.647 58.3477 100.296 58.4725 100.016 58.7018L64.9398 85.7078C63.7684 86.6069 62.8198 87.7637 62.1678 89.0886C61.5157 90.4134 61.1776 91.8707 61.1797 93.3474V93.7784C61.2342 92.3653 61.5989 90.9815 62.2477 89.725C62.8966 88.4685 63.8139 87.3701 64.9346 86.5076Z" fill="white"/>
<path opacity="0.2" d="M102.317 60.8832L79.092 98.3488C78.0198 100.117 76.4075 101.494 74.4931 102.276C72.5786 103.058 70.4635 103.205 68.4597 102.693C66.4559 102.181 64.6697 101.039 63.3645 99.4351C62.0593 97.8309 61.3043 95.8497 61.2109 93.7838V94.1525C61.2079 96.2612 61.8956 98.3129 63.169 99.9937C64.4424 101.675 66.2314 102.892 68.2622 103.46C70.293 104.028 72.454 103.914 74.4144 103.138C76.3749 102.361 78.027 100.964 79.118 99.159L102.343 61.6934C102.543 61.4208 102.65 61.0914 102.65 60.7534C102.649 60.6126 102.628 60.4725 102.587 60.3379C102.531 60.5344 102.439 60.7191 102.317 60.8832Z" fill="#212121"/>
<path d="M102.298 58.9717C102.506 59.2468 102.619 59.5823 102.619 59.9273C102.619 60.2722 102.506 60.6078 102.298 60.8829L79.073 98.3485C78.3464 99.5422 77.3689 100.564 76.2084 101.342C75.0479 102.121 73.7321 102.638 72.352 102.858C70.9718 103.078 69.5604 102.995 68.2154 102.615C66.8705 102.236 65.6241 101.569 64.5625 100.66L86.1777 122.275H131.979C133.246 122.277 134.502 122.029 135.674 121.546C136.846 121.062 137.911 120.353 138.808 119.458C139.706 118.563 140.418 117.499 140.905 116.329C141.391 115.158 141.642 113.903 141.644 112.636V98.3277L102.298 58.9717Z" fill="url(#paint0_linear_2703_15815)"/>
<path d="M141.64 9.65464C141.641 8.38746 141.392 7.13255 140.908 5.96156C140.423 4.79058 139.713 3.72645 138.817 2.82993C137.922 1.93341 136.859 1.22207 135.688 0.736508C134.518 0.250947 133.263 0.000681831 131.996 0H9.68461C8.41742 0 7.16265 0.24959 5.99192 0.73452C4.8212 1.21945 3.75745 1.93022 2.86142 2.82626C1.96538 3.72229 1.25461 4.78604 0.769678 5.95676C0.284748 7.12749 0.0351576 8.38226 0.0351576 9.64945V112.636C0.0344754 113.903 0.283391 115.158 0.767691 116.329C1.25199 117.5 1.96219 118.564 2.85774 119.46C3.7533 120.357 4.81666 121.068 5.98712 121.554C7.15759 122.039 8.41223 122.29 9.67941 122.29H131.991C134.547 122.29 136.999 121.276 138.808 119.47C140.617 117.663 141.636 115.213 141.64 112.657V9.65464Z" fill="url(#paint1_radial_2703_15815)"/>
<defs>
<linearGradient id="paint0_linear_2703_15815" x1="85.1026" y1="81.4905" x2="131.073" y2="127.46" gradientUnits="userSpaceOnUse">
<stop stop-color="#212121" stop-opacity="0.2"/>
<stop offset="1" stop-color="#212121" stop-opacity="0"/>
</linearGradient>
<radialGradient id="paint1_radial_2703_15815" cx="0" cy="0" r="1" gradientUnits="userSpaceOnUse" gradientTransform="translate(3.52517 2.14749) scale(176.676 176.676)">
<stop stop-color="white" stop-opacity="0.1"/>
<stop offset="1" stop-color="white" stop-opacity="0"/>
</radialGradient>
</defs>
</svg>
