<svg width="200" height="90" viewBox="0 0 200 90" fill="none" xmlns="http://www.w3.org/2000/svg">
<path d="M133.35 34.6086C129.752 34.6086 127.068 36.376 127.068 40.6305C127.068 43.8055 128.835 46.0597 133.153 46.0597C136.815 46.0597 139.302 43.9007 139.302 40.4971C139.302 36.6342 137.08 34.6086 133.35 34.6086ZM126.154 64.644C125.301 65.6897 124.452 66.803 124.452 68.0836C124.452 70.6977 127.785 71.4872 132.368 71.4872C136.163 71.4872 141.332 71.2227 141.332 67.6921C141.332 65.5966 138.845 65.4653 135.702 65.2685L126.177 64.6165L126.154 64.644ZM145.521 34.8033C146.696 36.3125 147.943 38.4016 147.943 41.4136C147.943 48.6738 142.227 52.9283 134.006 52.9283C131.89 52.9283 130.038 52.6637 128.835 52.3399L126.676 55.7794L133.09 56.171C144.414 56.8907 151.082 57.2209 151.082 65.9183C151.082 73.4451 144.478 77.6912 133.09 77.6912C121.247 77.6912 116.734 74.6813 116.734 69.4891C116.734 66.5469 118.047 64.9743 120.333 62.8131C118.174 61.903 117.454 60.2647 117.454 58.4994C117.454 57.06 118.174 55.7477 119.353 54.5306L123.408 50.6042C120.201 49.0379 117.778 45.63 117.778 40.8146C117.778 33.2899 122.752 28.1231 132.764 28.1231C135.579 28.1231 137.281 28.3834 138.786 28.7793H151.545V34.3397L145.523 34.7969M163.053 22.9119C159.349 22.9119 157.165 20.7529 157.165 17.0191C157.165 13.2853 159.324 11.2617 163.053 11.2617C166.849 11.2617 169.008 13.2937 169.008 17.0191C169.008 20.7444 166.846 22.9119 163.053 22.9119ZM154.587 62.2353V57.0706L157.927 56.6134C158.841 56.4822 158.975 56.2853 158.975 55.3011V36.069C158.975 35.3494 158.778 34.8922 158.122 34.6932L154.587 33.4507L155.306 28.1548H168.853V55.3117C168.853 56.3594 168.917 56.4885 169.901 56.624L173.235 57.0812V62.2416H154.58M199.136 59.7016C196.321 61.0775 192.198 62.3475 188.468 62.3475C180.679 62.3475 177.737 59.2106 177.737 51.8128V34.6678C177.737 34.2762 177.737 34.0117 177.208 34.0117H172.657V28.1908C178.414 27.5558 180.706 24.656 181.426 17.5228H187.643V26.815C187.643 27.2701 187.643 27.4712 188.168 27.4712H197.396V34.0117H187.622V49.6221C187.622 53.485 188.54 54.9878 192.067 54.9878C193.9 54.9878 195.771 54.5306 197.367 53.9422L199.134 59.6995" fill="#362701"/>
<path d="M88.1339 40.9157L48.9078 1.69386C46.6515 -0.564621 42.9875 -0.564621 40.7269 1.69386L32.5841 9.8388L42.9134 20.1681C45.3159 19.3574 48.0675 19.9035 49.9768 21.8128C50.8884 22.7259 51.5248 23.877 51.8134 25.1346C52.102 26.3922 52.031 27.7056 51.6087 28.9248L61.5655 38.8816C63.9468 38.0518 66.7514 38.5916 68.6775 40.5114C69.5333 41.3654 70.1489 42.4298 70.4624 43.5975C70.7758 44.7652 70.7759 45.9948 70.4628 47.1626C70.1497 48.3303 69.5343 49.3949 68.6787 50.2491C67.8231 51.1033 66.7575 51.717 65.5893 52.0282C64.4222 52.3412 63.1933 52.3413 62.0261 52.0284C60.859 51.7155 59.7949 51.1008 58.9408 50.246C56.9194 48.2224 56.422 45.2506 57.4444 42.7593L48.1839 33.4989V57.9358C48.8189 58.2618 49.4582 58.6915 50.0043 59.2376C52.6924 61.9257 52.6924 66.2818 50.0043 68.9742C49.3654 69.6139 48.6066 70.1214 47.7715 70.4676C46.9363 70.8139 46.0411 70.9921 45.137 70.9921C44.2329 70.9921 43.3377 70.8139 42.5025 70.4676C41.6674 70.1214 40.9086 69.6139 40.2697 68.9742C37.5816 66.2797 37.5816 61.9257 40.2697 59.2376C40.9148 58.593 41.6809 58.0823 42.524 57.7347V33.0756C41.7302 32.7369 40.9365 32.2416 40.2697 31.5939C39.3037 30.6284 38.6469 29.3972 38.383 28.0572C38.1191 26.7171 38.2601 25.3288 38.7881 24.0691L28.6027 13.8816L1.68924 40.7315C0.607369 41.8184 0 43.2895 0 44.8231C0 46.3566 0.607369 47.8277 1.68924 48.9146L40.9174 88.1364C43.1738 90.3949 46.8377 90.3949 49.0983 88.1364L88.1339 49.0987C89.2158 48.0119 89.8231 46.5407 89.8231 45.0072C89.8231 43.4737 89.2158 42.0026 88.1339 40.9157Z" fill="#F03C2E"/>
</svg>
