<svg width="129" height="126" viewBox="0 0 129 126" fill="none" xmlns="http://www.w3.org/2000/svg">
<path d="M43.1098 101.187C43.1098 101.707 42.5121 102.123 41.7585 102.123C40.901 102.201 40.3034 101.785 40.3034 101.187C40.3034 100.667 40.901 100.252 41.6546 100.252C42.4342 100.174 43.1098 100.59 43.1098 101.187ZM35.0283 100.018C34.8464 100.538 35.3661 101.135 36.1457 101.291C36.8213 101.551 37.6009 101.291 37.7568 100.771C37.9127 100.252 37.419 99.654 36.6394 99.4202C35.9638 99.2383 35.2102 99.4981 35.0283 100.018ZM46.5139 99.5761C45.7603 99.758 45.2406 100.252 45.3185 100.849C45.3965 101.369 46.0721 101.707 46.8517 101.525C47.6053 101.343 48.125 100.849 48.047 100.33C47.9691 99.8359 47.2675 99.4981 46.5139 99.5761ZM63.6123 0C27.5705 0 0 27.3626 0 63.4044C0 92.2222 18.1378 116.882 44.0453 125.561C47.3714 126.159 48.5407 124.106 48.5407 122.417C48.5407 120.806 48.4628 111.919 48.4628 106.462C48.4628 106.462 30.273 110.36 26.4531 98.7186C26.4531 98.7186 23.4908 91.1568 19.2292 89.2079C19.2292 89.2079 13.2785 85.1282 19.645 85.2061C19.645 85.2061 26.1153 85.7259 29.6753 91.9104C35.3661 101.941 44.9028 99.0564 48.6187 97.3413C49.2164 93.1837 50.9054 90.2993 52.7764 88.5842C38.2505 86.9732 23.5947 84.8683 23.5947 59.8704C23.5947 52.7244 25.5696 49.1384 29.7273 44.565C29.0517 42.8759 26.8429 35.9118 30.4029 26.9209C35.8339 25.2318 48.3329 33.9369 48.3329 33.9369C53.5299 32.4818 59.1168 31.7282 64.6517 31.7282C70.1866 31.7282 75.7734 32.4818 80.9705 33.9369C80.9705 33.9369 93.4695 25.2058 98.9005 26.9209C102.46 35.9378 100.252 42.8759 99.5761 44.565C103.734 49.1644 106.28 52.7504 106.28 59.8704C106.28 84.9463 90.9749 86.9472 76.4491 88.5842C78.8397 90.6371 80.8666 94.5349 80.8666 100.641C80.8666 109.399 80.7886 120.234 80.7886 122.365C80.7886 124.054 81.984 126.107 85.2841 125.51C111.27 116.882 128.888 92.2222 128.888 63.4044C128.888 27.3626 99.654 0 63.6123 0ZM25.2578 89.6237C24.92 89.8835 24.998 90.4812 25.4397 90.9749C25.8555 91.3907 26.4531 91.5726 26.791 91.2348C27.1288 90.9749 27.0508 90.3772 26.6091 89.8835C26.1933 89.4678 25.5956 89.2859 25.2578 89.6237ZM22.4514 87.5188C22.2695 87.8567 22.5293 88.2724 23.0491 88.5323C23.4648 88.7921 23.9845 88.7142 24.1664 88.3504C24.3483 88.0126 24.0885 87.5968 23.5688 87.3369C23.0491 87.181 22.6333 87.259 22.4514 87.5188ZM30.8707 96.7696C30.4549 97.1075 30.6108 97.887 31.2085 98.3807C31.8061 98.9784 32.5597 99.0564 32.8975 98.6406C33.2353 98.3028 33.0794 97.5232 32.5597 97.0295C31.988 96.4318 31.2085 96.3539 30.8707 96.7696ZM27.9083 92.9498C27.4926 93.2096 27.4926 93.8853 27.9083 94.4829C28.3241 95.0806 29.0257 95.3404 29.3635 95.0806C29.7793 94.7428 29.7793 94.0672 29.3635 93.4695C28.9997 92.8718 28.3241 92.612 27.9083 92.9498Z" fill="black"/>
</svg>
