<svg width="113" height="111" viewBox="0 0 113 111" fill="none" xmlns="http://www.w3.org/2000/svg">
<path d="M111.722 67.861L92.0324 110.757H44.9609L70.7162 55.3789H103.679C110.096 55.3789 114.36 62.0155 111.722 67.861Z" fill="#437DE6"/>
<path d="M49.6207 4.79065L0 110.756H45.8848L72.5191 53.4883L97.3954 0H57.1363C53.9279 0 50.9831 1.84594 49.6207 4.79065Z" fill="url(#paint0_linear_2703_15237)"/>
<path d="M103.678 56.17C106.447 56.17 108.952 57.5325 110.447 59.8619C111.941 62.1913 112.117 65.0481 110.974 67.5533L91.5479 110.01H47.1134L72.1216 56.17H103.678ZM103.678 55.3789H71.6381L45.8828 110.757H92.0313L111.677 67.861C114.358 62.0155 110.095 55.3789 103.678 55.3789Z" fill="#196CEA"/>
<path d="M72.125 56.1698C72.125 56.1698 96.8255 82.9799 102.627 85.7488L110.67 68.1245C113.483 62.5427 109.879 56.038 103.154 56.1259L72.125 56.1698Z" fill="url(#paint1_linear_2703_15237)"/>
<path d="M96.1648 0.791119L71.8159 53.1807L45.4014 110.009H1.23063L50.3239 5.09832C51.5545 2.46126 54.2355 0.747165 57.1363 0.747165H96.1648V0.791119ZM97.3954 0H57.1363C53.9279 0 50.9831 1.84594 49.6207 4.79065L0 110.756H45.8848L72.5191 53.4883L97.3954 0Z" fill="#F3AA00"/>
<defs>
<linearGradient id="paint0_linear_2703_15237" x1="27.707" y1="90.3341" x2="58.8201" y2="50.5246" gradientUnits="userSpaceOnUse">
<stop stop-color="#F5B406"/>
<stop offset="1" stop-color="#F4B913"/>
</linearGradient>
<linearGradient id="paint1_linear_2703_15237" x1="72.1412" y1="70.9639" x2="111.664" y2="70.9639" gradientUnits="userSpaceOnUse">
<stop stop-color="#4284F0"/>
<stop offset="1" stop-color="#4487F4"/>
</linearGradient>
</defs>
</svg>
