<svg width="110" height="110" viewBox="0 0 110 110" fill="none" xmlns="http://www.w3.org/2000/svg">
<g clip-path="url(#clip0_2594_4523)">
<path d="M4.58203 4.70117H105.416V105.3H4.58203V4.70117Z" fill="url(#paint0_radial_2594_4523)"/>
<path d="M4.58328 4.70079H105.417V105.299H4.58328V4.70079ZM0 110H110V0H0V110ZM72.05 39.2052C72.05 38.8291 72.1875 38.6409 72.6002 38.6409H79.796C80.1624 38.6409 80.3459 38.782 80.3459 39.2052V76.295C80.3459 76.6709 80.2542 76.8591 79.796 76.8591H72.6918C72.2335 76.8591 72.0959 76.6241 72.0959 76.248V39.2052H72.05ZM71.5459 28.5341C71.5459 25.5256 73.6084 23.7393 76.2211 23.7393C79.0169 23.7393 80.896 25.6666 80.896 28.5341C80.896 31.6367 78.9252 33.3289 76.1294 33.3289C73.4709 33.3291 71.5459 31.6367 71.5459 28.5341ZM50.9209 54.671C49.6378 49.453 46.6128 38.0769 45.4667 32.5769H45.3751C44.4125 38.0769 41.9835 47.3845 40.0586 54.671H50.9209ZM38.1793 62.2865L34.5584 76.389C34.4667 76.7649 34.3292 76.8589 33.871 76.8589H27.1334C26.6752 76.8589 26.5833 76.7179 26.6752 76.1538L39.6918 29.4272C39.9209 28.5811 40.0584 27.8289 40.15 25.5256C40.15 25.1966 40.2875 25.0556 40.5166 25.0556H50.1417C50.4625 25.0556 50.5999 25.1496 50.6918 25.5256L65.2667 76.2479C65.3583 76.6237 65.2667 76.8589 64.9001 76.8589H57.2916C56.925 76.8589 56.6957 76.7649 56.6042 76.4361L52.8458 62.2865H38.1793Z" fill="#FF7F18"/>
</g>
<defs>
<radialGradient id="paint0_radial_2594_4523" cx="0" cy="0" r="1" gradientUnits="userSpaceOnUse" gradientTransform="translate(37.7917 27.2454) scale(76.6335 76.0975)">
<stop stop-color="#423325" stop-opacity="0.98"/>
<stop offset="1" stop-color="#1C0A00"/>
</radialGradient>
<clipPath id="clip0_2594_4523">
<rect width="110" height="110" fill="white"/>
</clipPath>
</defs>
</svg>
