<svg width="96" height="96" viewBox="0 0 96 96" fill="none" xmlns="http://www.w3.org/2000/svg">
<path d="M47.8618 0C27.8865 0 22.0445 0.0206068 20.9089 0.114809C16.8096 0.455558 14.2588 1.10099 11.4798 2.48459C9.33815 3.54805 7.64913 4.78078 5.98219 6.50881C2.94636 9.66018 1.10647 13.5372 0.44043 18.1458C0.116608 20.3831 0.0224058 20.8394 0.00327092 32.2673C-0.00408865 36.0766 0.00327092 41.09 0.00327092 47.8144C0.00327092 67.7736 0.0253497 73.6097 0.121024 74.7431C0.452205 78.732 1.07777 81.2416 2.40249 83.9867C4.93419 89.2415 9.76943 93.1862 15.4657 94.6581C17.4381 95.1659 19.6165 95.4456 22.4132 95.5781C23.5981 95.6296 35.6751 95.6664 47.7595 95.6664C59.844 95.6664 71.9284 95.6517 73.0838 95.5928C76.3221 95.4404 78.2024 95.188 80.2815 94.6508C83.106 93.9264 85.7383 92.5943 87.9946 90.7473C90.2509 88.9003 92.0768 86.583 93.3447 83.9573C94.6437 81.2784 95.3024 78.6731 95.6005 74.8925C95.6652 74.0682 95.6925 60.9262 95.6925 47.8019C95.6925 34.6754 95.663 21.5577 95.5983 20.7334C95.2965 16.8917 94.6378 14.3085 93.2969 11.5781C92.1967 9.34298 90.975 7.67383 89.2013 5.96714C86.0367 2.94383 82.1656 1.10394 77.5518 0.438631C75.3167 0.115545 74.8715 0.0198709 63.4347 0H47.8618Z" fill="url(#paint0_radial_2703_15231)"/>
<path d="M47.8618 0C27.8865 0 22.0445 0.0206068 20.9089 0.114809C16.8096 0.455558 14.2588 1.10099 11.4798 2.48459C9.33815 3.54805 7.64913 4.78078 5.98219 6.50881C2.94636 9.66018 1.10647 13.5372 0.44043 18.1458C0.116608 20.3831 0.0224058 20.8394 0.00327092 32.2673C-0.00408865 36.0766 0.00327092 41.09 0.00327092 47.8144C0.00327092 67.7736 0.0253497 73.6097 0.121024 74.7431C0.452205 78.732 1.07777 81.2416 2.40249 83.9867C4.93419 89.2415 9.76943 93.1862 15.4657 94.6581C17.4381 95.1659 19.6165 95.4456 22.4132 95.5781C23.5981 95.6296 35.6751 95.6664 47.7595 95.6664C59.844 95.6664 71.9284 95.6517 73.0838 95.5928C76.3221 95.4404 78.2024 95.188 80.2815 94.6508C83.106 93.9264 85.7383 92.5943 87.9946 90.7473C90.2509 88.9003 92.0768 86.583 93.3447 83.9573C94.6437 81.2784 95.3024 78.6731 95.6005 74.8925C95.6652 74.0682 95.6925 60.9262 95.6925 47.8019C95.6925 34.6754 95.663 21.5577 95.5983 20.7334C95.2965 16.8917 94.6378 14.3085 93.2969 11.5781C92.1967 9.34298 90.975 7.67383 89.2013 5.96714C86.0367 2.94383 82.1656 1.10394 77.5518 0.438631C75.3167 0.115545 74.8715 0.0198709 63.4347 0H47.8618Z" fill="url(#paint1_radial_2703_15231)"/>
<path d="M47.8399 12.5117C38.2459 12.5117 37.0419 12.5537 33.2738 12.7251C29.5131 12.8974 26.9461 13.4928 24.6999 14.3663C22.3765 15.2686 20.4056 16.4756 18.4421 18.4399C16.4771 20.4034 15.2701 22.3743 14.3649 24.697C13.4891 26.9438 12.8929 29.5116 12.7237 33.2709C12.5559 37.039 12.5117 38.2437 12.5117 47.8377C12.5117 57.4316 12.5544 58.632 12.7251 62.4001C12.8981 66.1608 13.4935 68.7278 14.3663 70.974C15.2694 73.2974 16.4763 75.2683 18.4406 77.2318C20.4034 79.1968 22.3743 80.4068 24.6962 81.309C26.9438 82.1826 29.5116 82.778 33.2716 82.9502C37.0397 83.1217 38.243 83.1636 47.8362 83.1636C57.4309 83.1636 58.6312 83.1217 62.3993 82.9502C66.1601 82.778 68.73 82.1826 70.9777 81.309C73.3003 80.4068 75.2683 79.1968 77.2311 77.2318C79.1961 75.2683 80.4031 73.2974 81.3083 70.9747C82.1767 68.7278 82.7728 66.1601 82.9495 62.4008C83.1187 58.6327 83.1629 57.4316 83.1629 47.8377C83.1629 38.2437 83.1187 37.0397 82.9495 33.2716C82.7728 29.5109 82.1767 26.9438 81.3083 24.6977C80.4031 22.3743 79.1961 20.4034 77.2311 18.4399C75.2661 16.4749 73.3011 15.2679 70.9754 14.3663C68.7234 13.4928 66.1549 12.8974 62.3942 12.7251C58.6261 12.5537 57.4265 12.5117 47.8296 12.5117H47.8399ZM44.6709 18.8778C45.6114 18.8763 46.6609 18.8778 47.8399 18.8778C57.2719 18.8778 58.3898 18.9116 62.1145 19.0809C65.5588 19.2384 67.4281 19.8139 68.6734 20.2974C70.3219 20.9377 71.4972 21.7031 72.7329 22.9395C73.9693 24.1759 74.7347 25.3534 75.3765 27.002C75.86 28.2458 76.4362 30.1151 76.593 33.5594C76.7623 37.2833 76.7991 38.402 76.7991 47.8296C76.7991 57.2572 76.7623 58.3759 76.593 62.0998C76.4355 65.5441 75.86 67.4134 75.3765 68.6572C74.7362 70.3057 73.9693 71.4796 72.7329 72.7153C71.4965 73.9517 70.3227 74.7171 68.6734 75.3573C67.4296 75.8431 65.5588 76.4171 62.1145 76.5746C58.3906 76.7439 57.2719 76.7807 47.8399 76.7807C38.4071 76.7807 37.2892 76.7439 33.5653 76.5746C30.121 76.4156 28.2516 75.8401 27.0057 75.3566C25.3571 74.7163 24.1796 73.9509 22.9432 72.7145C21.7068 71.4781 20.9414 70.3035 20.2996 68.6542C19.8161 67.4105 19.2398 65.5411 19.0831 62.0969C18.9138 58.3729 18.88 57.2543 18.88 47.8208C18.88 38.3872 18.9138 37.2745 19.0831 33.5505C19.2406 30.1063 19.8161 28.2369 20.2996 26.9917C20.9399 25.3431 21.7068 24.1656 22.9432 22.9292C24.1796 21.6928 25.3571 20.9274 27.0057 20.2856C28.2509 19.7999 30.121 19.2259 33.5653 19.0676C36.8241 18.9204 38.087 18.8763 44.6709 18.8689V18.8778ZM66.6966 24.7433C65.8581 24.7433 65.0385 24.992 64.3413 25.4579C63.6442 25.9237 63.1008 26.5859 62.78 27.3605C62.4592 28.1352 62.3753 28.9877 62.539 29.81C62.7027 30.6323 63.1066 31.3877 63.6996 31.9805C64.2926 32.5733 65.0481 32.9769 65.8705 33.1403C66.6929 33.3037 67.5453 33.2195 68.3199 32.8985C69.0944 32.5774 69.7564 32.0338 70.222 31.3365C70.6876 30.6392 70.936 29.8195 70.9357 28.981C70.9357 26.6406 69.0369 24.7419 66.6966 24.7419V24.7433ZM47.8399 29.6963C37.8213 29.6963 29.6985 37.8191 29.6985 47.8377C29.6985 57.8563 37.8213 65.9754 47.8399 65.9754C57.8585 65.9754 65.979 57.8563 65.979 47.8377C65.979 37.8191 57.8585 29.6963 47.8399 29.6963ZM47.8399 36.0624C54.3428 36.0624 59.6152 41.334 59.6152 47.8377C59.6152 54.3406 54.3428 59.613 47.8399 59.613C41.3362 59.613 36.0646 54.3406 36.0646 47.8377C36.0646 41.334 41.3362 36.0624 47.8399 36.0624Z" fill="white"/>
<defs>
<radialGradient id="paint0_radial_2703_15231" cx="0" cy="0" r="1" gradientUnits="userSpaceOnUse" gradientTransform="translate(25.4184 103.035) rotate(-90) scale(94.8125 88.2071)">
<stop stop-color="#FFDD55"/>
<stop offset="0.1" stop-color="#FFDD55"/>
<stop offset="0.5" stop-color="#FF543E"/>
<stop offset="1" stop-color="#C837AB"/>
</radialGradient>
<radialGradient id="paint1_radial_2703_15231" cx="0" cy="0" r="1" gradientUnits="userSpaceOnUse" gradientTransform="translate(-16.029 6.89165) rotate(78.6776) scale(42.382 174.744)">
<stop stop-color="#3771C8"/>
<stop offset="0.128" stop-color="#3771C8"/>
<stop offset="1" stop-color="#6600FF" stop-opacity="0"/>
</radialGradient>
</defs>
</svg>
