<svg width="83" height="83" viewBox="0 0 83 83" fill="none" xmlns="http://www.w3.org/2000/svg">
<g clip-path="url(#clip0_2930_13506)">
<path d="M75.4759 0H7.52414C3.36863 0 0 3.36863 0 7.52414V75.4759C0 79.6314 3.36863 83 7.52414 83H75.4759C79.6314 83 83 79.6314 83 75.4759V7.52414C83 3.36863 79.6314 0 75.4759 0Z" fill="#DC395F"/>
<path d="M27.7385 26.1143C30.4976 26.1143 32.8089 23.9517 32.8089 21.1174C32.8089 18.285 30.4976 16.1228 27.7385 16.1228C24.9794 16.1228 22.6686 18.285 22.6686 21.1174C22.6686 23.9514 24.9794 26.1143 27.7385 26.1143ZM17.2253 52.8688C16.9274 54.1365 16.7779 55.5053 16.7779 56.6219C16.7779 61.0219 19.1638 63.9428 24.2343 63.9428C28.4394 63.9428 31.8486 61.4457 34.3032 57.4134L32.8044 63.4286H41.1546L45.9271 44.287C47.1203 39.4406 49.4316 36.925 52.9364 36.925C55.6952 36.925 57.41 38.6408 57.41 41.4731C57.41 42.2937 57.3354 43.1876 57.0371 44.1574L54.5763 52.9557C54.2035 54.2234 54.055 55.4917 54.055 56.6839C54.055 60.8608 56.5148 63.9159 61.6598 63.9159C66.0592 63.9159 69.5633 61.0838 71.5022 54.2983L68.2217 53.0319C66.5812 57.5777 65.1643 58.3996 64.0458 58.3996C62.9272 58.3996 62.3307 57.6546 62.3307 56.1641C62.3307 55.493 62.4804 54.7483 62.7035 53.8515L65.0901 45.2798C65.6863 43.267 65.9103 41.4822 65.9103 39.8423C65.9103 33.4299 62.0327 30.0833 57.3354 30.0833C52.9364 30.0833 48.4622 34.0515 46.2257 38.2277L47.8656 30.7318H35.1161L33.3264 37.3342H39.2917L35.6183 52.0407C32.7337 58.4531 27.435 58.5572 26.77 58.4084C25.678 58.162 24.9797 57.7473 24.9797 56.3285C24.9797 55.5099 25.1288 54.3339 25.5017 52.9161L31.0944 30.7318H16.9274L15.1377 37.3342H21.0278L17.2253 52.8688Z" fill="white"/>
</g>
<defs>
<clipPath id="clip0_2930_13506">
<rect width="83" height="83" fill="white"/>
</clipPath>
</defs>
</svg>
