<svg width="94" height="95" viewBox="0 0 94 95" fill="none" xmlns="http://www.w3.org/2000/svg">
<path d="M80.0924 80.9464H66.1646V58.902C66.1646 53.6453 66.0717 46.8783 58.9206 46.8783C51.6665 46.8783 50.5567 52.6057 50.5567 58.5193V80.9449H36.6288V35.6127H49.9996V41.8078H50.1867C51.5248 39.4955 53.4584 37.5933 55.7815 36.3038C58.1047 35.0143 60.7304 34.3858 63.379 34.4851C77.4955 34.4851 80.0982 43.8695 80.0982 56.0779L80.0924 80.9464ZM20.9136 29.4161C19.315 29.4164 17.7522 28.9376 16.4229 28.0402C15.0936 27.1429 14.0574 25.8673 13.4454 24.3747C12.8334 22.8822 12.673 21.2398 12.9846 19.6551C13.2962 18.0705 14.0657 16.6148 15.1959 15.4722C16.326 14.3295 17.7661 13.5513 19.3339 13.2358C20.9016 12.9203 22.5268 13.0818 24.0038 13.6998C25.4808 14.3178 26.7433 15.3646 27.6317 16.7078C28.52 18.051 28.9943 19.6302 28.9946 21.2459C28.9948 22.3186 28.7859 23.3809 28.3799 24.372C27.9739 25.3632 27.3787 26.2638 26.6283 27.0225C25.8779 27.7812 24.987 28.383 24.0065 28.7937C23.026 29.2044 21.975 29.4159 20.9136 29.4161ZM27.8775 80.9464H13.9351V35.6127H27.8775V80.9464ZM87.036 0.00647013H6.93637C5.11834 -0.0142654 3.3665 0.695331 2.06587 1.97933C0.765229 3.26333 0.0221881 5.01669 0 6.85411V88.1445C0.0214287 89.9828 0.764016 91.7374 2.06461 93.0227C3.3652 94.308 5.11743 95.019 6.93637 94.9995H87.036C88.8586 95.0226 90.6157 94.3136 91.9214 93.0283C93.2272 91.743 93.9748 89.9865 94 88.1445V6.84824C93.974 5.00717 93.2259 3.25183 91.9202 1.96786C90.6144 0.683894 88.8577 -0.0236765 87.036 0.000604919" fill="#0A66C2"/>
</svg>
