<svg width="114" height="123" viewBox="0 0 114 123" fill="none" xmlns="http://www.w3.org/2000/svg">
<g clip-path="url(#clip0_2703_15246)">
<path d="M113.902 83.3432C113.853 83.1466 113.804 82.9501 113.804 82.7535C113.754 82.6552 113.754 82.5078 113.705 82.4095C113.607 82.1638 113.509 81.869 113.411 81.6233C113.165 81.1318 112.821 80.6404 112.379 80.2473C111.937 79.8542 111.446 79.5593 110.955 79.4119C110.464 79.2153 109.972 79.1171 109.53 79.1171H109.187C109.432 76.7091 108.548 74.9892 108.008 74.2029C108.057 74.1538 108.057 74.1047 108.106 74.1047C108.597 73.4658 109.039 72.8761 109.383 72.2865L109.432 72.1882C109.727 71.6476 109.874 71.1562 109.972 70.6648C110.022 70.2717 110.071 69.8785 110.071 69.5837V69.2888V69.0923C110.071 68.9449 110.022 68.7974 110.022 68.65C109.923 67.9129 109.629 66.9792 109.039 66.0455C108.745 65.5541 108.352 65.0627 107.86 64.6696C107.369 64.2273 106.78 63.8833 106.092 63.5885C106.043 63.5885 105.994 63.5394 105.945 63.5394C104.422 61.7703 102.752 60.4926 101.279 59.5098C100.542 59.0184 99.8053 58.6252 99.2159 58.2813C98.6265 57.9373 98.1353 57.6916 97.8406 57.5441C97.2021 57.2002 96.76 57.0036 96.5144 56.9053C96.0233 56.6596 95.6303 56.5122 95.3848 56.3648C95.1883 56.2665 95.09 56.1682 95.09 56.1682C95.09 56.1682 95.0409 56.1191 95.0409 56.0208C94.9918 55.8733 94.9427 55.6768 94.8936 55.3819C94.7954 54.8905 94.7462 54.1534 94.6971 53.1706C94.5989 51.5981 94.5007 49.485 94.3042 46.5857C94.2551 45.652 94.1568 44.8166 94.0095 43.9812C93.813 42.7036 93.4692 41.5242 93.0763 40.4922C92.978 40.2465 92.8798 40.0008 92.7816 39.8042C92.6833 39.6568 92.6342 39.5094 92.5851 39.4111C92.4869 39.2637 92.4377 39.1163 92.3395 38.9688C92.2904 38.9197 92.2413 38.8214 92.1922 38.674C92.0448 38.4774 91.8975 38.2317 91.7501 37.986L91.701 37.9369L91.6028 37.8386L91.5536 37.7403C91.2589 37.3472 90.9151 37.0032 90.5713 36.6592C90.3257 36.0204 89.9819 35.0867 89.3925 34.0056C88.9013 33.0719 88.2628 32.04 87.4278 31.0571C87.1331 30.7131 86.7893 30.3692 86.4455 30.0743L86.5437 29.976C86.6911 29.8286 89.6381 25.799 91.7501 20.7867C95.6795 11.4499 93.371 6.33919 90.7187 3.68558L90.6204 3.5873L90.5222 3.53815C87.9681 1.0811 84.7755 0 81.0427 0C73.2822 0 65.0797 4.86496 62.9186 6.19177L58.2034 2.16221C57.8104 1.81822 57.3193 1.47423 56.8772 1.22853C56.386 0.982821 55.8949 0.737115 55.3546 0.589692C54.3231 0.245705 53.1935 0.0982821 52.0147 0.0982821C49.6571 0.0982821 47.103 0.687974 44.3524 1.76908C40.2757 3.39073 35.8061 6.09349 31.1891 9.68078C26.5722 13.2681 21.9061 17.7891 17.4365 22.998C11.9845 29.3863 7.66221 35.9221 4.66609 42.0156C3.19259 45.0623 2.01379 47.9616 1.22792 50.7135C0.442051 53.4163 0 55.9716 0 58.2813C0 59.9521 0.245584 61.5246 0.736751 62.9005C0.982335 63.4902 1.22792 64.0799 1.57174 64.6205C2.01379 65.3084 2.55407 65.9473 3.14347 66.4878L8.05515 70.4682L8.59543 70.9105V70.9596C8.54632 71.0579 8.4972 71.1562 8.4972 71.2545L8.34985 71.6968C8.30073 71.795 8.30073 71.8933 8.25162 71.9916L8.10427 72.4339C8.05515 72.5322 8.05515 72.6304 8.00603 72.7287L7.85868 73.171C7.80957 73.2693 7.80957 73.3676 7.76045 73.4658C7.71133 73.6133 7.71133 73.7607 7.66222 73.9572C7.66222 74.0555 7.6131 74.1538 7.6131 74.2521C7.56398 74.3995 7.56398 74.5961 7.51486 74.7435V74.8909C7.51486 74.9401 7.51486 74.9892 7.46575 75.0875C7.46575 75.2349 7.41663 75.4315 7.41663 75.5789C7.41663 75.6772 7.36751 75.7755 7.36751 75.8737V77.9377C7.36751 78.1342 7.36752 78.3799 7.41663 78.5765V79.1171C7.41663 79.2645 7.46575 79.4119 7.46575 79.5593C7.46575 79.6576 7.46575 79.7559 7.51486 79.8542V80.0016C7.51486 80.0999 7.56398 80.1982 7.56398 80.2964C7.56398 80.3947 7.6131 80.493 7.6131 80.5913C7.6131 80.6896 7.66222 80.7387 7.66222 80.837C7.66222 80.8861 7.71133 80.9353 7.71133 80.9844C7.71133 81.0827 7.76045 81.181 7.76045 81.2793C7.76045 81.3775 7.80957 81.525 7.85868 81.6724C7.85868 81.7215 7.85868 81.7707 7.9078 81.8198C7.95692 81.9181 7.95692 82.0655 8.00603 82.1638C8.05515 82.2621 8.05515 82.3604 8.10427 82.5078C8.10427 82.5569 8.15338 82.6061 8.15338 82.6552C8.15338 82.7043 8.2025 82.8026 8.2025 82.8518L8.25162 82.9501C8.30073 83.0483 8.30073 83.1466 8.39897 83.294C8.39897 83.3432 8.44808 83.3432 8.44808 83.3923C8.4972 83.4906 8.4972 83.5889 8.54632 83.638L8.59543 83.7363C8.59543 83.7855 8.64455 83.7855 8.64455 83.8346L8.69367 83.9329L8.74278 84.0312L8.7919 84.0803C8.7919 84.1294 8.84102 84.1294 8.84102 84.1786L8.89013 84.2769C8.93925 84.3751 8.93925 84.4243 8.98837 84.4734C9.03748 84.5717 9.0866 84.67 9.13572 84.8174V84.8666C9.13572 84.9157 9.18484 84.9157 9.18484 84.9648C9.23395 85.1123 9.28307 85.2105 9.33218 85.2597C9.3813 85.358 9.43042 85.4562 9.52865 85.6037L9.57777 85.6528C9.62689 85.7511 9.676 85.8002 9.72512 85.8985L9.77424 85.9477C9.77424 85.9968 9.82335 86.0459 9.87247 86.0951C9.92159 86.1442 9.92159 86.1934 9.9707 86.2916L10.0198 86.3408C10.0689 86.3899 10.1181 86.4882 10.1181 86.5374C10.1672 86.5865 10.1672 86.6356 10.2163 86.6848C10.2654 86.7831 10.3145 86.8813 10.4128 86.9796L10.4619 87.0288C10.511 87.0779 10.511 87.127 10.5601 87.1762C10.6092 87.2253 10.6583 87.2745 10.6583 87.3236C10.7075 87.3727 10.7566 87.471 10.8548 87.6185L10.9039 87.6676C10.953 87.7167 10.953 87.7659 11.0022 87.815C11.0513 87.8642 11.1004 87.9624 11.1495 88.0116C11.1986 88.0607 11.2477 88.159 11.346 88.2573L11.3951 88.3064L11.5424 88.4538C11.5916 88.503 11.6407 88.6013 11.6898 88.6504C11.7389 88.6996 11.788 88.7978 11.8863 88.8961L12.0336 89.0435L12.2301 89.2401L12.4265 89.4367L12.5739 89.5841L12.7704 89.7807L12.9177 89.9281L12.9668 89.9772C13.0651 90.0755 13.1633 90.1246 13.2615 90.2229L13.3598 90.3212L13.5071 90.4686C13.6053 90.5669 13.7036 90.6652 13.8018 90.7143C13.8509 90.7635 13.9 90.7635 13.9492 90.8126C13.9492 90.8126 13.9983 90.8618 14.0965 90.9109L14.1456 90.96C14.293 91.0583 14.3912 91.1566 14.5386 91.2549H14.5877C14.6368 91.2549 14.6859 91.304 14.735 91.3532C14.8824 91.4515 15.0788 91.5989 15.2262 91.6972L15.3244 91.7463L15.3735 91.7954L15.4718 91.8446C15.6191 91.9429 15.7665 91.992 15.8647 92.0903H15.9138C15.9629 92.1394 16.0121 92.1394 16.0121 92.1394H16.0612C16.1103 92.1394 16.1594 92.1886 16.1594 92.1886C16.2577 92.2377 16.405 92.336 16.5032 92.3851L16.6015 92.4343L16.6997 92.4834L16.7488 92.5326C16.847 92.5817 16.9944 92.6308 17.0926 92.7291C17.1417 92.7783 17.1909 92.7783 17.2891 92.8274L17.3873 92.8765L17.4365 92.9257H17.4856C17.682 93.024 17.8294 93.0731 18.0259 93.1714L18.1241 93.2205C18.3697 93.3188 18.5661 93.368 18.7626 93.4662H18.8117L18.91 93.5154C19.0082 93.5645 19.1064 93.5645 19.2047 93.6137C19.2538 93.6137 19.3029 93.6628 19.352 93.6628C19.4011 93.6628 19.4994 93.7119 19.5485 93.7119H19.6467C19.7449 93.7611 19.8432 93.7611 19.9414 93.8102H19.9905C20.0888 93.8594 20.2361 93.8594 20.3343 93.9085H20.4817C20.5308 93.9085 20.5799 93.9085 20.629 93.9576H20.6782C20.8255 94.0068 21.022 94.0068 21.1693 94.0559H21.2184C21.464 94.1051 21.7096 94.1542 21.9552 94.1542H22.0043C22.2499 94.2034 22.4464 94.2034 22.6428 94.2034H22.8393C23.0358 94.2034 23.2322 94.2525 23.4778 94.2525H24.0672C24.1163 94.3016 24.1163 94.3508 24.1163 94.3999C24.5584 95.2845 25.0495 96.1199 25.5407 97.0044C33.3012 112.238 50.7867 122.656 69.2546 122.656C87.7225 122.656 105.65 108.159 111.495 90.8126C111.741 90.1246 111.986 89.4858 112.183 88.847C112.87 87.9624 113.361 87.0288 113.656 86.0951C114.049 85.358 114.098 84.2277 113.902 83.3432Z" fill="#664F44"/>
<path d="M111.052 84.0308C111.052 84.0308 111.052 83.2937 110.61 82.6548L110.512 82.5565L110.463 82.5074L110.315 82.36C110.217 82.2617 110.07 82.2126 109.923 82.1143C109.824 82.0651 109.775 82.0651 109.677 82.016C109.431 81.9177 109.186 81.8686 108.842 81.8686C108.596 81.8686 108.351 81.8686 108.056 81.9177C107.958 81.9177 107.81 81.9668 107.712 81.9668H107.663C107.663 81.9668 107.663 82.016 107.712 82.0651C107.712 82.1143 107.761 82.1634 107.81 82.2617C107.81 82.3108 107.86 82.3108 107.86 82.36C107.909 82.5074 108.007 82.704 108.056 82.9497C108.056 82.9497 108.056 82.9988 108.007 83.0971V83.1462C107.909 83.4902 107.614 84.3256 106.877 85.4559C106.73 85.6524 106.632 85.849 106.435 86.0456C104.323 88.8466 99.4606 93.1219 88.6058 96.5126C84.9221 97.4954 81.4348 97.9868 78.4387 97.9868C73.969 97.9868 70.5309 97.004 68.7627 95.2841L68.3206 94.8418C68.2224 94.7435 68.1241 94.5961 68.0259 94.4978C67.9768 94.4487 67.9768 94.3995 67.9277 94.3504C67.1418 93.2693 66.6998 92.0408 66.5524 90.8122C66.4051 89.338 66.6507 87.8146 67.3383 86.6352C67.8786 85.6524 68.6153 84.9153 69.5976 84.473C70.0888 84.2765 70.58 84.1291 71.1203 84.0799H73.2814C75.3934 84.0799 78.7334 83.9816 82.7118 83.2445C89.932 81.8686 99.2642 78.3796 107.025 69.4359V69.3867C106.976 68.7479 106.73 67.5685 105.797 66.7331C105.649 66.5857 105.453 66.4383 105.207 66.34C105.109 66.2909 104.962 66.1926 104.814 66.1434C104.667 66.0943 104.569 66.0452 104.421 65.996C104.274 65.8977 104.078 65.8486 103.979 65.7503V65.7012C103.93 65.6029 103.832 65.5537 103.783 65.4555C101.081 62.3104 97.7416 60.6888 96.3663 59.9517C95.7278 59.6077 95.3348 59.4603 95.3348 59.4603C92.437 58.1334 91.9949 57.642 91.6511 53.1702C91.5528 51.5485 91.4546 49.4355 91.2581 46.5362C91.2581 46.143 91.209 45.799 91.1599 45.4551C91.1599 45.3568 91.1599 45.3076 91.1108 45.2094C91.0617 44.8654 91.0126 44.5705 90.9634 44.2757V44.0791C90.9143 43.8334 90.8652 43.5877 90.8161 43.3911C90.8161 43.2929 90.767 43.1946 90.767 43.0963C90.7179 42.8506 90.6687 42.6049 90.5705 42.4083C90.5214 42.31 90.5214 42.1626 90.4723 42.0643C90.4232 41.9169 90.374 41.8186 90.3249 41.7203C90.2758 41.6221 90.2267 41.4746 90.1776 41.3764C90.1285 41.2289 90.0793 41.1306 90.0302 40.9832C90.0302 40.9341 89.9811 40.8849 89.9811 40.8358C89.9811 40.7867 89.932 40.7375 89.932 40.6884V40.6392L89.8829 40.4918L89.7355 40.197V40.1478L89.6864 40.0495L89.6373 39.9513C89.5391 39.7547 89.4408 39.6073 89.2935 39.4599L89.1952 39.3616C89.0479 39.2141 88.9497 39.0667 88.8023 38.9193L88.7532 38.8702L88.7041 38.821C88.6058 38.7227 88.5076 38.6245 88.4585 38.5262L88.3603 38.4279C88.262 38.3296 88.1147 38.2313 88.0164 38.133V37.8873L87.9673 37.7891V37.7399C87.9182 37.5434 87.82 37.3468 87.7217 37.0519C87.6726 37.0028 87.6726 36.9045 87.6235 36.8554V36.8062C87.5744 36.708 87.5744 36.6588 87.5253 36.5605C87.427 36.364 87.3779 36.1674 87.2797 35.9708C87.2306 35.9217 87.2306 35.8234 87.1815 35.7743C87.1323 35.6269 87.0341 35.4794 86.985 35.332C86.9359 35.2337 86.8868 35.1846 86.8376 35.0863C86.7885 34.9389 86.6903 34.7915 86.5921 34.6932L86.4447 34.3983C86.3465 34.2509 86.2974 34.1035 86.1991 34.0052C86.15 33.9069 86.1009 33.8086 86.0027 33.7104C85.9044 33.5629 85.8062 33.4155 85.708 33.3172C85.6588 33.2189 85.5606 33.1207 85.5115 33.0715C85.4133 32.9241 85.2659 32.7767 85.1677 32.6293L84.9712 32.4327C84.9221 32.3835 84.873 32.3344 84.7747 32.2853C84.6274 32.1378 84.48 31.9904 84.3327 31.8921L84.2345 31.843C84.038 31.6956 83.8415 31.499 83.5959 31.4007L83.5468 31.3516C83.4486 31.3024 83.3503 31.2533 83.2521 31.155H83.203C83.1048 31.1059 83.0065 31.0567 82.9574 31.0076H82.9083C82.8101 30.9585 82.6627 30.9093 82.4171 30.811C82.3189 30.811 82.2698 30.7619 82.1715 30.7619C81.7295 30.6636 81.1401 30.5162 80.4525 30.4179H80.3051C79.7157 30.3196 79.0772 30.2705 78.4387 30.2705H77.2599C76.7196 30.2705 76.2284 30.3196 75.6881 30.3688H75.639C74.9514 30.467 74.2637 30.6145 73.6743 30.811C73.7726 30.5162 74.1655 30.2213 74.5584 29.9265C75.0496 29.5825 75.5408 29.2877 75.5408 29.2877C75.2461 29.3368 74.9514 29.4351 74.6567 29.5334C74.5584 29.5825 74.4602 29.5825 74.362 29.6316C74.3129 29.6316 74.2146 29.6808 74.1655 29.6808H74.1164C74.0673 29.6808 74.0182 29.7299 73.969 29.7299C72.4955 30.2213 71.1203 30.9585 70.3344 31.4007L70.0397 31.5481L69.9906 31.5973C69.8924 31.5973 69.8432 31.6464 69.745 31.6464C70.1871 30.467 71.022 29.7791 71.6606 29.3368C71.7588 29.2877 71.857 29.1894 71.9553 29.1402C72.0044 29.1402 72.0044 29.0911 72.0535 29.0911C72.1517 29.042 72.2008 28.9928 72.2991 28.9928C72.4464 28.9437 72.5447 28.8945 72.5447 28.8945C72.4955 28.8945 72.3973 28.9437 72.3482 28.9437C72.2991 28.9437 72.25 28.9437 72.1517 28.9928C72.0535 28.9928 71.9553 29.042 71.9061 29.042C71.857 29.042 71.8079 29.042 71.7588 29.0911C70.0888 29.4842 68.6644 30.2213 67.4856 31.1059C66.6506 31.6956 65.963 32.3344 65.3736 32.9732C65.2263 33.0224 65.0298 33.0715 64.8333 33.1698C63.0651 33.8086 61.0022 34.5458 58.8902 35.5286C58.1043 35.8726 57.3185 36.2657 56.5326 36.6588C55.8941 36.9537 55.3047 37.2976 54.6662 37.6416C54.2241 37.8873 53.7821 38.133 53.34 38.4279C50.1474 40.3444 47.0531 42.8014 44.5972 45.799C44.499 45.8973 44.4008 45.9956 44.3516 46.143C44.1552 46.4379 43.9587 46.6836 43.7131 46.9784C43.6149 47.0767 43.5658 47.2241 43.4675 47.3224L43.1728 47.7647C42.7308 48.4527 42.2887 49.1406 41.9449 49.8778C41.6502 50.4183 41.4046 50.9589 41.159 51.5485L41.1099 51.5977C40.6188 52.7771 40.1767 54.0547 39.882 55.3815C39.7347 56.0695 39.5873 56.7575 39.4891 57.4455C39.44 57.642 39.44 57.8386 39.3908 57.986V58.0843C39.2926 58.8706 39.2435 59.6568 39.2435 60.4431V60.9345C39.2435 61.3276 39.2435 61.7207 39.2926 62.163C39.2926 62.5561 39.3417 62.9001 39.3417 63.2933V63.3915C39.3417 63.5881 39.3908 63.7847 39.3908 63.9812C39.3908 64.1778 39.44 64.4235 39.4891 64.6201V64.7675C39.5382 65.2098 39.5873 65.652 39.6855 66.0943V66.1434C39.7838 66.5857 39.8329 67.028 39.9311 67.4702C39.9802 67.6668 40.0294 67.8634 40.0294 68.0108C40.0294 68.0599 40.0294 68.1091 40.0785 68.1582C40.0785 68.2565 40.1276 68.3548 40.1767 68.4531C40.2749 68.9445 40.4223 69.4359 40.5696 69.9764C40.6188 70.1239 40.6679 70.2713 40.6679 70.4187C40.8152 70.861 40.9135 71.3032 41.0608 71.7455C41.0608 71.7455 40.9135 71.1558 40.8643 70.2713V69.6324C40.8643 69.141 40.9135 68.5513 41.0117 67.9617C41.0608 67.8142 41.0608 67.6668 41.1099 67.5194C41.1099 67.4702 41.159 67.372 41.159 67.3228C41.2573 67.028 41.3064 66.7823 41.4537 66.4874C41.5029 66.684 41.552 66.8314 41.6502 67.028V67.1754C41.6502 67.2737 41.6993 67.4211 41.6993 67.5194C41.7484 67.8142 41.7484 68.1091 41.7976 68.4531C41.8467 68.7971 41.8958 69.1902 41.9449 69.5833C42.1905 71.2541 42.5834 73.2197 43.1728 74.8905C43.1728 74.8905 42.8781 71.7946 43.3202 71.3524C43.3202 71.3524 44.941 76.9545 46.0707 79.0184C46.2181 79.2641 46.3654 79.5098 46.4637 79.6081L46.3654 79.0184L45.8251 75.8242V75.4802C46.611 76.7088 47.4951 77.9373 48.5266 79.2149C48.8213 79.5589 49.0668 79.9029 49.3615 80.296C47.9372 81.8686 46.7584 84.0308 45.9725 86.4878C45.8743 86.8809 45.7269 87.2741 45.6287 87.7163C45.5796 87.9621 45.5304 88.2078 45.4813 88.4043C45.4813 88.5026 45.4322 88.5517 45.4322 88.65C45.3831 88.7974 45.3831 88.994 45.334 89.1414C45.334 89.2397 45.2849 89.338 45.2849 89.3871C45.2849 89.5346 45.2357 89.7311 45.2357 89.8785C45.2357 89.9768 45.2357 90.026 45.1866 90.1243C45.1866 90.37 45.1375 90.6157 45.1375 90.8614C45.1375 91.1071 45.1375 91.3528 45.0884 91.5985V92.6796C45.0884 92.8762 45.0884 93.0236 45.1375 93.2201V93.4658C45.1375 93.7115 45.1866 94.0064 45.2357 94.2521V94.3012C45.2849 94.4978 45.2849 94.6944 45.334 94.8909C45.3831 95.0875 45.3831 95.2841 45.4322 95.5298V95.6772C45.4813 95.9229 45.5304 96.1686 45.6287 96.4143C45.6287 96.5126 45.6778 96.5617 45.6778 96.66C45.7269 96.8074 45.776 97.004 45.8251 97.2006C45.8743 97.2988 45.8743 97.3971 45.9234 97.4954C45.9725 97.6428 46.0216 97.7903 46.0707 97.9868C46.1198 98.0851 46.1198 98.1834 46.169 98.2817C46.2181 98.4291 46.2672 98.5765 46.3654 98.7239C46.4145 98.8222 46.4637 98.9205 46.4637 99.0188C46.5128 99.1662 46.611 99.3136 46.6601 99.461L46.8075 99.7559C46.8566 99.9033 46.9548 100.051 47.0531 100.247L47.2004 100.542C47.2986 100.739 47.3969 100.886 47.4951 101.083C47.5442 101.181 47.5933 101.23 47.6425 101.328C47.9372 101.82 48.2319 102.311 48.5757 102.852C48.6248 102.95 48.6739 102.999 48.723 103.097C48.8704 103.294 48.9686 103.441 49.116 103.638C49.1651 103.736 49.2633 103.835 49.3124 103.933C49.4107 104.08 49.558 104.228 49.7054 104.424C49.8036 104.523 49.8527 104.621 49.9509 104.719C50.0983 104.867 50.1965 105.014 50.3439 105.161C50.4421 105.26 50.5403 105.358 50.5895 105.456C50.7368 105.604 50.8842 105.751 50.9824 105.899L51.2771 106.193L51.7192 106.636L52.0139 106.93C52.1612 107.078 52.3577 107.274 52.5541 107.422L52.7997 107.668C53.0453 107.913 53.34 108.11 53.6347 108.356C53.6347 108.356 53.4382 108.159 53.1927 107.815C53.1435 107.766 53.0944 107.668 53.0453 107.618C52.9962 107.52 52.9471 107.471 52.8979 107.373C52.8488 107.274 52.7997 107.176 52.7015 107.078C52.2103 106.243 51.7192 105.014 51.5718 103.638C51.7192 103.835 51.9156 103.982 52.063 104.129C52.2594 104.473 52.5541 104.867 52.8488 105.309C52.9471 105.456 53.0453 105.604 53.1927 105.751C53.6347 106.39 54.175 107.078 54.7153 107.815C55.4029 108.65 56.1397 109.486 56.8764 110.223C56.8764 110.223 55.9432 108.749 55.5503 107.766C55.452 107.471 55.4029 107.225 55.4029 107.078C55.452 107.127 55.5503 107.176 55.5994 107.225C55.6485 107.274 55.7467 107.324 55.7958 107.373C55.9432 107.52 56.0905 107.717 56.287 107.913L56.3852 108.012L56.6799 108.306L57.0729 108.7C58.3008 109.928 59.8725 111.451 61.0022 112.287C61.3951 112.582 61.6899 112.729 61.8863 112.827L60.1181 110.469C63.6545 112.68 77.4072 114.4 90.0793 108.994C91.602 108.356 93.1246 107.569 94.5981 106.734C95.4822 106.193 96.3663 105.653 97.2504 105.014L97.3977 104.916C97.9871 104.473 98.5765 104.031 99.1659 103.54C99.608 103.196 100.05 102.803 100.492 102.41C101.229 101.771 101.916 101.083 102.604 100.346C102.653 100.296 102.702 100.247 102.702 100.198C103.39 99.461 103.979 98.6748 104.569 97.9377C105.306 96.9057 105.993 95.9229 106.583 94.8909L106.632 94.8418C106.779 94.5961 106.926 94.3504 107.025 94.1047L107.074 94.0555C107.123 93.9573 107.172 93.9081 107.221 93.8098C107.418 93.4658 107.614 93.1219 107.761 92.7287C107.81 92.6304 107.86 92.5813 107.86 92.483C107.958 92.2865 108.007 92.0899 108.105 91.9425C108.154 91.7951 108.253 91.6476 108.302 91.5002C108.351 91.3528 108.449 91.2054 108.498 91.0579C108.596 90.7631 108.744 90.5174 108.842 90.2225C108.891 90.1243 108.94 90.026 108.94 89.8785C109.038 89.682 109.088 89.4363 109.186 89.2397C109.235 89.1414 109.235 89.0432 109.284 88.9449L109.333 88.8466C109.431 88.6009 109.53 88.306 109.579 88.0603V88.0112C109.972 87.5689 110.217 87.1267 110.463 86.7335C110.512 86.6844 110.512 86.6352 110.561 86.5861C111.003 85.505 111.101 84.7187 111.052 84.0308ZM31.4339 84.3256C31.4339 84.2765 31.3848 84.2273 31.3848 84.129C31.1392 83.2937 30.8936 82.4583 30.6972 81.5737C30.6972 81.5246 30.6481 81.4754 30.6481 81.3772C30.5007 81.4263 30.3534 81.672 30.2551 81.9177C30.206 82.016 30.1569 82.1634 30.1078 82.2617C29.764 83.1462 29.5184 84.3748 29.5184 84.3748C29.5184 83.9816 29.5184 83.5885 29.4693 83.1462V82.9988V81.7211V81.5737C29.4693 81.0823 29.5184 80.64 29.5184 80.1978V79.9521V79.8046V79.5589C29.5184 79.2149 29.5675 78.871 29.5675 78.527C29.5675 78.2321 29.6166 77.9373 29.6166 77.6916V77.5933V77.495V77.3967V77.2002V77.0036V76.6596V76.4631C29.6166 76.3648 29.6166 76.2665 29.6657 76.2173V76.0699V75.9716V75.6276L29.5675 75.7259C29.5184 75.8242 29.4201 75.8734 29.371 75.9716L29.3219 76.0699C29.2237 76.1682 29.1746 76.3156 29.1254 76.4139L29.0763 76.4631C28.9781 76.6105 28.929 76.7579 28.8307 76.9053L28.7816 76.9545C28.7816 77.0036 28.7325 77.0527 28.7325 77.0527C28.6834 77.151 28.6343 77.2493 28.6343 77.3476V77.4459L28.4869 77.8881C28.3887 78.3304 28.2905 78.7235 28.2413 79.0184C28.2413 79.1167 28.1922 79.2641 28.1922 79.3624C28.1431 79.5589 28.1431 79.7555 28.1431 79.8046V79.4115C28.1431 79.1658 28.094 78.871 28.094 78.6253V77.9864V77.7899V77.495V77.0527V76.7088V76.4631V76.3648V76.2173C28.094 76.0699 28.1431 75.8734 28.1431 75.7259V75.6768C28.1431 75.5785 28.1431 75.4311 28.1922 75.3328V75.2837C28.2413 75.038 28.2413 74.7923 28.2905 74.5465V74.4483V74.3008C28.3396 73.9077 28.4378 73.5146 28.536 73.1215V73.0723C28.5852 72.7283 28.6834 72.4335 28.7816 72.0895V72.0404C28.8307 71.8929 28.8799 71.7455 28.8799 71.6472C28.929 71.4507 28.9781 71.2541 29.0272 71.0084V70.9593C29.0272 70.9101 29.0763 70.7627 29.1254 70.6153C29.1254 70.5661 29.1746 70.4678 29.1746 70.4187C29.2237 70.3204 29.2237 70.173 29.2728 70.0747L29.3219 69.9764L29.9604 68.3548C30.0095 68.3056 30.0095 68.2074 30.0587 68.1582V68.1091L30.1078 68.0108C30.1569 67.8142 30.2551 67.6668 30.3042 67.4702L30.5989 66.7331C30.7954 66.2417 30.9428 65.8486 31.041 65.6029C31.0901 65.4555 31.1392 65.3572 31.1392 65.3572C31.0901 65.3572 30.8445 65.2098 30.4025 65.0132C29.9113 64.7675 29.1746 64.4726 28.2905 64.1778C27.9958 64.0795 27.7011 63.9812 27.4064 63.9321L26.2276 63.6372C26.1293 63.6372 26.0311 63.5881 25.9329 63.5881L24.9014 63.4407C24.6558 63.3915 24.4102 63.3915 24.1646 63.3915C23.9682 63.3915 23.7717 63.3915 23.5752 63.3424H22.9858C22.7403 63.3424 22.4456 63.3915 22.2 63.3915C22.0526 63.3915 21.9544 63.3915 21.807 63.4407C21.2668 63.539 20.6774 63.6372 20.1862 63.7847L20.088 63.8338C19.1056 64.0795 18.2215 64.4726 17.3374 64.9149C17.0427 65.0623 16.748 65.2098 16.5024 65.4063C16.4042 65.4555 16.3551 65.5046 16.2568 65.5537C16.1586 65.6029 16.0604 65.652 15.9621 65.7503C15.1272 66.34 14.3413 66.9788 13.6537 67.7159L13.6045 67.7651C13.0151 68.4039 12.4749 69.0919 12.0328 69.829C11.8855 70.0256 11.7872 70.2713 11.6399 70.4678C11.4925 70.7135 11.3452 70.9593 11.2469 71.2541C11.0014 71.7455 10.8049 72.2861 10.6084 72.7775C10.5593 72.974 10.4611 73.1706 10.412 73.318C10.412 73.3672 10.412 73.3672 10.3628 73.4163C10.019 74.6448 9.82255 75.9225 9.77344 77.2493V78.1338C9.77344 78.3304 9.82255 78.527 9.82255 78.7727C9.82255 79.0184 9.87167 79.2641 9.92079 79.5589V79.6572C9.96991 79.8538 9.9699 80.0503 10.019 80.2469V80.3452C10.019 80.3943 10.019 80.4435 10.0681 80.4926C10.1173 80.64 10.1173 80.7875 10.1664 80.9349V80.984C10.1664 81.0823 10.2155 81.1314 10.2155 81.2297C10.2646 81.3772 10.2646 81.5246 10.3137 81.6229C10.3628 81.7211 10.3628 81.8194 10.412 81.9177C10.4611 82.0651 10.5102 82.1634 10.5593 82.3108C10.6084 82.4091 10.6575 82.5074 10.6575 82.6057L10.7067 82.6548L10.7558 82.7531L10.8049 82.8514L10.854 82.9497L11.0014 83.2445C11.0505 83.3428 11.0996 83.4411 11.1487 83.5885L11.2961 83.8833L11.7872 84.0308C11.8363 84.129 11.8855 84.1782 11.8855 84.2273C11.9346 84.3256 11.9837 84.4239 12.0819 84.5222L12.2293 84.817C12.2784 84.8662 12.2784 84.9153 12.3275 84.9644C12.3766 85.0136 12.3766 85.0627 12.4257 85.1119C12.4749 85.2102 12.524 85.3084 12.5731 85.3576C12.6222 85.4559 12.7204 85.5541 12.7696 85.6524C12.8187 85.7507 12.8678 85.7998 12.9169 85.8981C13.0151 85.9964 13.0643 86.0947 13.1625 86.193C13.2116 86.2421 13.2607 86.3404 13.359 86.3895C13.4572 86.4878 13.5554 86.5861 13.6045 86.6844C13.6537 86.7335 13.7028 86.8318 13.801 86.8809L14.0957 87.1758C14.1448 87.2249 14.1939 87.2741 14.2431 87.3724L14.5378 87.6672L14.6851 87.8146C14.7833 87.9129 14.9307 88.0112 15.0289 88.1095L15.1763 88.2569C15.2745 88.3552 15.4219 88.4535 15.5201 88.5517C15.5692 88.6009 15.6183 88.65 15.6674 88.65C15.8148 88.7483 15.913 88.8466 16.0604 88.9449C16.1095 88.994 16.1586 88.994 16.2077 89.0432C16.3551 89.1414 16.5024 89.2397 16.6007 89.338C16.6498 89.3871 16.6989 89.3871 16.748 89.4363C16.8954 89.5346 17.0427 89.6328 17.1901 89.682C17.2392 89.682 17.2883 89.7311 17.3374 89.7311C17.4848 89.8294 17.6321 89.8786 17.7795 89.9768L17.8777 90.026C18.0251 90.1243 18.2215 90.1734 18.3689 90.2717L18.4671 90.3208C18.6145 90.4191 18.8109 90.4682 19.0074 90.5174L19.1056 90.5665C19.3021 90.6157 19.4494 90.7139 19.6459 90.7631L19.7441 90.8122C19.9406 90.8614 20.1371 90.9105 20.3335 91.0088H20.3827L20.9721 91.1562H21.0212L21.6106 91.3036H21.6597C21.7579 91.3036 21.8562 91.3528 21.9544 91.3528C22.0526 91.3528 22.1509 91.4019 22.2982 91.4019H22.3473C22.5438 91.4511 22.7894 91.4511 22.9858 91.4511C23.1823 91.4511 23.4279 91.5002 23.6735 91.5002C24.3611 91.5002 25.0487 91.5002 25.7364 91.4019C25.8837 91.4019 26.0802 91.3528 26.2276 91.3528C26.4731 91.3036 26.6696 91.2545 26.9152 91.2054C27.2099 91.1562 27.5537 91.0579 27.8484 90.9597C28.1431 90.8614 28.3887 90.8122 28.6834 90.714C29.1254 90.5665 29.5184 90.4191 29.9113 90.2225C31.1392 89.682 32.1707 89.0923 32.7601 88.5026C32.7601 88.5026 32.0724 86.6352 31.483 84.7187C31.5322 84.7187 31.483 84.5222 31.4339 84.3256Z" fill="#90694C"/>
<path d="M111.053 84.0316C111.053 84.0316 111.053 83.2945 110.611 82.6557L110.512 82.5574L110.463 82.5083L110.316 82.3608C110.218 82.2626 110.07 82.2134 109.923 82.1151C109.825 82.066 109.776 82.066 109.677 82.0168C109.432 81.9186 109.186 81.8694 108.842 81.8694C108.597 81.8694 108.351 81.8694 108.057 81.9186C107.958 81.9186 107.811 81.9677 107.713 81.9677H107.664C107.664 81.9677 107.664 82.0169 107.713 82.066C107.713 82.1151 107.762 82.1643 107.811 82.2626C107.811 82.3117 107.86 82.3117 107.86 82.3608C107.909 82.5083 108.007 82.7048 108.057 82.9505C108.057 82.9505 108.057 82.9997 108.007 83.098V83.1471C107.909 83.4911 107.615 84.3265 106.878 85.4567C106.73 85.6533 106.632 85.8499 106.436 86.0464C104.324 88.8475 99.4611 93.1227 88.6063 96.5135C84.9226 97.4963 81.4353 97.9877 78.4392 97.9877C73.9695 97.9877 70.5314 97.0049 68.7632 95.2849L68.3211 94.8427C68.2229 94.7444 68.1246 94.597 68.0264 94.4987C67.9773 94.4495 67.9773 94.4004 67.9282 94.3513C67.1423 93.2701 66.7003 92.0416 66.5529 90.8131C66.4056 89.3389 66.6511 87.8155 67.3388 86.6361C67.8791 85.6533 68.6158 84.9162 69.5981 84.4739C70.0893 84.2773 70.5805 84.1299 71.1208 84.0808H73.2819C75.3939 84.0808 78.7339 83.9825 82.7123 83.2454C89.9325 81.8694 99.2647 78.3804 107.025 69.4368V69.3876C106.976 68.7488 106.73 67.5694 105.797 66.734C105.65 66.5866 105.453 66.4391 105.208 66.3409C105.11 66.2917 104.962 66.1934 104.815 66.1443C104.668 66.0952 104.569 66.046 104.422 65.9969C104.275 65.8986 104.078 65.8495 103.98 65.7512V65.702C103.931 65.6037 103.833 65.5546 103.783 65.4563C101.082 62.3113 97.742 60.6896 96.3668 59.9525C95.7283 59.6085 95.3353 59.4611 95.3353 59.4611C92.4374 58.1343 91.9954 57.6429 91.6516 53.1711C91.5533 51.5494 91.4551 49.4363 91.2586 46.537C91.2586 46.1439 91.2095 45.7999 91.1604 45.4559C91.1604 45.3576 91.1604 45.3085 91.1113 45.2102C91.0622 44.8662 91.013 44.5714 90.9639 44.2765V44.08C90.9148 43.8343 90.8657 43.5886 90.8166 43.392C90.8166 43.2937 90.7675 43.1954 90.7675 43.0972C90.7184 42.8515 90.6692 42.6057 90.571 42.4092C90.5219 42.3109 90.5219 42.1635 90.4728 42.0652C90.4236 41.9178 90.3745 41.8195 90.3254 41.7212C90.2763 41.6229 90.2272 41.4755 90.1781 41.3772C90.129 41.2298 90.0798 41.1315 90.0307 40.9841C90.0307 40.935 89.9816 40.8858 89.9816 40.8367C89.9816 40.7875 89.9325 40.7384 89.9325 40.6892V40.6401L89.8834 40.4927L89.736 40.1978V40.1487L89.6869 40.0504L89.6378 39.9521C89.5396 39.7556 89.4413 39.6081 89.294 39.4607L89.1957 39.3624C89.0484 39.215 88.9501 39.0676 88.8028 38.9202L88.7537 38.871L88.7046 38.8219C88.6063 38.7236 88.5081 38.6253 88.459 38.527L88.3607 38.4288C88.2625 38.3305 88.1152 38.2322 88.0169 38.1339C87.8696 38.0356 87.7222 37.8882 87.5749 37.7899C87.4275 37.6916 87.2802 37.6425 87.0837 37.5934C87.0346 37.5934 86.9855 37.5442 86.9364 37.5442C86.8381 37.4951 86.7399 37.4951 86.6417 37.4459C86.5925 37.4459 86.5434 37.4459 86.4452 37.3968C86.347 37.3968 86.2487 37.3477 86.1505 37.3477H85.119C85.0208 37.3477 84.9717 37.3968 84.8735 37.3968C84.8243 37.3968 84.7752 37.3968 84.7261 37.4459L84.6279 37.4951C84.5788 37.4951 84.5296 37.5442 84.4805 37.5442C84.4314 37.5442 84.3823 37.5934 84.3332 37.5934C84.2349 37.6425 84.1367 37.6916 84.0385 37.6916L83.9402 37.7408C83.6946 37.8391 83.4 37.9865 83.1544 38.1339L83.0561 38.1831C82.9579 38.2322 82.8597 38.3305 82.7614 38.3796L82.6632 38.4779C82.565 38.527 82.4667 38.6253 82.3685 38.6745L82.2703 38.7727C82.172 38.8219 82.0738 38.9202 82.0247 38.9693L81.9265 39.0676C81.8282 39.1659 81.73 39.215 81.6317 39.3133L81.5335 39.4116C81.4353 39.5099 81.337 39.6081 81.2388 39.6573L81.1897 39.7064C81.0915 39.8047 80.9441 39.903 80.8459 40.0013C80.6494 40.1978 80.4038 40.3944 80.2074 40.591C80.0109 40.7384 79.8144 40.935 79.6671 41.0824L79.5688 41.1807C79.3724 41.3281 79.1759 41.5246 78.9794 41.6721L78.8812 41.7703L78.2918 42.2126L78.1936 42.3109C77.9971 42.4583 77.8006 42.6057 77.5551 42.7532L77.4568 42.8023C77.2604 42.9497 77.0148 43.048 76.8183 43.1954L76.7201 43.2446C76.4745 43.3429 76.278 43.4903 76.0324 43.5886H75.9833C75.7377 43.6868 75.4922 43.7851 75.1975 43.8343C74.7554 43.9326 74.3134 44.0308 73.8713 44.08C73.1345 44.1783 72.3978 44.2274 71.6119 44.1783C71.3663 44.1783 71.1208 44.1783 70.8261 44.1291H70.5314C69.8437 44.08 69.2052 44.0308 68.5176 43.9326C68.2229 43.8834 67.9282 43.8834 67.6826 43.8343C67.2405 43.7851 66.7494 43.736 66.3073 43.6869C66.2091 43.6869 66.1109 43.6869 66.0126 43.6377H65.8162C65.7179 43.6377 65.6197 43.6377 65.5215 43.5886H64.8829C64.6865 43.5886 64.4409 43.5886 64.2444 43.5394H62.0833C61.9359 43.5394 61.7886 43.5886 61.6412 43.5886H61.3956C61.1992 43.5886 61.0518 43.6377 60.8554 43.6869H60.708C60.5115 43.736 60.266 43.7851 60.0695 43.8343C60.0204 43.8343 59.9713 43.8834 59.873 43.8834C59.7257 43.9326 59.5783 43.9326 59.431 43.9817H59.3819C59.2836 43.9817 59.2345 44.0308 59.1363 44.0308L58.6942 44.1783C58.596 44.2274 58.5469 44.2274 58.4486 44.2765C58.3013 44.3257 58.1539 44.3748 58.0066 44.4731C57.9084 44.5222 57.8592 44.5222 57.761 44.5714C57.6137 44.6205 57.4663 44.7188 57.319 44.768C57.2698 44.8171 57.1716 44.8171 57.1225 44.8662C56.8769 44.9645 56.6804 45.1119 56.4349 45.2594C54.7158 46.537 53.2914 48.2078 52.2599 50.0752C51.9161 50.714 51.6214 51.3529 51.3267 51.9917C51.032 52.6797 50.7864 53.4168 50.6391 54.1047C50.59 54.3013 50.5408 54.547 50.4917 54.7436C50.3935 55.0876 50.3444 55.4807 50.2953 55.8247V55.923C50.2461 56.3161 50.197 56.7584 50.1479 57.1515C50.0988 57.5938 50.0988 58.036 50.0988 58.4292V59.1171C50.1479 59.756 50.197 60.3457 50.3444 60.9845C50.3444 61.0336 50.3444 61.0828 50.3935 61.1319C50.4426 61.2793 50.4426 61.4268 50.4917 61.6233C50.59 62.0656 50.6882 62.5079 50.8355 62.901C50.8847 63.0484 50.9338 63.1958 51.032 63.3433L51.1794 63.7855C51.6214 64.8666 52.2108 65.8003 52.8493 66.6849C55.3052 69.9282 58.8907 71.599 61.3956 72.3852C62.378 72.6801 63.4094 72.9258 64.4409 73.1223L64.3427 73.2206C64.1462 73.2697 63.9497 73.368 63.7533 73.4663C63.4094 73.6137 63.0165 73.7612 62.5744 74.0069C62.0833 74.2526 61.543 74.4983 61.0027 74.8423C59.5292 75.6777 57.8592 76.8079 56.484 78.2821C56.2875 78.4787 56.1402 78.6753 55.9437 78.8227C55.649 79.1667 55.4034 79.5107 55.1578 79.8546C55.1087 79.9038 55.1087 79.9529 55.0596 79.9529C55.0105 80.0021 54.9613 80.0512 54.9613 80.1004L54.6666 80.5426C54.6175 80.5918 54.6175 80.6409 54.5684 80.7392C54.4702 80.9358 54.3228 81.1323 54.2246 81.378C54.1264 81.5746 54.0281 81.8203 53.9299 82.0168C53.1931 83.7368 52.8984 85.7516 53.3896 88.0612V87.9629V87.7664V87.5207C53.3896 87.4715 53.3896 87.3732 53.4387 87.2749C53.4387 87.1767 53.4878 87.0784 53.4878 87.0292V86.9801C53.4878 86.8818 53.537 86.7835 53.537 86.6852V86.6361C53.537 86.5378 53.5861 86.4395 53.6352 86.3413V86.2921C53.6843 86.1938 53.6843 86.0464 53.7334 85.9481V85.8499C53.7825 85.7516 53.8317 85.6041 53.8808 85.4567C53.9299 85.2602 54.0281 85.0636 54.1264 84.867C54.1755 84.8179 54.1755 84.7196 54.2246 84.6705L54.2737 84.6213C54.3719 84.4739 54.4211 84.3265 54.5193 84.1791C54.5684 84.0316 54.6666 83.9334 54.7649 83.7859C54.814 83.7368 54.814 83.6876 54.8631 83.6876C54.9122 83.5894 55.0105 83.4911 55.0596 83.3928C55.1087 83.3437 55.1087 83.2945 55.1578 83.2945C55.2561 83.1471 55.3543 83.0488 55.4525 82.9505C55.4525 82.9505 53.9299 87.9629 55.3052 91.6485V91.5994V91.5011V91.3536V91.1571V90.9114V90.6165V90.3217V90.2725V89.8303C55.3052 89.6829 55.3052 89.5354 55.3543 89.4371V89.388C55.3543 89.2406 55.4034 89.0932 55.4034 88.9457C55.4034 88.8966 55.4034 88.8475 55.4525 88.7983V88.7C55.5016 88.6018 55.5016 88.4543 55.5508 88.356C55.5999 88.2086 55.649 88.0121 55.6981 87.8646C55.6981 87.8155 55.7472 87.7664 55.7472 87.7172C55.7963 87.5698 55.8946 87.4224 55.9928 87.2749C55.9928 87.2749 55.9928 88.4543 56.2384 89.8794C56.2875 90.076 56.2875 90.3217 56.3366 90.5674C56.3857 90.7148 56.3857 90.8622 56.4349 91.0097C56.484 91.9925 56.6313 92.9753 56.8769 94.0073C57.2698 95.7272 57.9084 97.4963 58.8416 99.3145C58.8416 99.3145 57.9084 97.2014 58.596 94.8918C58.6942 95.0884 58.8416 95.2849 58.9398 95.4815C59.0872 96.1203 59.3327 97.054 59.6766 98.0368C60.0695 99.7076 61.543 104.72 65.4232 107.865C65.4232 107.865 63.9006 106.342 63.8515 104.081C64.048 104.376 64.1953 104.622 64.3427 104.818C65.0794 105.85 66.5038 107.767 67.9773 109.044C67.9773 109.044 66.7003 107.177 66.8476 106.686C66.8476 106.686 70.7769 110.519 71.9066 110.764L70.1875 108.602L70.1384 108.553C75.5413 111.551 82.4667 111.993 90.571 108.651C91.9463 108.062 93.3707 107.374 94.8442 106.538C95.7283 105.998 96.6124 105.457 97.4965 104.818L97.6438 104.72C98.2332 104.278 98.8226 103.835 99.412 103.344C99.8541 103 100.296 102.607 100.738 102.214C101.475 101.575 102.163 100.887 102.85 100.15C102.899 100.101 102.948 100.052 102.948 100.002C103.636 99.2654 104.225 98.4791 104.815 97.742C105.552 96.71 106.239 95.7272 106.829 94.6952L106.878 94.6461C107.025 94.4004 107.172 94.1547 107.271 93.909L107.32 93.8598C107.369 93.7616 107.418 93.7124 107.467 93.6141C107.664 93.2701 107.86 92.9262 108.007 92.533C108.057 92.4348 108.106 92.3856 108.106 92.2873C108.204 92.0908 108.253 91.8942 108.351 91.7468C108.4 91.5994 108.499 91.4519 108.548 91.3045C108.597 91.1571 108.695 91.0097 108.744 90.8622C108.842 90.5674 108.99 90.3217 109.088 90.0268C109.137 89.9286 109.186 89.8303 109.186 89.6829C109.284 89.4863 109.334 89.2406 109.432 89.044C109.481 88.9457 109.481 88.8475 109.53 88.7492L109.579 88.6509C109.677 88.4052 109.776 88.1103 109.825 87.8646V87.8155C110.218 87.3732 110.463 86.931 110.709 86.5378C110.758 86.4887 110.758 86.4395 110.807 86.3904C111.004 85.5059 111.102 84.7196 111.053 84.0316ZM30.6486 81.378C30.5012 81.4272 30.3539 81.6729 30.2556 81.9186C30.2065 82.0169 30.1574 82.1643 30.1083 82.2626C29.7645 83.1471 29.5189 84.3756 29.5189 84.3756C29.5189 83.9825 29.5189 83.5894 29.4697 83.1471V82.9997V81.722V81.5746C29.4697 81.0832 29.5189 80.6409 29.5189 80.1986V79.9529V79.8055V79.5598C29.5189 79.2158 29.568 78.8718 29.568 78.5278C29.568 78.233 29.6171 77.9382 29.6171 77.6924V77.5942V77.4959V77.3976V77.201V77.0045V76.6605V76.4639C29.6171 76.3656 29.6171 76.2674 29.6662 76.2182V76.0708V75.9725V75.6285L29.568 75.7268C29.5189 75.8251 29.4206 75.8742 29.3715 75.9725L29.3224 76.0708C29.2242 76.1691 29.175 76.3165 29.1259 76.4148L29.0768 76.4639C28.9786 76.6113 28.9295 76.7588 28.8312 76.9062L28.7821 76.9553C28.7821 77.0045 28.733 77.0536 28.733 77.0536C28.6839 77.1519 28.6348 77.2502 28.6348 77.3485V77.4467L28.4874 77.889C28.3892 78.3313 28.2909 78.7244 28.2418 79.0193C28.2418 79.1175 28.1927 79.265 28.1927 79.3632C28.1436 79.5598 28.1436 79.7564 28.1436 79.8055V79.4124C28.1436 79.1667 28.0945 78.8718 28.0945 78.6261V77.9873V77.7907V77.4959V77.0536V76.7096V76.4639V76.3656V76.2182C28.0945 76.0708 28.1436 75.8742 28.1436 75.7268V75.6777C28.1436 75.5794 28.1436 75.432 28.1927 75.3337V75.2845C28.2418 75.0388 28.2418 74.7931 28.2909 74.5474V74.4491V74.3017C28.3401 73.9086 28.4383 73.5155 28.5365 73.1223V73.0732C28.5856 72.7292 28.6839 72.4344 28.7821 72.0904V72.0412C28.8312 71.8938 28.8803 71.7464 28.8803 71.6481C28.9295 71.4515 28.9786 71.255 29.0277 71.0093V70.9601C29.0277 70.911 29.0768 70.7636 29.1259 70.6161C29.1259 70.567 29.175 70.4687 29.175 70.4196C29.2242 70.3213 29.2242 70.1739 29.2733 70.0756L29.3224 69.9773C29.2733 69.9282 29.175 69.9282 29.0768 69.879H29.0277L28.9295 69.8299C28.4383 69.6825 27.9471 69.535 27.456 69.4859H27.3577C27.0139 69.4367 26.7192 69.4368 26.3754 69.4368C26.1789 69.4368 25.9825 69.4367 25.786 69.4859C25.6386 69.4859 25.4422 69.535 25.2948 69.535L24.5581 69.6825C24.4598 69.6825 24.4107 69.7316 24.3616 69.7316C24.2634 69.7807 24.116 69.7807 24.0178 69.8299C23.9687 69.8299 23.9196 69.879 23.8704 69.879C23.7722 69.9282 23.7231 69.9282 23.6249 69.9773C23.4775 70.0264 23.3302 70.1247 23.1828 70.1739C23.1337 70.223 23.0355 70.223 22.9863 70.2721C22.7899 70.3704 22.5934 70.4687 22.3969 70.6161C22.2987 70.6653 22.2496 70.7144 22.2005 70.7636C22.1022 70.8127 22.004 70.8618 21.9549 70.9601L21.8567 71.0093C21.7584 71.0584 21.6602 71.1567 21.562 71.2058C21.4637 71.255 21.4146 71.3533 21.3164 71.4024C21.2181 71.5007 21.1199 71.5498 21.0217 71.6481L20.8743 71.7955C20.727 71.9429 20.5796 72.0904 20.4323 72.2869C20.3831 72.3852 20.2849 72.4344 20.2358 72.5326C20.1376 72.6801 19.9902 72.8275 19.892 72.9749L19.8429 73.0732C19.7937 73.1715 19.7446 73.2697 19.6955 73.3189C19.6464 73.368 19.6464 73.4172 19.5973 73.5155C19.4008 73.9086 19.2043 74.3017 19.057 74.6948C19.057 74.744 19.0079 74.7931 19.0079 74.8914L18.8605 75.4811C18.8605 75.5794 18.8114 75.6285 18.8114 75.7268C18.7623 75.9234 18.7132 76.1691 18.7132 76.3656V76.5622C18.7132 76.7096 18.6641 76.857 18.6641 77.0536V77.7416C18.6641 77.9873 18.7132 78.233 18.7132 78.4787C18.7623 78.6753 18.7623 78.8718 18.8114 79.0684V79.1667C18.8114 79.265 18.8605 79.3632 18.9096 79.4615C19.0079 79.8546 19.1552 80.1986 19.3026 80.5426C19.4008 80.7883 19.5482 81.0832 19.6955 81.3289C19.9411 81.7711 20.2849 82.2134 20.5796 82.6065C21.2673 83.4419 22.1514 84.0808 23.1337 84.5722C23.674 84.8179 24.2634 85.0145 24.9019 85.1619C25.4913 85.3093 26.0807 85.3584 26.7192 85.3584H27.1613C27.3577 85.3584 27.6033 85.3093 27.7998 85.3093C27.9962 85.2602 28.1927 85.211 28.3892 85.211C28.4874 85.211 28.5856 85.1619 28.733 85.1619C29.0277 85.1127 29.2733 85.0145 29.5189 84.9162H29.568L29.8627 84.7688C30.2065 84.6213 30.5012 84.4739 30.7959 84.2773L30.845 84.2282C30.9433 84.1791 30.9924 84.1299 31.0906 84.0808C30.845 83.2454 30.5994 82.41 30.403 81.5254C30.6977 81.5254 30.6486 81.4272 30.6486 81.378Z" fill="#FCE9CD"/>
<path d="M67.8307 48.9447C67.4377 48.7973 67.0448 48.699 66.6519 48.6499C66.4063 48.6007 66.1116 48.6007 65.866 48.6007H65.5713C64.2451 48.6499 63.1646 48.9939 63.1646 48.9939C62.919 49.0921 62.7225 49.1904 62.4769 49.2887C60.7579 50.0258 59.6773 51.1069 58.9405 52.2863C58.3511 53.22 58.0073 54.252 57.86 55.1856C57.86 55.2839 57.8109 55.3331 57.8109 55.4313C57.7617 55.677 57.7617 55.9228 57.7126 56.1685C57.6635 56.9547 57.6635 57.6918 57.7126 58.2324C57.7617 59.0186 57.9091 59.51 57.9091 59.51C58.1547 58.8221 58.4003 58.1341 58.6458 57.5444C59.2844 56.021 60.0211 54.7434 60.807 53.7114C62.3296 51.6966 63.9996 50.5172 65.3257 49.8293C66.7992 49.0922 67.8307 48.9447 67.8307 48.9447ZM88.6071 43.8341L88.5579 43.7849C88.3124 43.5392 88.0668 43.3427 87.7721 43.1952C87.0353 42.8021 86.1021 42.7038 84.8251 43.0969C84.8251 43.0969 83.3516 43.6375 82.5657 44.7677C82.5657 44.7677 85.0707 43.2935 88.1159 44.9643C88.4106 45.1117 88.6562 45.3083 88.9509 45.5049C89.2456 45.7014 89.5403 45.9471 89.835 46.242C89.835 46.242 89.5894 45.0134 88.7544 44.0798C88.7053 43.9323 88.6562 43.8832 88.6071 43.8341ZM63.9504 61.4757C64.0487 61.3774 64.1469 61.2791 64.2451 61.23C64.2943 61.1808 64.3434 61.1317 64.3925 61.1317C64.4907 61.0334 64.589 60.9843 64.6872 60.886C64.7363 60.8369 64.7854 60.7877 64.8837 60.7386C64.9819 60.6894 65.0801 60.5912 65.1784 60.542C65.2275 60.4929 65.3257 60.4437 65.3748 60.3946C65.4731 60.3454 65.5713 60.2472 65.6695 60.198C65.7678 60.1489 65.8169 60.0997 65.9151 60.0506C66.0134 60.0015 66.1116 59.9523 66.2589 59.9032L66.5536 59.7558C66.6519 59.7066 66.7992 59.6575 66.8975 59.6083C66.9957 59.5592 67.143 59.51 67.2413 59.51C67.3395 59.4609 67.4377 59.4118 67.5851 59.4118H67.6342C67.7816 59.3626 67.9289 59.3135 68.1254 59.3135C68.1745 59.3135 68.2236 59.3135 68.2727 59.2643C68.371 59.2643 68.4692 59.2152 68.5674 59.2152H68.7148C68.813 59.2152 68.9112 59.2152 69.0095 59.1661H69.5498C69.7462 59.1661 69.9427 59.1661 70.1392 59.2152H70.2374C70.4339 59.2152 70.5812 59.2643 70.7777 59.3135H70.8759C71.0724 59.3626 71.2197 59.3626 71.3671 59.4118H71.4162C71.5635 59.4609 71.76 59.51 71.9074 59.5592C72.1038 59.6083 72.2512 59.7066 72.3985 59.7558C72.5459 59.8049 72.6932 59.9032 72.8406 60.0015C72.595 59.1169 71.8582 57.2004 69.7953 56.709C69.5006 56.6599 69.2059 56.6107 68.8621 56.6107H68.6165C68.3218 56.6107 67.978 56.6599 67.6342 56.7582C63.754 57.5935 63.5575 60.8369 63.6066 61.918C63.7049 61.8197 63.8031 61.6723 63.9013 61.574L63.9504 61.4757Z" fill="#E9B784"/>
<path d="M107.762 82.4097C107.762 82.3605 107.713 82.3114 107.713 82.3114C107.664 82.2131 107.664 82.164 107.615 82.1148C107.271 81.3777 106.878 80.788 106.583 80.3949C106.19 79.9035 105.847 79.6578 105.847 79.6578C105.896 79.4612 105.896 79.2646 105.896 79.0681C105.896 78.8224 105.945 78.5767 105.945 78.331C105.945 76.5128 105.306 75.2351 104.815 74.498C104.717 74.3997 104.668 74.3014 104.619 74.2031C104.373 74.4488 104.127 74.6454 103.882 74.8911C99.0684 79.0681 93.4691 82.1148 87.1822 83.8839C82.8599 85.1124 78.2429 85.7513 73.3313 85.7513H73.4295C73.4295 85.7513 70.5807 86.4884 70.1387 89.3877H70.1878V91.3042C70.5807 93.8104 71.956 95.2846 73.3804 95.9235C74.8048 96.2674 76.5239 96.464 78.3903 96.464C81.632 96.464 85.2666 95.9235 88.9504 94.8424C93.8621 93.5647 100.542 90.0265 105.11 85.997C106.141 85.0633 107.074 84.1296 107.86 83.1468L107.909 83.0977L107.959 83.0485C107.909 82.8028 107.86 82.5571 107.762 82.4097Z" fill="white"/>
<path d="M67.4864 59.4121C67.3882 59.4613 67.2899 59.4612 67.1426 59.5104C67.2899 59.5104 67.3882 59.4613 67.4864 59.4121Z" fill="#F2D2AC"/>
<path d="M68.3207 69.9279C68.4681 69.8297 68.6645 69.6822 68.8119 69.584C68.861 69.5348 68.9592 69.4857 69.0083 69.4365C69.1557 69.3383 69.3522 69.24 69.4995 69.0926C69.5977 69.0434 69.6469 68.9943 69.7451 68.9451C69.8924 68.8468 70.0889 68.7486 70.2363 68.6503C70.3345 68.6011 70.4327 68.552 70.4818 68.5029C70.6292 68.4046 70.8257 68.3063 70.973 68.208C71.0712 68.1589 71.1695 68.1097 71.2677 68.0114C71.4151 67.9132 71.6115 67.8149 71.7589 67.7166C71.8571 67.6675 72.0045 67.5692 72.1027 67.52C72.25 67.4218 72.4465 67.3235 72.5939 67.2743C72.7412 67.2252 72.8395 67.1269 72.9868 67.0778C73.1342 66.9795 73.3306 66.9303 73.478 66.8321C73.6253 66.7829 73.7727 66.6846 73.92 66.6355C74.0674 66.5372 74.2638 66.4881 74.4112 66.3898C74.5585 66.2915 74.7059 66.2424 74.9024 66.1441C75.0497 66.095 75.1971 65.9967 75.3935 65.9475C75.59 65.8492 75.7373 65.8001 75.9338 65.7018C76.0812 65.6527 76.2285 65.5544 76.3759 65.5053C76.5723 65.407 76.7688 65.3578 76.9653 65.2596L77.26 65.1121C77.8002 62.9991 79.5684 57.741 83.5469 56.709C83.989 56.6107 84.3819 56.5124 84.7257 56.4633C84.8239 56.4633 84.9222 56.4142 85.0204 56.4142C84.9222 56.1193 84.8731 55.8245 84.8239 55.5296C84.431 53.4166 84.8731 51.5492 85.8063 51.3526C86.543 51.2052 87.2307 52.188 87.378 52.532C87.7218 53.1709 88.0165 53.9571 88.213 54.8908C88.3603 55.7262 88.4095 56.5124 88.3112 57.2004L88.5568 57.4461C89.6374 58.4781 89.9812 60.0506 90.0794 61.1808C90.4232 61.0826 90.8162 61.0334 91.16 60.9351C91.2582 60.9351 91.3565 60.886 91.4547 60.886H91.5038C91.5529 60.886 91.6021 60.886 91.6512 60.8369C92.0932 60.7386 92.5844 60.6403 93.0264 60.542C94.0579 60.3454 95.1876 60.1489 96.2681 59.9523C95.6296 59.6083 95.2367 59.4609 95.2367 59.4609C92.3388 58.1341 91.8967 57.6427 91.5529 53.1709C91.4547 51.5492 91.3565 49.4361 91.16 46.5368C91.16 46.1437 91.1109 45.7997 91.0618 45.4557C91.0618 45.3574 91.0618 45.3083 91.0126 45.21C90.9635 44.866 90.9144 44.5712 90.8653 44.2763V44.0798C90.8162 43.8341 90.7671 43.5884 90.7179 43.3918C90.7179 43.2935 90.6688 43.1952 90.6688 43.0969C90.6197 42.8512 90.5706 42.6055 90.4724 42.409C90.4232 42.3107 90.4232 42.1633 90.3741 42.065C90.325 41.9176 90.2759 41.8193 90.2268 41.721C90.1777 41.6227 90.1285 41.4753 90.0794 41.377C89.6374 40.8365 89.0971 40.3942 88.5077 40.0502L88.4095 40.0011L88.3112 39.9519H88.2621C88.1639 39.9028 88.0656 39.8536 88.0165 39.8045L87.7218 39.6571C86.8868 39.2639 85.9536 39.0674 84.9713 39.0674C84.431 39.0674 83.8907 39.1165 83.3504 39.1657C83.1048 39.2148 82.8102 39.2639 82.5646 39.3131C81.8769 39.4605 81.1893 39.7062 80.5017 40.0011C80.3052 40.1976 80.0596 40.3942 79.8631 40.5908C79.6667 40.7382 79.4702 40.9347 79.3229 41.0822L79.2246 41.1804C79.0282 41.3279 78.8317 41.5244 78.6352 41.6719L78.537 41.7701L77.9476 42.2124L77.8494 42.3107C77.6529 42.4581 77.4564 42.6055 77.2108 42.753L77.1126 42.8021C76.9161 42.9495 76.6706 43.0478 76.4741 43.1952L76.3759 43.2444C76.1303 43.3427 75.9338 43.4901 75.6882 43.5884H75.6391C75.3935 43.6866 75.1479 43.7849 74.8532 43.8341C74.4112 43.9323 73.9691 44.0306 73.5271 44.0798C72.7903 44.178 72.0536 44.2272 71.2677 44.1781C71.0221 44.1781 70.7765 44.1781 70.4818 44.1289H70.1871C69.4995 44.0798 68.861 44.0306 68.1734 43.9323C67.8787 43.8832 67.584 43.8832 67.3384 43.8341C66.8963 43.7849 66.4052 43.7358 65.9631 43.6866C65.8649 43.6866 65.7666 43.6866 65.6684 43.6375C65.2755 43.6866 64.9316 43.7849 64.5387 43.8832H64.4405C63.3599 44.1781 62.2793 44.5712 61.2479 45.0626C61.1988 45.1117 61.1497 45.1117 61.0514 45.1609C60.9041 45.2592 60.7076 45.3083 60.5603 45.4066C60.3638 45.5049 60.1182 45.6523 59.9217 45.7997C58.3991 46.6842 56.9747 47.8636 55.6977 49.2396C55.1574 49.7801 54.7154 50.3698 54.2733 51.0087C53.5857 51.9423 52.9963 52.9252 52.5051 53.908C52.456 53.9571 52.456 54.0063 52.4069 54.0554C52.1613 54.5959 51.9157 55.1365 51.7192 55.6771C51.6701 55.8736 51.5719 56.0702 51.5228 56.2667V56.3159C51.3263 56.9547 51.1298 57.5935 50.9825 58.2815V58.3798C50.9825 58.4781 50.9334 58.5764 50.9334 58.6747L50.786 59.5592C50.7369 59.854 50.6878 60.198 50.6878 60.4929V60.6894C50.6878 60.886 50.6878 61.0826 50.6387 61.2791C50.6387 61.9671 50.6387 62.6551 50.7369 63.343C50.7369 63.4905 50.786 63.687 50.786 63.8345C51.2281 64.9156 51.8175 65.8492 52.456 66.7338C54.9118 69.9771 58.4974 71.6479 61.0023 72.4341C61.9846 72.729 63.0161 72.9747 64.0475 73.1713L64.0967 73.2204L64.1458 73.1713L64.4896 72.8273L64.637 72.6798C64.7843 72.5816 64.8825 72.4341 65.0299 72.3359C65.079 72.2867 65.1281 72.2376 65.1772 72.2376C65.3246 72.1393 65.4228 71.9919 65.5702 71.8936C65.6193 71.8445 65.6684 71.7953 65.7175 71.7953C65.8649 71.697 66.0122 71.5496 66.1596 71.4513C66.2087 71.4022 66.2578 71.353 66.3069 71.353C66.4543 71.2548 66.6016 71.1073 66.749 71.0091C66.7981 70.9599 66.8472 70.9108 66.8963 70.9108C67.0437 70.8125 67.191 70.6651 67.3384 70.5668L67.4857 70.4194C67.6331 70.3211 67.7804 70.1737 67.9769 70.0754C68.2225 70.0262 68.2716 69.9771 68.3207 69.9279ZM84.7748 43.0969C86.0027 42.6547 86.9851 42.8021 87.7218 43.1952C88.0165 43.3427 88.3112 43.5392 88.5077 43.7849L88.5568 43.8341C88.6059 43.8832 88.655 43.9323 88.7042 44.0306C89.5391 45.0134 89.7847 46.1928 89.7847 46.1928C89.49 45.898 89.1953 45.7014 88.9006 45.4557C88.6059 45.2592 88.3112 45.0626 88.0656 44.9152C85.0204 43.2444 82.5154 44.7186 82.5154 44.7186C83.3013 43.6375 84.7748 43.0969 84.7748 43.0969ZM60.855 53.7114C60.0691 54.7434 59.3323 56.021 58.6938 57.5444C58.4482 58.1832 58.2027 58.8221 57.9571 59.51C57.9571 59.51 57.8588 59.0186 57.7606 58.2324C57.7115 57.6427 57.6624 56.9547 57.7606 56.1685C57.7606 55.9228 57.8097 55.6771 57.8588 55.4313C57.8588 55.3331 57.908 55.2839 57.908 55.1856C58.1044 54.252 58.3991 53.22 58.9885 52.2863C59.7253 51.1069 60.855 50.0258 62.5249 49.2887C62.7214 49.1904 62.967 49.0922 63.2126 48.9939C63.2126 48.9939 64.2931 48.6499 65.6193 48.6007H65.914C66.1596 48.6007 66.4543 48.6007 66.6999 48.6499C67.0928 48.699 67.4857 48.7973 67.8787 48.9447C67.8787 48.9447 66.8472 49.0922 65.4228 49.8293C64.0475 50.5172 62.3776 51.6966 60.855 53.7114ZM63.0161 63.4413C62.9179 63.4905 62.8196 63.4905 62.7705 63.4413C62.6232 63.3431 62.8196 62.7042 63.5073 61.918C63.4581 60.8369 63.6546 57.5935 67.5348 56.7582C67.8787 56.709 68.2225 56.6599 68.5172 56.6107H68.7628C69.1066 56.6107 69.4013 56.6599 69.696 56.709C71.7589 57.1513 72.4956 59.0678 72.7412 60.0015C73.4289 60.3946 73.7235 60.7877 73.6253 60.8369C73.5762 60.9351 73.478 60.9351 73.3306 60.9351C73.1833 61.0334 72.7903 61.0826 72.2992 61.1317C71.3168 61.23 69.7942 61.3283 68.1242 61.7705C68.026 61.8197 67.8787 61.8197 67.7804 61.8688C65.3246 62.5568 63.4581 63.6379 63.0161 63.4413ZM109.235 88.2576C107.663 90.0758 105.944 91.55 104.225 92.7785C103.39 93.4174 102.506 93.9579 101.671 94.4493C99.7554 95.5796 97.9381 96.415 96.3173 97.0538C92.6826 98.4297 90.0794 98.7737 90.0794 98.7737C92.2406 99.6583 94.8438 99.3143 96.612 98.9212C97.7908 98.6263 98.6257 98.3315 98.6257 98.3315C98.6749 99.0686 98.6749 99.8057 98.6257 100.445C98.5766 101.182 98.4293 101.87 98.2819 102.459V102.508C98.0855 103.295 97.7908 103.983 97.4469 104.572C97.3978 104.622 97.3978 104.72 97.3487 104.769L97.4961 104.671C98.0855 104.228 98.6749 103.786 99.2643 103.295C99.7063 102.951 100.148 102.558 100.59 102.164C101.327 101.526 102.015 100.838 102.702 100.101C102.752 100.051 102.801 100.002 102.801 99.9531C103.488 99.216 104.078 98.4297 104.667 97.6926C105.404 96.6607 106.091 95.6778 106.681 94.6459L106.73 94.5967C106.877 94.351 107.025 94.1053 107.123 93.8596L107.172 93.8105C107.221 93.7122 107.27 93.6631 107.319 93.5648C107.516 93.2208 107.712 92.8768 107.86 92.4837C107.909 92.3854 107.958 92.3363 107.958 92.238C108.056 92.0414 108.105 91.8448 108.204 91.6974C108.253 91.55 108.351 91.4026 108.4 91.2552C108.449 91.1077 108.547 90.9603 108.596 90.8129C108.695 90.518 108.842 90.2723 108.94 89.9775C108.989 89.8792 109.038 89.7809 109.038 89.6335C109.137 89.4369 109.186 89.1912 109.284 88.9947C109.333 88.8964 109.333 88.7981 109.382 88.6998L109.431 88.6015C109.53 88.3558 109.628 88.061 109.677 87.8153C109.431 88.0118 109.333 88.1101 109.235 88.2576ZM62.3285 74.1541C61.8373 74.3998 61.297 74.6455 60.7567 74.9895C59.2832 75.8249 57.6133 76.9551 56.238 78.4293C56.0415 78.6259 55.8942 78.8225 55.6977 78.9699C55.403 79.3139 55.1574 79.6579 54.9118 80.0019C54.8627 80.051 54.8627 80.1001 54.8136 80.1001C54.7645 80.1493 54.7154 80.1984 54.7154 80.2476L54.4207 80.6898C54.3715 80.739 54.3715 80.7881 54.3224 80.8864C54.2242 81.083 54.0768 81.2795 53.9786 81.5252C53.8804 81.7218 53.7821 81.9675 53.6839 82.1641C52.9472 83.884 52.6525 85.8988 53.1436 88.2084V88.1101V87.9136V87.6679C53.1436 87.6187 53.1436 87.5204 53.1927 87.4222C53.1927 87.3239 53.2419 87.2256 53.2419 87.1764V87.1273C53.2419 87.029 53.291 86.9307 53.291 86.8325V86.7833C53.291 86.685 53.3401 86.5868 53.3892 86.4885V86.4393C53.4383 86.341 53.4383 86.1936 53.4874 86.0953V85.9971C53.5366 85.8988 53.5857 85.7514 53.6348 85.6039C53.6839 85.4074 53.7821 85.2108 53.8804 85.0142C53.9295 84.9651 53.9295 84.8668 53.9786 84.8177L54.0277 84.7685C54.126 84.6211 54.1751 84.4737 54.2733 84.3263C54.3224 84.1788 54.4207 84.0806 54.5189 83.9331C54.568 83.884 54.568 83.8349 54.6171 83.8349C54.6662 83.7366 54.7645 83.6383 54.8136 83.54C54.8627 83.4909 54.8627 83.4417 54.9118 83.4417C55.0101 83.2943 55.1083 83.196 55.2065 83.0977C55.2065 83.0977 53.6839 88.1101 55.0592 91.7957V91.7466V91.6483V91.5009V91.3043V91.0586V90.7637V90.4689V90.4198V89.9775C55.0592 89.8301 55.0592 89.6826 55.1083 89.5844V89.5352C55.1083 89.3878 55.1574 89.2404 55.1574 89.093C55.1574 89.0438 55.1574 88.9947 55.2065 88.9455V88.8472C55.2556 88.749 55.2556 88.6015 55.3048 88.5033C55.3539 88.3558 55.403 88.1593 55.4521 88.0118C55.4521 87.9627 55.5012 87.9136 55.5012 87.8644C55.5503 87.717 55.6486 87.5696 55.7468 87.4222C55.7468 87.4222 55.7468 88.6015 55.9924 90.0266C56.0415 90.2232 56.0415 90.4689 56.0906 90.7146C56.1397 90.862 56.1398 91.0094 56.1889 91.1569C56.0906 89.6335 56.1889 88.2084 56.4345 86.8325C56.4836 86.4393 56.5818 86.0953 56.68 85.7022C56.68 85.6531 56.68 85.6039 56.7292 85.5548L57.0239 84.5228C57.0239 84.4737 57.073 84.3754 57.073 84.3263C57.1712 83.9823 57.2694 83.6874 57.4168 83.3435C57.4168 83.2943 57.4659 83.2452 57.4659 83.196C57.7115 82.5081 58.0062 81.9184 58.3009 81.2795C58.3009 81.2304 58.35 81.1812 58.35 81.1321C58.4482 80.8864 58.5956 80.6898 58.6938 80.4441C58.7429 80.395 58.7429 80.3458 58.7921 80.2476C58.8412 80.1984 58.8412 80.1493 58.8903 80.1001C59.0376 79.8544 59.185 79.5596 59.3323 79.3139C59.3323 79.2647 59.3815 79.2156 59.3815 79.2156C59.5288 78.9699 59.7253 78.6751 59.8726 78.4293L60.462 77.5448L60.9041 76.9551C60.9532 76.906 61.0023 76.8077 61.0514 76.7585C61.3952 76.3163 61.7391 75.874 62.0829 75.53C63.0652 74.3998 63.8511 73.7118 64.0967 73.4661C63.9002 73.5152 63.7037 73.6135 63.5073 73.7118C63.1634 73.7609 62.7705 73.9084 62.3285 74.1541Z" fill="#F2D2AC"/>
<path d="M89.0971 60.1002C89.0971 60.1002 89.048 60.0019 88.9989 59.8054C88.7533 59.1174 87.8692 57.5449 85.1678 58.1837C82.3681 58.8226 81.6805 61.2305 81.5332 62.0167C81.484 62.1641 81.484 62.3116 81.484 62.3116L81.5823 62.3607C81.9261 62.0167 82.6137 61.9676 83.2522 62.2624C83.5469 62.4098 83.7925 62.6064 83.989 62.8521C84.2837 63.1961 84.3819 63.5892 84.2346 63.8841C84.1855 63.9332 84.1855 64.0315 84.1363 64.0806C84.1363 64.0806 84.2346 64.1298 84.431 64.1298C85.266 64.2772 87.4763 64.4738 88.5077 62.7538C88.5569 62.6555 88.606 62.6064 88.6551 62.5081C88.4095 62.4098 88.213 62.115 88.1639 61.6727C88.1148 61.4762 88.1148 61.2796 88.1639 61.0339C88.3113 60.3951 88.7042 59.9528 89.0971 60.1002ZM77.6038 82.7051C75.8356 83.2948 74.2639 83.7862 73.036 84.1302H73.2324C75.3444 84.1302 78.6844 84.0319 82.6628 83.2948C89.883 81.9188 99.2152 78.4298 106.976 69.4861V69.437C106.927 68.7982 106.681 67.6188 105.748 66.7834C105.6 66.636 105.404 66.4886 105.158 66.3903C105.109 66.3903 105.109 66.3411 105.06 66.3411C104.814 66.2428 104.618 66.1446 104.422 66.0463C104.274 65.948 104.078 65.8989 103.98 65.8006V65.7514C103.537 66.5868 102.997 67.4222 102.408 68.2085C102.211 68.5033 101.966 68.749 101.72 69.0439C99.6081 71.5009 96.7102 73.7123 93.5176 75.6288C88.213 78.7247 82.2208 81.1326 77.6038 82.7051ZM29.8132 75.7271C29.7641 75.8253 29.6659 75.8745 29.6167 75.9728L29.5676 76.0711C29.4694 76.1693 29.4203 76.3168 29.3712 76.415L29.322 76.4642C29.2238 76.6116 29.1747 76.759 29.0765 76.9064L29.0273 76.9556C29.0273 77.0047 28.9782 77.0539 28.9782 77.0539C28.9291 77.1522 28.88 77.2504 28.88 77.3487V77.447L28.7326 77.8893C28.6344 78.3315 28.5362 78.7247 28.4871 79.0195C28.4871 79.1178 28.4379 79.2652 28.4379 79.3635C28.3888 79.5601 28.3888 79.7566 28.3888 79.8058V79.4126C28.3888 79.1669 28.3397 78.8721 28.3397 78.6264V77.9875V77.791V77.4961V77.0539V76.7099V76.4642V76.3659V76.2185C28.3397 76.0711 28.3888 75.8745 28.3888 75.7271V75.6779C28.3888 75.5796 28.3888 75.4322 28.4379 75.3339V75.2848C28.4871 75.0391 28.4871 74.7934 28.5362 74.5477V74.4494V74.302C28.5853 73.9088 28.6835 73.5157 28.7818 73.1226V73.0734C28.8309 72.7295 28.9291 72.4346 29.0273 72.0906V72.0415C29.0765 71.8941 29.1256 71.7466 29.1256 71.6484C29.1747 71.4518 29.2238 71.2552 29.2729 71.0095V70.9604C29.2729 70.9112 29.322 70.7638 29.3712 70.6164C29.3712 70.5673 29.4203 70.469 29.4203 70.4198C29.4694 70.3216 29.4694 70.1741 29.5185 70.0758L29.5676 69.9776C29.5185 69.9284 29.4203 69.9284 29.322 69.8793H29.2729L29.1747 69.8301C28.6835 69.6827 28.1924 69.5353 27.7012 69.4861H27.603C27.2591 69.437 26.9644 69.437 26.6206 69.437C26.4242 69.437 26.2277 69.437 26.0312 69.4861C25.8839 69.4861 25.6874 69.5353 25.5401 69.5353L24.8033 69.6827C24.7051 69.6827 24.656 69.7319 24.6068 69.7319C24.5086 69.781 24.3613 69.781 24.263 69.8301C24.2139 69.8301 24.1648 69.8793 24.1157 69.8793C24.0174 69.9284 23.9683 69.9284 23.8701 69.9776C23.7227 70.0267 23.5754 70.125 23.428 70.1741C23.3789 70.2233 23.2807 70.2233 23.2316 70.2724C23.0351 70.3707 22.8386 70.469 22.6422 70.6164C22.5439 70.6655 22.4948 70.7147 22.4457 70.7638C22.3475 70.813 22.2492 70.8621 22.2001 70.9604L22.1019 71.0095C22.0036 71.0587 21.9054 71.1569 21.8072 71.2061C21.7089 71.2552 21.6598 71.3535 21.5616 71.4027C21.4634 71.5009 21.3651 71.5501 21.2669 71.6484L21.1195 71.7958C20.9722 71.9432 20.8248 72.0906 20.6775 72.2872C20.6284 72.3855 20.5301 72.4346 20.481 72.5329C20.3828 72.6803 20.2354 72.8277 20.1372 72.9752L20.0881 73.0734C20.039 73.1717 19.9899 73.27 19.9407 73.3192C19.8916 73.3683 19.8916 73.4174 19.8425 73.5157C19.646 73.9088 19.4496 74.302 19.3022 74.6951C19.3022 74.7442 19.2531 74.7934 19.2531 74.8917L19.1058 75.4814C19.1058 75.5796 19.0566 75.6288 19.0566 75.7271C19.0566 75.7762 19.1058 75.8253 19.1058 75.8745C19.204 76.0219 19.2531 76.2185 19.3513 76.3659L19.4005 76.415L19.4496 76.4642C19.5478 76.6116 19.5969 76.759 19.6952 76.9556C19.9407 77.3979 20.2354 77.8401 20.481 78.1841C20.5301 78.2333 20.5793 78.2824 20.5793 78.3315L20.6284 78.6264L20.6775 78.6755C20.874 78.9212 21.0704 79.1669 21.2178 79.3635C21.4634 79.6583 21.7089 79.904 21.8563 80.0515L21.9545 80.1498L22.0036 80.1989L22.1019 80.2972C22.0528 80.1989 22.0528 80.1498 22.0036 80.0515C21.8072 79.4618 21.6598 78.8229 21.5616 78.2333V78.135C21.5125 77.7418 21.4634 77.3487 21.4634 77.0047C21.5125 77.1522 21.5616 77.2996 21.6598 77.3979L21.9545 77.9875L22.0036 78.0367C22.3966 78.823 22.8386 79.4618 23.2316 80.0023C23.7227 80.6412 24.1157 81.0343 24.3613 81.28C24.4104 81.3291 24.4595 81.3783 24.5086 81.3783L24.6068 81.4766C24.3613 80.8377 24.2139 80.1989 24.1157 79.5601C24.0665 79.3635 24.0666 79.1178 24.0174 78.9212C23.9683 78.6264 23.9683 78.3807 23.9683 78.135C24.1648 78.5772 24.3121 78.9704 24.5086 79.3635V79.4126C25.1962 80.7395 25.9821 81.7223 26.4733 82.2628L26.5224 82.312C26.6206 82.4102 26.6697 82.5085 26.768 82.5577L26.9153 82.7051L27.0136 82.8034L27.0627 82.8525L27.0136 82.7542C26.9644 82.6559 26.9644 82.5577 26.9153 82.5085C26.8171 82.1645 26.7189 81.8697 26.6697 81.5257C26.6206 81.3291 26.5715 81.0834 26.5224 80.8869C26.4733 80.6903 26.4733 80.4937 26.4242 80.2972V80.1989C26.4242 80.1006 26.4242 80.0023 26.375 79.9041V79.8058C26.375 79.5601 26.3259 79.2652 26.3259 79.0195C26.375 79.1669 26.4733 79.3635 26.5224 79.5109C26.5715 79.6092 26.6206 79.7566 26.6697 79.8549V79.9041L26.7189 79.9532C26.768 80.1006 26.8662 80.1989 26.9153 80.3463C27.0627 80.592 27.1609 80.7886 27.3083 80.9852C27.4556 81.2309 27.6521 81.4766 27.7994 81.6731C27.8977 81.7714 27.9959 81.9188 28.045 82.0171C28.1432 82.1645 28.2415 82.2628 28.3397 82.4102C28.4379 82.5085 28.5362 82.6068 28.5853 82.7051L28.6344 82.7542L28.8309 82.9508L28.9782 83.0982L29.1747 83.2948L29.2238 83.3439V83.1965V81.9188V81.7714C29.2238 81.28 29.2729 80.8377 29.2729 80.3955V80.1498V80.0023V79.7566C29.2729 79.4126 29.322 79.0687 29.322 78.7247C29.322 78.4298 29.3712 78.135 29.3712 77.8893V77.791V77.6927V77.5944V77.3979V77.2013V76.8573V76.6607C29.3712 76.5625 29.3712 76.4642 29.4203 76.415V76.2676V76.1693V75.8253L29.8132 75.7271ZM91.4056 88.7494C92.0442 88.4055 92.6335 88.1597 93.0756 87.914C93.9597 87.4226 94.4509 87.0786 94.4017 86.9804C94.3526 86.8821 93.8123 87.0295 92.83 87.3735C92.3388 87.5701 91.7494 87.7175 91.1109 87.9632C90.7671 88.1106 90.4233 88.1597 90.0304 88.3072C89.6374 88.4054 89.2445 88.5529 88.8024 88.6512C87.9675 88.8969 86.9851 89.0934 85.9537 89.3883C85.4625 89.4865 84.9222 89.5848 84.3819 89.7323C83.8416 89.8305 83.2522 89.9288 82.6628 90.0271C80.3052 90.3711 77.7512 90.6168 75.0497 90.4694C73.6254 90.4202 71.7098 89.978 70.2854 89.3883H70.2363C70.6784 86.4889 73.5271 85.7518 73.5271 85.7518H71.2186C69.4504 85.8501 68.6646 87.4718 68.419 88.1106C68.3699 88.2089 68.3699 88.3072 68.3208 88.4054C68.1243 88.9951 68.0752 89.6831 68.0752 90.4202C68.1734 91.747 68.6646 93.123 69.8434 94.2532C70.6292 94.9903 71.8572 95.58 73.4289 95.9732C72.0045 95.2852 70.6784 93.8601 70.2363 91.3539C71.808 91.7962 73.5762 91.9927 74.9024 92.0419C77.7512 92.1893 80.4526 91.9436 82.8593 91.5013C83.4487 91.3539 84.0381 91.2556 84.6275 91.1082C85.1678 90.9608 85.7572 90.8134 86.2484 90.6659C87.2798 90.3711 88.213 90.0762 89.0971 89.7323C89.5392 89.5848 89.9321 89.4374 90.3251 89.2408C90.718 89.0443 91.1109 88.946 91.4056 88.7494Z" fill="#F2D2AC"/>
<path d="M85.0696 56.4632C86.5431 56.3158 87.5746 56.6598 88.3113 57.2495C88.4096 56.5615 88.3604 55.7752 88.2131 54.9398C88.0657 54.0062 87.7219 53.2199 87.3781 52.5811C87.2308 52.2371 86.5431 51.2543 85.8064 51.4017C84.8732 51.5982 84.4311 53.4165 84.824 55.5787C84.9223 55.8735 84.9714 56.1684 85.0696 56.4632ZM67.977 60.8859C69.647 60.3945 71.2187 60.6402 72.2501 60.7876C72.7413 60.8859 73.1342 60.935 73.3307 60.935C73.4781 60.935 73.5763 60.8859 73.6254 60.8368C73.7236 60.7385 73.3798 60.3453 72.7413 60.0014C72.594 59.9031 72.4466 59.8539 72.2993 59.7556C72.1519 59.7065 71.9554 59.6082 71.8081 59.5591C71.6607 59.5099 71.5134 59.4608 71.3169 59.4117H71.2678C71.1205 59.3625 70.924 59.3134 70.7766 59.3134H70.6784C70.5311 59.2642 70.3346 59.2642 70.1381 59.2151H70.0399C69.8434 59.2151 69.647 59.166 69.4505 59.166H68.9102C68.812 59.166 68.7137 59.166 68.6155 59.2151H68.4682C68.3699 59.2151 68.2717 59.2642 68.1735 59.2642C68.1243 59.2642 68.0752 59.2642 68.0261 59.3134C67.8788 59.3625 67.7314 59.3625 67.5841 59.4117H67.5349C67.4367 59.4608 67.3385 59.4608 67.1911 59.5099C67.0929 59.5591 66.9455 59.5591 66.8473 59.6082C66.7491 59.6574 66.6017 59.7065 66.5035 59.7556L66.2088 59.9031C66.1106 59.9522 66.0123 60.0014 65.865 60.0505C65.7667 60.0996 65.6685 60.1488 65.6194 60.1979C65.5212 60.2471 65.4229 60.3453 65.3247 60.3945C65.2756 60.4436 65.1773 60.4928 65.1282 60.5419C65.03 60.591 64.9317 60.6893 64.8335 60.7385C64.7844 60.7876 64.7353 60.8368 64.6371 60.8859C64.5388 60.9842 64.4406 61.0333 64.3423 61.1316C64.2932 61.1807 64.2441 61.2299 64.195 61.2299C64.0968 61.3282 63.9985 61.4264 63.9003 61.4756L63.8021 61.5739C63.7038 61.6722 63.6056 61.8196 63.5074 61.9179C62.8197 62.7041 62.6233 63.3921 62.7706 63.4412C62.8197 63.4904 62.918 63.4904 63.0162 63.4412C63.6547 63.1955 65.2265 61.7213 67.5841 60.9842C67.7805 60.9842 67.8788 60.935 67.977 60.8859ZM88.2131 61.6721C88.2622 62.0653 88.4587 62.4093 88.7043 62.5075C89.0972 62.655 89.441 62.2127 89.5884 61.5247V61.3282C89.6375 60.7385 89.441 60.1979 89.0972 60.0505C88.7534 59.9031 88.3604 60.3453 88.2131 61.0333C88.2131 61.279 88.164 61.4756 88.2131 61.6721ZM81.7297 63.5395C81.9261 63.7852 82.1717 63.9818 82.5155 64.1292C83.2032 64.4732 83.8908 64.3749 84.2346 64.0309C84.2838 63.9818 84.3329 63.9326 84.3329 63.8344C84.4802 63.5395 84.3329 63.1464 84.0873 62.8024C83.8908 62.6058 83.6452 62.3601 83.3505 62.2127C82.6629 61.9179 81.9753 61.967 81.6806 62.311C81.6314 62.3601 81.5823 62.4093 81.5332 62.5075C81.3367 62.8515 81.435 63.1955 81.7297 63.5395ZM107.958 83.0976C107.123 84.0805 106.19 85.0633 105.158 85.9478C100.591 89.9774 93.8615 93.5155 88.999 94.7932C85.3152 95.8743 81.6806 96.4149 78.4389 96.4149C76.5724 96.4149 74.8533 96.2183 73.4289 95.8743C71.8572 95.4812 70.5802 94.8915 69.8434 94.1544C68.6646 93.0733 68.1735 91.6482 68.0752 90.3214C68.0261 89.6334 68.1243 88.9454 68.3208 88.3066C68.3699 88.2083 68.3699 88.11 68.419 88.0117C68.6646 87.3238 69.4505 85.7513 71.2187 85.653H73.4289C78.2915 85.653 82.9576 85.0141 87.2799 83.7856C93.5668 82.0165 99.1661 79.0189 103.98 74.7928C104.225 74.5471 104.471 74.3505 104.716 74.1048L107.074 69.4364C99.3135 78.3801 90.0304 81.8691 82.7611 83.1959C78.7827 83.933 75.4427 84.0313 73.3307 84.0313H71.1696C70.6293 84.0805 70.089 84.1787 69.647 84.4244C68.7137 84.8667 67.9279 85.653 67.3876 86.5867C66.7491 87.766 66.4544 89.2403 66.6017 90.7636C66.7491 91.9922 67.1911 93.2207 67.977 94.3018C68.0261 94.3509 68.0261 94.4001 68.0752 94.4492C68.1735 94.5475 68.2717 94.6949 68.3699 94.7932L68.812 95.2355C70.5802 96.9063 74.0184 97.9382 78.488 97.9382C81.4841 97.9382 84.9714 97.496 88.6551 96.464C99.5099 93.0733 104.323 88.8471 106.485 85.997L106.927 85.4073C107.663 84.277 107.958 83.4908 108.056 83.0976V83.0485C108.105 82.9502 108.105 82.9011 108.105 82.9011L107.958 83.0976Z" fill="#664F44"/>
<path d="M88.606 5.79842C87.6237 4.91388 86.494 4.32419 85.3152 3.88192C85.1187 3.83278 84.8732 3.78364 84.6767 3.7345C84.5785 3.68536 84.4311 3.63622 84.3329 3.58708C83.3014 3.34137 82.2208 3.19395 81.1403 3.19395C75.7866 3.14481 69.9908 5.79842 66.7 7.5675C66.5035 7.66578 66.3561 7.76406 66.1597 7.86235C65.865 8.00977 65.6194 8.15719 65.3247 8.35376C64.8335 8.6486 64.3915 8.94345 63.9003 9.23829C63.8512 9.28743 63.7529 9.33658 63.7038 9.38572L62.6233 8.4029L62.1321 7.96063L61.69 7.5675L61.4936 7.37093L57.466 3.68536L57.1222 3.34137L56.7293 2.94824H56.6801L55.6978 3.29223L54.5681 3.68536C53.8805 3.43965 53.0946 3.34137 52.2105 3.34137C50.4423 3.34137 48.1829 3.78364 45.7271 4.76646C43.2713 5.74928 40.5207 7.17437 37.6719 9.04173C31.9253 12.8256 25.7366 18.2802 19.9408 24.9634C17.927 27.3222 16.0606 29.681 14.3415 32.0397C12.7206 34.3002 11.198 36.6098 9.92098 38.8212C7.26867 43.3422 5.304 47.6174 4.22344 51.4013C3.48668 53.9075 3.09375 56.168 3.09375 58.0845C3.09375 59.4604 3.29022 60.6398 3.63403 61.6226C3.73227 61.9175 3.87962 62.2123 4.02697 62.458C4.32167 62.9986 4.66549 63.49 5.10754 63.8831L9.52805 67.5196L10.0192 67.9127V67.8635C10.1174 67.7161 10.2157 67.5687 10.363 67.4213L10.4121 67.3721C10.4613 67.323 10.5104 67.2738 10.5104 67.2247C10.6086 67.0773 10.7068 66.9299 10.8051 66.8316C10.8542 66.7333 10.9524 66.6842 11.0015 66.5859C11.0507 66.4876 11.1489 66.4384 11.198 66.3402L11.2962 66.2419C11.3454 66.1436 11.4436 66.0945 11.4927 65.9962C11.5909 65.8979 11.6892 65.7505 11.7874 65.6522L11.9839 65.4556L12.033 65.4065L12.3768 65.0625L12.5733 64.8659C12.6715 64.7677 12.8189 64.6694 12.9171 64.522C12.9662 64.4728 13.0645 64.3745 13.1627 64.3254C13.31 64.2271 13.4083 64.1288 13.5556 64.0305C13.6539 63.9814 13.703 63.9323 13.8012 63.834C13.9486 63.7357 14.0959 63.6374 14.1941 63.5391C14.2924 63.49 14.3415 63.4408 14.4397 63.3917L14.538 63.3426C14.6362 63.2443 14.7835 63.1951 14.8818 63.0969C14.9309 63.0477 15.0291 62.9986 15.0782 62.9494C15.1765 62.9003 15.2747 62.802 15.3729 62.7529L15.6676 62.6054L15.7659 62.5563C16.0115 62.4089 16.2079 62.3106 16.4535 62.2123C16.5517 62.1632 16.6009 62.1632 16.6991 62.114C16.7973 62.0649 16.8464 62.0158 16.9447 62.0158L17.0429 61.9666C17.092 61.9666 17.1411 61.9175 17.1903 61.9175L17.485 61.7701L17.5832 61.7209C17.6814 61.6718 17.8288 61.6226 17.927 61.5735C18.0252 61.5243 18.1726 61.4752 18.2708 61.4261L18.7129 61.2786C18.762 61.2786 18.8111 61.2295 18.9093 61.2295C18.9585 61.2295 19.0076 61.1804 19.1058 61.1804C19.2532 61.1312 19.4005 61.0821 19.5479 61.0821C19.6952 61.0329 19.7934 61.0329 19.9408 60.9838C20.039 60.9838 20.1373 60.9347 20.2355 60.8855C20.2846 60.8855 20.3337 60.8855 20.3337 60.8364C20.3829 60.8364 20.432 60.8364 20.4811 60.7872H20.5793C21.0705 60.6889 21.6108 60.6398 22.2493 60.6398H22.3475C22.986 60.6398 23.6246 60.6398 24.3613 60.6889C24.5087 60.6889 24.7051 60.7381 24.8525 60.7381C24.9016 60.6889 24.9016 60.5907 24.9507 60.5415L25.8348 58.4776C27.603 54.5463 29.5677 51.0573 31.6306 47.9614C32.3182 46.9295 33.055 45.8975 33.7917 44.9147C36.7878 40.8851 39.9313 37.6909 42.8292 35.1848C43.4677 34.6442 44.1062 34.1037 44.7448 33.6122C45.5797 32.9243 46.4147 32.3346 47.2006 31.7449C47.8391 31.3026 48.4285 30.8603 49.0179 30.4672C50.0003 29.8284 50.8844 29.2878 51.6702 28.8456C51.9158 28.6981 52.1614 28.5507 52.3579 28.4524C52.7017 28.2559 52.9964 28.1084 53.2911 27.961C53.0455 27.961 52.7508 27.961 52.5052 28.0102C52.2596 28.0102 52.014 28.0593 51.7193 28.0593H51.5229C51.2773 28.1084 50.9826 28.1084 50.737 28.1576C50.2458 28.2559 49.7056 28.3542 49.2144 28.5016C49.0179 28.5507 48.8706 28.5999 48.6741 28.649C49.902 27.8136 51.1299 27.1256 52.3579 26.6342C53.1437 26.2902 53.9296 25.9954 54.7155 25.7497C55.7469 25.4057 56.7784 25.16 57.7116 25.0126C58.3501 24.9143 58.9395 24.816 59.4798 24.7669C60.0201 24.7177 60.5604 24.6686 61.0024 24.6686C62.6233 24.6194 63.6056 24.7177 63.6056 24.7177C63.36 24.4229 63.0162 24.1772 62.6724 23.9806C62.0339 23.5875 61.3462 23.3909 60.7568 23.1943C60.5112 23.1452 60.3148 23.0961 60.1183 23.0469C59.971 22.9978 59.8236 22.9978 59.6763 22.9978C59.9218 22.8995 60.2165 22.8504 60.4621 22.8012C60.7568 22.7521 61.0024 22.6538 61.2971 22.6047C63.5565 22.1132 65.6194 22.0641 67.142 22.1624C69.0084 22.2607 70.1381 22.6047 70.1381 22.6047C69.7943 22.1132 69.4014 21.7201 68.9102 21.4253C68.5664 21.1796 68.2226 20.983 67.8788 20.8356C68.5173 20.8847 69.1067 20.983 69.6961 21.0813C71.2187 21.3761 72.4957 21.7201 73.5272 22.0641C73.871 22.1624 74.1657 22.3098 74.4604 22.4081C74.5586 22.4572 74.6078 22.4572 74.706 22.5064C75.6392 22.8995 76.1795 23.1943 76.1795 23.1943C75.983 22.7029 75.5901 22.2115 75.1972 21.8184L74.9025 21.5236H74.9516C75.0007 21.5236 75.0498 21.5236 75.148 21.5727C75.2463 21.5727 75.2954 21.6218 75.4427 21.6218C75.8357 21.7201 76.4742 21.8675 77.2109 22.1624C77.2601 22.1624 77.2601 22.2115 77.3092 22.2115C77.4074 22.2607 77.5056 22.3098 77.6039 22.3098C77.8495 22.4081 78.1442 22.5064 78.3897 22.6538C78.6353 22.7521 78.8809 22.8995 79.1756 23.0469C79.323 23.0961 79.4703 23.1943 79.5685 23.2435C79.8632 23.3909 80.1579 23.5875 80.4526 23.784C80.7473 23.9806 81.0421 24.1772 81.3368 24.4229L81.4841 24.5703C81.6806 24.7177 81.877 24.9143 82.0735 25.1108C82.4664 25.4548 82.8102 25.848 83.1541 26.2902C83.547 26.7816 83.8908 27.3713 84.1855 28.0102C84.1855 28.0593 84.2346 28.0593 84.2346 28.1084C84.382 27.9119 84.5785 27.617 84.8732 27.1748C87.329 23.4892 94.5 11.7445 88.606 5.79842Z" fill="#132134"/>
<path d="M53.8805 8.05902L53.4875 6.14252L54.2243 3.88204L54.6172 3.73461C53.9296 3.48891 53.1437 3.39062 52.2596 3.39062C50.4914 3.39062 48.232 3.83289 45.7762 4.81571C43.3204 5.79854 40.5698 7.22363 37.7211 9.09098C31.9253 12.8257 25.7366 18.2804 19.9408 24.9635C17.927 27.3223 16.0606 29.6811 14.3415 32.0398C12.7206 34.3003 11.198 36.61 9.92098 38.8213C7.26867 43.3423 5.304 47.6175 4.22344 51.4014C3.48668 53.9076 3.09375 56.1681 3.09375 58.0846C3.09375 59.4605 3.29022 60.6399 3.63403 61.6227C3.73227 61.9176 3.87962 62.2124 4.02697 62.4581C4.32167 62.9987 4.66549 63.4901 5.10754 63.8832L9.52805 67.5197L10.0192 67.9128V67.8637C10.1174 67.7162 10.2157 67.5688 10.363 67.4214L10.4121 67.3722C10.4613 67.3231 10.5104 67.274 10.5104 67.2248C10.6086 67.0774 10.7068 66.93 10.8051 66.8317C10.8542 66.7334 10.9524 66.6843 11.0015 66.586C11.0507 66.4877 11.1489 66.4386 11.198 66.3403L11.2962 66.242C11.3454 66.1437 11.4436 66.0946 11.4927 65.9963C11.5909 65.898 11.6892 65.7506 11.7874 65.6523L11.9839 65.4557L12.033 65.4066L12.3768 65.0626L12.5733 64.8661C12.6715 64.7678 12.8189 64.6695 12.9171 64.5221C12.9662 64.4729 13.0645 64.3746 13.1627 64.3255C13.31 64.2272 13.4083 64.1289 13.5556 64.0307C13.6539 63.9815 13.703 63.9324 13.8012 63.8341C13.9486 63.7358 14.0959 63.6375 14.1941 63.5392C14.2924 63.4901 14.3415 63.441 14.4397 63.3918L14.538 63.3427C15.1765 60.6399 16.257 57.6423 17.7305 54.4482C19.5479 50.566 21.9546 46.389 24.9507 42.212C26.8171 39.5584 28.88 36.9048 31.1394 34.3003C34.0864 30.9096 37.1317 27.8137 40.1278 25.111C42.1907 23.2927 44.2045 21.6219 46.2183 20.1477L46.8077 19.7054C47.3479 19.3123 47.8882 18.9683 48.4285 18.5752C49.5582 17.7889 50.737 17.0518 51.8176 16.413L51.1791 15.7742L51.0808 15.6759L50.2458 14.8896L45.5797 10.4669L45.1868 7.12534L45.1377 7.0762L47.8882 5.89682L53.8805 8.05902Z" fill="#2F83C1"/>
<path d="M56.7302 2.94824L54.1762 3.83278L55.3058 8.55032L47.8892 5.84756L45.1387 7.02695L45.1878 7.07609L54.8147 15.7249L54.9129 15.6758L55.0111 15.5775L55.7479 14.9878C55.8461 14.9387 55.8952 14.8404 55.9935 14.7912C56.3373 14.4964 56.7302 14.2507 57.074 13.9558L52.9974 10.2703L59.1861 12.4325C59.3334 12.3342 59.5299 12.1868 59.6772 12.0885L58.6458 8.00977L61.6419 10.7617H61.691C61.8875 10.6142 62.084 10.4668 62.3295 10.3685L62.3787 10.3194L62.4769 10.2703C62.526 10.2703 62.526 10.2211 62.5751 10.2211C62.6734 10.172 62.7716 10.1228 62.8207 10.0245C62.8207 10.0245 62.8698 10.0245 62.8698 9.97541C63.1645 9.77884 63.4592 9.58228 63.7539 9.43486L56.7302 2.94824Z" fill="#FFD250"/>
<path d="M54.1755 3.83321L54.5684 3.68578C53.8808 3.44008 53.0949 3.3418 52.2108 3.3418C50.4426 3.3418 48.1832 3.78407 45.7274 4.76689C43.2716 5.74971 40.521 7.1748 37.6723 9.04216C31.9256 12.826 25.7369 18.2807 19.9411 24.9639C17.9273 27.3226 16.0609 29.6814 14.3418 32.0402L23.3793 40.7873C25.2457 38.1828 27.3086 35.5783 29.5189 32.9738C32.515 29.534 35.6094 26.3889 38.7037 23.5879C41.6998 20.8851 44.696 18.5755 47.643 16.6099L45.5309 10.5655L45.1871 7.12566L45.138 7.07651L47.8885 5.89713L53.8317 8.10848L53.4387 6.19198L54.1755 3.83321Z" fill="#4D9ED7"/>
<path d="M54.1752 3.83301L53.4875 6.14264L53.8805 8.05914L55.3049 8.59969L54.1752 3.83301ZM52.9473 10.2705L59.136 12.4327L57.0731 14.0052L52.9473 10.2705ZM58.5957 8.00999L59.6271 12.0887L61.6409 10.7128L58.5957 8.00999Z" fill="#132134"/>
<path d="M80.4524 3.83287L81.4838 3.68544C82.4661 3.58716 83.3994 3.58716 84.2835 3.73458H84.6764C84.5782 3.68544 84.4308 3.6363 84.3326 3.58716C83.3011 3.34146 82.2206 3.19403 81.14 3.19403C75.7863 3.14489 69.9905 5.79851 66.6997 7.56758C66.5032 7.66587 66.3558 7.76415 66.1594 7.86243C65.8647 8.00985 65.6191 8.15728 65.3244 8.35384C64.8332 8.64869 64.3912 8.94353 63.9 9.23838C63.8509 9.28752 63.7527 9.33666 63.7035 9.3858C63.4088 9.58237 63.1141 9.72979 62.8194 9.92635C62.8194 9.92635 62.7703 9.92635 62.7703 9.97549C62.6721 10.0246 62.5738 10.0738 62.5247 10.1721C62.4756 10.1721 62.4756 10.2212 62.4265 10.2212L62.3283 10.2703L62.2791 10.3195C62.0827 10.4669 61.8862 10.5652 61.6406 10.7126H61.5915C61.5424 10.7618 61.4933 10.7618 61.4442 10.8109H61.395C61.3459 10.86 61.2968 10.86 61.2968 10.9092C60.953 11.1057 60.6583 11.3514 60.3145 11.548C60.0689 11.6954 59.8724 11.8429 59.6268 11.9903L59.5777 12.0394C59.4304 12.1377 59.2339 12.2851 59.0866 12.3834C58.5463 12.7765 58.006 13.1697 57.5148 13.5628C57.4657 13.6119 57.4166 13.6611 57.3675 13.6611C57.3184 13.7102 57.2692 13.7102 57.2201 13.7594C57.171 13.8085 57.1219 13.8085 57.0728 13.8576L57.0237 13.9068C56.6798 14.2016 56.2869 14.4473 55.9431 14.7422C55.8449 14.7913 55.7466 14.8896 55.6975 14.9387L54.9608 15.5284L54.8625 15.6267L54.7643 15.6759C54.0767 16.2164 53.4381 16.8061 52.7505 17.3958C51.6699 18.3295 50.5894 19.3123 49.5088 20.3443C49.3614 20.4917 49.2141 20.59 49.1159 20.7374C46.3162 23.391 43.6639 26.2412 41.1589 29.1405C38.5066 32.1872 36.0017 35.3814 33.6441 38.5264C32.367 40.1481 31.2865 41.6223 30.3533 42.8508C28.5851 45.3079 27.6027 46.7821 27.6518 46.8313C27.6518 46.8313 27.8483 46.6838 28.0939 46.2907C27.8483 46.6347 27.6518 46.9787 27.4062 47.3227C31.2865 42.0154 35.707 36.5608 40.4713 31.3518C43.3692 28.1577 46.4144 25.1109 49.607 22.2116C50.9823 20.9339 52.4067 19.7054 53.8802 18.526C54.3222 18.1329 54.8134 17.7889 55.2555 17.3958C55.501 17.1992 55.7466 17.0518 55.9431 16.8552C56.0904 16.757 56.1887 16.6587 56.336 16.5604L57.0728 15.9707C57.3184 15.7741 57.5639 15.5776 57.8095 15.4301C57.9569 15.3319 58.0551 15.2336 58.2025 15.1353C58.4972 14.8896 58.841 14.693 59.1357 14.4473C59.3321 14.2999 59.5286 14.1525 59.7251 14.0542C60.3145 13.6119 60.953 13.2188 61.5424 12.8257C61.5915 12.7765 61.6406 12.7765 61.6898 12.7274C61.788 12.6783 61.8862 12.58 61.9844 12.5308C62.1318 12.4325 62.23 12.3834 62.3774 12.2851C62.4265 12.236 62.4756 12.236 62.5247 12.1868C62.623 12.1377 62.6721 12.0886 62.7703 12.0394C62.7703 12.0394 62.8194 12.0394 62.8194 11.9903H62.8685C63.1141 11.8429 63.4088 11.6463 63.6544 11.4989C63.7035 11.4497 63.7526 11.4497 63.8018 11.4006C63.9 11.3514 63.9491 11.3023 64.0473 11.2532C64.342 11.0566 64.6368 10.86 64.9806 10.6635C65.0788 10.6143 65.1279 10.5652 65.2262 10.516C65.2753 10.4669 65.3244 10.4669 65.3735 10.4178C65.4717 10.3686 65.5209 10.3195 65.6191 10.2703C65.9629 10.0738 66.3067 9.82807 66.6505 9.63151C66.9452 9.43494 67.2891 9.28752 67.5838 9.09096C69.352 8.10814 70.9728 7.2236 72.5445 6.53562C75.5407 5.06139 78.1439 4.22599 80.4524 3.83287Z" fill="white"/>
</g>
<defs>
<clipPath id="clip0_2703_15246">
<rect width="114" height="123" fill="white"/>
</clipPath>
</defs>
</svg>
