<svg width="110" height="110" viewBox="0 0 110 110" fill="none" xmlns="http://www.w3.org/2000/svg">
<path d="M0 27.5C0 12.3141 12.3141 0 27.5 0H82.5C97.6907 0 110 12.3141 110 27.5V82.5C110 97.6907 97.6859 110 82.5 110H27.5C12.3141 110 0 97.6858 0 82.5V27.5Z" fill="#FFDD34"/>
<path fill-rule="evenodd" clip-rule="evenodd" d="M73.1351 20.9678H63.1491L71.4708 35.5908L53.1631 20.9678H43.1771L52.3309 38.8377L33.1911 20.9678H23.2051L33.1911 43.7153L23.2051 89.2055H33.1911L52.3309 40.4684L43.1771 89.2055H53.1631L71.4708 37.2167L63.1491 89.2055H73.1351L91.4428 32.3391L73.1351 20.9678Z" fill="#1D1D1E"/>
</svg>
