<svg width="110" height="110" viewBox="0 0 110 110" fill="none" xmlns="http://www.w3.org/2000/svg">
<g clip-path="url(#clip0_2594_4526)">
<path d="M4.58398 4.70117H105.418V105.3H4.58398V4.70117Z" fill="url(#paint0_radial_2594_4526)"/>
<path d="M4.58328 4.70079H105.417V105.299H4.58328V4.70079ZM0 110H110V0H0V110ZM74.1585 45.1282C70.5376 45.1282 69.3002 47.0085 69.3002 48.5597C69.3002 50.252 70.1251 51.4273 74.9835 54.0128C82.1793 57.5855 84.4253 61.017 84.4253 66.047C84.4253 73.5683 78.8336 77.6111 71.271 77.6111C67.2835 77.6111 63.8459 76.7649 61.8751 75.5898C61.5543 75.4488 61.5085 75.2138 61.5085 74.8376V67.9273C61.5085 67.4573 61.7376 67.3161 62.0586 67.5513C64.9461 69.4788 68.246 70.3248 71.271 70.3248C74.8919 70.3248 76.4044 68.7735 76.4044 66.6581C76.4044 64.9658 75.3502 63.4615 70.7209 61.017C64.2125 57.8205 61.5085 54.577 61.5085 49.171C61.5085 43.1067 66.1378 38.0769 74.1585 38.0769C78.1002 38.0769 80.8502 38.6881 82.3627 39.3932C82.7293 39.6282 82.8209 40.0042 82.8209 40.3332V46.7733C82.8209 47.1493 82.5918 47.3845 82.1333 47.2433C80.1168 45.9274 77.1376 45.1282 74.1585 45.1282ZM34.7417 50.7222C35.7959 50.8162 36.621 50.8162 38.4542 50.8162C43.817 50.8162 48.8585 48.889 48.8585 41.4146C48.8585 35.4446 45.2376 32.4359 39.1418 32.4359C37.3086 32.4359 35.5668 32.5299 34.7417 32.5769V50.7222ZM26.5835 25.7606C26.5835 25.4316 27.2253 25.1964 27.5917 25.1964C30.5252 25.0554 34.8793 24.9614 39.4168 24.9614C52.1126 24.9614 57.0625 32.1067 57.0625 41.2264C57.0625 53.1665 48.6292 58.2905 38.2709 58.2905C36.5293 58.2905 35.9336 58.1965 34.6959 58.1965V76.2479C34.6959 76.6239 34.5584 76.8119 34.1459 76.8119H27.1334C26.7668 76.8119 26.5833 76.6709 26.5833 76.2479V25.7606H26.5835Z" fill="#31C5F0"/>
</g>
<defs>
<radialGradient id="paint0_radial_2594_4526" cx="0" cy="0" r="1" gradientUnits="userSpaceOnUse" gradientTransform="translate(37.7937 27.2454) scale(76.6335 76.0975)">
<stop stop-color="#34364E" stop-opacity="0.98"/>
<stop offset="1" stop-color="#0C0824"/>
</radialGradient>
<clipPath id="clip0_2594_4526">
<rect width="110" height="110" fill="white"/>
</clipPath>
</defs>
</svg>
