<svg width="145" height="129" viewBox="0 0 145 129" fill="none" xmlns="http://www.w3.org/2000/svg">
<path d="M144.824 64.5008C144.824 54.9069 132.81 45.8148 114.389 40.1765C118.64 21.4019 116.751 6.46484 108.426 1.68263C106.508 0.560876 104.264 0.0295194 101.814 0.0295194V6.61244C103.172 6.61244 104.264 6.87812 105.179 7.37996C109.194 9.68251 110.936 18.4499 109.578 29.7265C109.253 32.5013 108.722 35.4238 108.072 38.4053C102.286 36.9884 95.969 35.8961 89.327 35.1876C85.3419 29.7265 81.2091 24.7671 77.0468 20.4277C86.6703 11.4832 95.7033 6.58292 101.843 6.58292V0C93.7255 0 83.0984 5.78589 72.3531 15.8226C61.6079 5.84493 50.9808 0.11808 42.8628 0.11808V6.701C48.9734 6.701 58.036 11.5718 67.6595 20.4572C63.5267 24.7967 59.3939 29.7265 55.4678 35.1876C48.7963 35.8961 42.4791 36.9884 36.6932 38.4348C36.0142 35.4828 35.5124 32.6194 35.1581 29.8741C33.7707 18.5975 35.4829 9.83011 39.468 7.49804C40.3536 6.96668 41.5049 6.73052 42.8628 6.73052V0.147599C40.3831 0.147599 38.1396 0.678956 36.1913 1.80071C27.8962 6.58292 26.0365 21.4904 30.3169 40.206C11.9555 45.8738 0 54.9364 0 64.5008C0 74.0948 12.0146 83.1869 30.435 88.8252C26.1841 107.6 28.0734 122.537 36.398 127.319C38.3168 128.441 40.5603 128.972 43.0399 128.972C51.1579 128.972 61.785 123.186 72.5303 113.15C83.2755 123.127 93.9026 128.854 102.021 128.854C104.5 128.854 106.744 128.323 108.692 127.201C116.987 122.419 118.847 107.511 114.567 88.7957C132.869 83.1574 144.824 74.0653 144.824 64.5008ZM106.39 44.8111C105.297 48.6192 103.939 52.5453 102.404 56.4714C101.194 54.1099 99.9247 51.7483 98.5372 49.3867C97.1793 47.0251 95.7329 44.7226 94.2864 42.479C98.4782 43.099 102.522 43.8665 106.39 44.8111ZM92.8694 76.2497C90.5669 80.2349 88.2053 84.0135 85.7551 87.5263C81.3567 87.9101 76.8992 88.1167 72.4122 88.1167C67.9547 88.1167 63.4972 87.9101 59.1283 87.5558C56.6781 84.043 54.287 80.294 51.9844 76.3383C49.7409 72.4712 47.7041 68.5451 45.8443 64.5894C47.6745 60.6337 49.7409 56.6781 51.9549 52.811C54.2575 48.8258 56.6191 45.0473 59.0692 41.5344C63.4677 41.1507 67.9252 40.944 72.4122 40.944C76.8697 40.944 81.3272 41.1507 85.6961 41.5049C88.1462 45.0178 90.5374 48.7668 92.8399 52.7224C95.0834 56.5895 97.1203 60.5157 98.98 64.4713C97.1203 68.427 95.0834 72.3826 92.8694 76.2497ZM102.404 72.4122C103.998 76.3678 105.356 80.3235 106.478 84.1611C102.611 85.1057 98.5372 85.9027 94.3159 86.5226C95.7624 84.2496 97.2089 81.9175 98.5668 79.5264C99.9247 77.1649 101.194 74.7737 102.404 72.4122ZM72.4712 103.91C69.7259 101.076 66.9805 97.9173 64.2647 94.4635C66.9215 94.5816 69.6373 94.6701 72.3827 94.6701C75.1575 94.6701 77.9029 94.6111 80.5892 94.4635C77.9324 97.9173 75.187 101.076 72.4712 103.91ZM50.5084 86.5226C46.3166 85.9027 42.2724 85.1352 38.4053 84.1906C39.4975 80.3825 40.8555 76.4564 42.3905 72.5302C43.6008 74.8918 44.8702 77.2534 46.2576 79.615C47.645 81.9766 49.062 84.2791 50.5084 86.5226ZM72.3236 25.0919C75.069 27.9258 77.8143 31.0844 80.5301 34.5382C77.8733 34.4201 75.1575 34.3316 72.4122 34.3316C69.6373 34.3316 66.892 34.3906 64.2057 34.5382C66.8624 31.0844 69.6078 27.9258 72.3236 25.0919ZM50.4789 42.479C49.0325 44.7521 47.586 47.0841 46.2281 49.4753C44.8702 51.8368 43.6008 54.1984 42.3905 56.56C40.7964 52.6044 39.4385 48.6487 38.3168 44.8111C42.1839 43.896 46.2576 43.099 50.4789 42.479ZM23.7635 79.4379C13.3135 74.9804 6.5534 69.1355 6.5534 64.5008C6.5534 59.8662 13.3135 53.9918 23.7635 49.5638C26.3022 48.4716 29.077 47.4974 31.9405 46.5823C33.6231 52.3682 35.8371 58.3902 38.5824 64.5599C35.8666 70.7 33.6821 76.6925 32.029 82.4489C29.1066 81.5338 26.3317 80.5301 23.7635 79.4379ZM39.6452 121.622C35.6305 119.319 33.8888 110.552 35.2467 99.2752C35.5714 96.5004 36.1028 93.5779 36.7522 90.5964C42.5381 92.0133 48.8553 93.1056 55.4973 93.814C59.4825 99.2752 63.6153 104.235 67.7776 108.574C58.1541 117.518 49.121 122.419 42.9809 122.419C41.6525 122.389 40.5307 122.124 39.6452 121.622ZM109.666 99.1276C111.054 110.404 109.341 119.172 105.356 121.504C104.471 122.035 103.319 122.271 101.962 122.271C95.8509 122.271 86.7883 117.4 77.1649 108.515C81.2977 104.176 85.4304 99.2457 89.3566 93.7845C96.0281 93.076 102.345 91.9838 108.131 90.5373C108.81 93.5189 109.341 96.3823 109.666 99.1276ZM121.031 79.4379C118.493 80.5301 115.718 81.5043 112.854 82.4194C111.172 76.6335 108.958 70.6115 106.212 64.4418C108.928 58.3017 111.113 52.3092 112.766 46.5528C115.688 47.4679 118.463 48.4716 121.061 49.5638C131.511 54.0213 138.271 59.8662 138.271 64.5008C138.241 69.1355 131.481 75.0099 121.031 79.4379Z" fill="#61DAFB"/>
<path d="M72.3831 77.9914C79.8338 77.9914 85.8737 71.9515 85.8737 64.5008C85.8737 57.0502 79.8338 51.0103 72.3831 51.0103C64.9325 51.0103 58.8926 57.0502 58.8926 64.5008C58.8926 71.9515 64.9325 77.9914 72.3831 77.9914Z" fill="#61DAFB"/>
</svg>
