<svg width="157" height="95" viewBox="0 0 157 95" fill="none" xmlns="http://www.w3.org/2000/svg">
<path d="M34.2305 0.761899C34.7055 0.16295 35.5176 0.0149905 36.2387 0.00218636C56.6185 0.00360904 76.9984 0.00218636 97.3783 0.00218636C100.983 0.0121451 104.589 -0.0205766 108.193 0.0249493C109.946 0.1473 111.708 0.150145 113.455 0.370661C119.325 0.932621 125.138 2.3297 130.541 4.71554C134.723 6.58921 138.656 9.05187 142.072 12.1178C146.088 15.6844 149.4 20.0336 151.821 24.8266C154.743 30.55 156.387 36.8952 156.861 43.2887C156.942 44.3301 156.879 45.3801 156.99 46.4186C157.003 46.7131 157.003 47.0076 156.99 47.3036C156.854 48.3293 156.99 49.3807 156.811 50.4022C156.569 54.1922 155.729 57.9281 154.585 61.5418C153.978 63.313 153.327 65.0743 152.526 66.7673C151.899 68.18 151.177 69.5515 150.401 70.8888C146.189 78.2483 139.946 84.4484 132.498 88.5144C131.073 89.3069 129.606 90.0282 128.102 90.6556C125.436 91.8065 122.659 92.6815 119.842 93.3729C119.571 93.4369 119.298 93.4895 119.03 93.5521C118.111 93.7001 117.219 93.9804 116.293 94.0856C115.969 94.1554 115.638 94.1852 115.316 94.2592C113.647 94.4385 111.991 94.7429 110.309 94.7842C109.332 94.9549 108.329 94.8297 107.345 94.9521C105.825 95.0531 104.299 94.9677 102.781 94.9378C101.515 94.834 100.233 94.9506 98.9739 94.7813C96.3998 94.7074 93.8384 94.4043 91.2785 94.1511C89.4211 93.9533 87.5808 93.6332 85.7334 93.37C83.7438 93.0158 81.7456 92.6943 79.7802 92.2162C79.6195 92.1878 79.4602 92.1608 79.3023 92.1351C78.0309 91.852 76.7595 91.5675 75.5051 91.2218C73.7316 90.8192 71.988 90.2913 70.2388 89.7991C66.689 88.7406 63.1819 87.5456 59.7189 86.2324C59.241 86.056 58.7689 85.8668 58.301 85.6676C58.0549 85.5823 57.8117 85.4912 57.5728 85.3959C57.1049 85.1967 56.6285 85.0203 56.162 84.8197C55.6202 84.6191 55.1025 84.3644 54.5606 84.1638C52.3747 83.2363 50.2002 82.2845 48.0584 81.2587C43.0751 78.9028 38.2198 76.2608 33.6261 73.2092C30.9297 71.4081 28.3157 69.4689 25.9179 67.2837C25.221 66.6435 24.4872 65.8127 24.6152 64.7912C24.591 64.151 25.0432 63.6488 25.5495 63.3244C25.9648 63.1793 26.3972 63.0712 26.8409 63.0811C35.2815 63.0811 43.7208 63.0783 52.1614 63.0825C52.9934 63.0953 53.9448 62.9744 54.5308 62.3186C55.0627 61.7694 55.1267 60.8589 54.737 60.213C54.3729 59.5884 53.7557 59.1645 53.1242 58.8429C47.7825 56.2579 42.5318 53.4837 37.3451 50.5999C31.1088 47.1129 24.9579 43.4652 19.0018 39.5172C13.1311 35.5792 7.38971 31.3837 2.32105 26.4342C1.51752 25.5792 0.504924 24.8138 0.14369 23.6472C-0.180567 22.7352 0.0356043 21.5701 0.877536 21.0109C1.30135 20.6667 1.86026 20.5685 2.39358 20.5756C20.9772 20.577 39.5609 20.577 58.1445 20.5756C58.9296 20.523 59.8014 20.4362 60.3745 19.8301C60.8623 19.3621 60.8467 18.628 60.7542 18.0105C60.6248 17.5496 60.2465 17.2038 59.8782 16.9236C58.9608 16.299 57.8743 16.0003 56.8759 15.5322C54.2207 14.4438 51.594 13.2829 49.0056 12.0395C47.4355 11.2969 45.891 10.5016 44.3423 9.71484C41.057 7.97063 37.7917 6.14533 34.8449 3.8605C34.2704 3.42516 33.848 2.77926 33.7811 2.05085C33.8608 1.60128 33.9063 1.11472 34.2305 0.761899ZM110.892 13.6571C109.128 13.5931 107.372 13.7937 105.623 13.9815C104.218 14.1778 102.834 14.4808 101.458 14.828C99.0067 15.5251 96.6188 16.4541 94.3746 17.6648C88.4683 20.8488 83.5162 25.8068 80.4401 31.7792C78.0721 36.3347 76.768 41.4606 76.7922 46.6007L76.7353 46.6989C76.7196 47.7531 76.8448 48.8031 76.886 49.8573C77.2345 53.6885 78.2314 57.4644 79.8584 60.9542C83.1707 68.1928 89.1538 74.1325 96.3657 77.4829C99.4916 78.8857 102.815 79.9001 106.228 80.2685L106.315 80.3283C106.841 80.3511 107.368 80.3795 107.89 80.4535C112.071 80.7537 116.295 80.2515 120.308 79.0493C121.109 78.7548 121.924 78.503 122.717 78.1914C129.542 75.4741 135.42 70.4278 139.084 64.0528C142.764 57.7987 144.256 50.3396 143.495 43.1379C143.403 42.768 143.389 42.3868 143.345 42.0098C143.173 40.809 142.914 39.6239 142.635 38.4431L142.577 38.3577C142.141 36.4755 141.45 34.6531 140.652 32.896C138.188 27.4998 134.221 22.7993 129.315 19.4659C125.374 16.777 120.844 14.9361 116.134 14.1693C115.773 14.0754 115.397 14.0626 115.035 13.9772C113.655 13.8534 112.278 13.6614 110.892 13.6571Z" fill="#FF622D"/>
<path d="M109.75 22.6214C115.348 22.4265 121.004 24.1906 125.481 27.5666C131.144 31.7877 134.975 38.5298 135.324 45.6219L135.385 45.7087C135.423 46.568 135.408 47.4287 135.247 48.2752C135.038 48.9453 134.583 49.5556 133.923 49.8316C132.889 50.2371 131.758 50.2684 130.663 50.2812C129.759 50.3509 128.854 50.2456 127.954 50.1702C127.25 50.0223 126.468 49.853 125.997 49.2597C125.556 48.7461 125.395 48.0732 125.245 47.4315C125.05 46.1967 124.9 44.9518 124.598 43.7368C123.992 41.526 123.012 39.3991 121.588 37.5937C120.155 35.7641 118.296 34.2689 116.18 33.3043C114.474 32.5275 112.631 32.0666 110.765 31.9158C110.425 31.8788 110.087 31.8489 109.75 31.8133C109.025 31.6113 108.271 31.2798 107.887 30.5927C107.486 29.823 107.399 28.9338 107.362 28.0802C107.361 26.8055 107.285 25.5009 107.649 24.2603C107.881 23.3085 108.779 22.6328 109.75 22.6214Z" fill="#FF622D"/>
</svg>
