<svg width="111" height="100" viewBox="0 0 111 100" fill="none" xmlns="http://www.w3.org/2000/svg">
<g clip-path="url(#clip0_2594_4539)">
<path fill-rule="evenodd" clip-rule="evenodd" d="M22.4426 35.9319L55.117 99.8854L0.197266 35.9319H22.4426Z" fill="#EA6C00"/>
<path fill-rule="evenodd" clip-rule="evenodd" d="M87.8015 35.9319L55.1271 99.8854L110.047 35.9319H87.8015Z" fill="#EA6C00"/>
<path fill-rule="evenodd" clip-rule="evenodd" d="M22.4434 35.9316H87.7922L55.1178 99.8851L22.4434 35.9316Z" fill="#FDAD00"/>
<path fill-rule="evenodd" clip-rule="evenodd" d="M55.1178 0.488281L24.1631 3.76037L22.4434 35.9313L55.1178 0.488281Z" fill="#FDD231"/>
<path fill-rule="evenodd" clip-rule="evenodd" d="M55.1166 0.488281L86.0712 3.76037L87.791 35.9313L55.1166 0.488281Z" fill="#FDD231"/>
<path fill-rule="evenodd" clip-rule="evenodd" d="M110.047 35.9319L86.0818 3.76099L87.8015 35.9319H110.047Z" fill="#FDAD00"/>
<path fill-rule="evenodd" clip-rule="evenodd" d="M0.197266 35.9319L24.1624 3.76099L22.4426 35.9319H0.197266Z" fill="#FDAD00"/>
<path fill-rule="evenodd" clip-rule="evenodd" d="M55.1178 0.488281L22.4434 35.9313H87.7922L55.1178 0.488281Z" fill="#FEEEB7"/>
</g>
<defs>
<clipPath id="clip0_2594_4539">
<rect width="110.465" height="100" fill="white"/>
</clipPath>
</defs>
</svg>
