<svg width="113" height="114" viewBox="0 0 113 114" fill="none" xmlns="http://www.w3.org/2000/svg">
<path fill-rule="evenodd" clip-rule="evenodd" d="M98.9317 0H14.1331C12.2756 -1.4957e-06 10.4363 0.366155 8.72046 1.07753C7.00458 1.78891 5.44577 2.83155 4.13315 4.14583C2.82054 5.46011 1.77988 7.02025 1.07068 8.73702C0.361478 10.4538 -0.00234585 12.2935 1.13814e-05 14.151V98.9496C1.13814e-05 102.698 1.48903 106.293 4.1395 108.943C6.78997 111.594 10.3848 113.083 14.1331 113.083H98.9317C102.668 113.064 106.244 111.566 108.879 108.918C111.514 106.27 112.993 102.686 112.993 98.9496V14.169C112.993 10.433 111.514 6.84906 108.879 4.20064C106.244 1.55222 102.668 0.0548349 98.9317 0.0358708V0ZM49.1789 85.6595C49.16 87.4451 48.4374 89.1511 47.168 90.4071C45.8986 91.663 44.185 92.3674 42.3993 92.3673H21.5225C19.7306 92.3769 18.0078 91.6767 16.7307 90.4197C15.4535 89.1628 14.726 87.4513 14.707 85.6595V21.5225C14.7047 20.6276 14.8795 19.7412 15.2213 18.9142C15.5632 18.0873 16.0654 17.3362 16.699 16.7043C17.3326 16.0723 18.085 15.5721 18.9129 15.2324C19.7407 14.8927 20.6277 14.7202 21.5225 14.725H42.3993C44.1974 14.725 45.9218 15.4392 47.1932 16.7107C48.4646 17.9821 49.1789 19.7065 49.1789 21.5045V85.6595ZM98.3757 57.3933C98.3757 59.1913 97.6614 60.9158 96.39 62.1872C95.1186 63.4586 93.3942 64.1729 91.5961 64.1729H70.6655C68.8674 64.1729 67.143 63.4586 65.8716 62.1872C64.6002 60.9158 63.8859 59.1913 63.8859 57.3933V21.5225C63.8836 20.6307 64.0572 19.7472 64.3968 18.9225C64.7365 18.0979 65.2355 17.3484 65.8653 16.717C66.495 16.0856 67.2432 15.5846 68.0669 15.2427C68.8906 14.9009 69.7737 14.725 70.6655 14.725H91.5961C93.3942 14.725 95.1186 15.4392 96.39 16.7107C97.6614 17.9821 98.3757 19.7065 98.3757 21.5045V57.3933Z" fill="#2582FD"/>
</svg>
