<svg width="108" height="108" viewBox="0 0 108 108" fill="none" xmlns="http://www.w3.org/2000/svg">
<g clip-path="url(#clip0_2930_14842)">
<path d="M0 54V0H108V108H0" fill="#007ACC"/>
<path d="M23.6797 54.1891V58.5901H37.7197V98.5501H47.6827V58.5901H61.7227V54.2701C61.7227 51.8401 61.7227 49.8691 61.6147 49.8151C61.6147 49.7341 53.0557 49.7071 42.6607 49.7071L23.7607 49.7881V54.2161L23.6797 54.1891ZM86.7787 49.6801C89.5327 50.3281 91.6387 51.5701 93.5287 53.5411C94.5277 54.6211 96.0127 56.5111 96.1207 56.9971C96.1207 57.1591 91.4497 60.3181 88.6147 62.0731C88.5067 62.1541 88.0747 61.6951 87.6427 60.9931C86.2387 58.9951 84.8077 58.1311 82.5667 57.9691C79.3267 57.7531 77.1667 59.4541 77.1667 62.2891C77.1667 63.1531 77.3287 63.6391 77.6527 64.3411C78.3817 65.8261 79.7317 66.7171 83.9167 68.5531C91.6387 71.8741 94.9867 74.0611 97.0117 77.1931C99.3067 80.7031 99.8197 86.2111 98.2807 90.3421C96.5527 94.8511 92.3407 97.9021 86.3197 98.9011C84.4297 99.2251 80.1097 99.1711 78.0847 98.8201C73.7647 98.0101 69.6337 95.8501 67.0957 93.0691C66.0967 91.9891 64.1797 89.1001 64.2877 88.9111L65.3137 88.2631L69.3637 85.9141L72.4147 84.1321L73.1167 85.0771C74.0077 86.4811 76.0057 88.3711 77.1667 89.0191C80.6767 90.8281 85.3747 90.5851 87.6967 88.4791C88.6957 87.5611 89.1277 86.5891 89.1277 85.2391C89.1277 83.9971 88.9387 83.4301 88.3177 82.4851C87.4537 81.2971 85.7257 80.3251 80.8657 78.1651C75.2767 75.7891 72.9007 74.2771 70.6867 71.9551C69.4177 70.5511 68.2567 68.3641 67.7167 66.5551C67.3117 64.9891 67.1767 61.1551 67.5547 59.6161C68.7157 54.2161 72.7927 50.4361 78.6247 49.3561C80.5147 48.9781 84.9697 49.1401 86.8327 49.6261L86.7787 49.6801Z" fill="white"/>
</g>
<defs>
<clipPath id="clip0_2930_14842">
<rect width="108" height="108" rx="4" fill="white"/>
</clipPath>
</defs>
</svg>
