<svg width="118" height="97" viewBox="0 0 118 97" fill="none" xmlns="http://www.w3.org/2000/svg">
<path d="M37.1097 97C81.6403 97 105.992 59.6851 105.992 27.3269C105.992 26.2672 105.971 25.2122 105.924 24.1617C110.662 20.694 114.751 16.4001 118 11.4815C113.662 13.432 108.994 14.7448 104.098 15.3368C109.095 12.3049 112.933 7.5096 114.743 1.79269C109.991 4.64444 104.792 6.65465 99.3701 7.73669C94.9523 2.97701 88.6631 0 81.6985 0C68.329 0 57.4874 10.9664 57.4874 24.4841C57.4874 26.4058 57.7 28.2749 58.1154 30.0676C37.9943 29.0435 20.1524 19.2995 8.21158 4.48293C6.06097 8.21965 4.92969 12.4669 4.93336 16.7907C4.93336 25.2863 9.20744 32.7863 15.7069 37.1739C11.8624 37.0553 8.10228 36.005 4.74251 34.1112C4.73894 34.2141 4.73894 34.3143 4.73894 34.424C4.73894 46.2832 13.084 56.1846 24.1616 58.4283C22.081 59.0015 19.9341 59.2914 17.7778 59.2902C16.2507 59.2891 14.7271 59.1412 13.2277 58.8484C16.3099 68.5781 25.2473 75.6583 35.8434 75.8562C27.5574 82.4254 17.1193 86.338 5.7748 86.338C3.82307 86.338 1.8951 86.2258 0 85.9991C10.7145 92.9456 23.4369 96.9988 37.1109 96.9988" fill="#1DA1F2"/>
</svg>
