<svg width="126" height="125" viewBox="0 0 126 125" fill="none" xmlns="http://www.w3.org/2000/svg">
<path d="M3.60261 44.6836C3.60261 44.6836 0.619922 42.5116 4.19915 39.6113L12.5383 32.0782C12.5383 32.0782 14.9244 29.542 17.4473 31.7517L94.4007 90.6107V118.835C94.4007 118.835 94.3634 123.267 88.7336 122.777L3.60261 44.6836Z" fill="#2489CA"/>
<path d="M23.4361 62.877L3.60117 81.0946C3.60117 81.0946 1.56299 82.6264 3.60117 85.3634L12.8102 93.8256C12.8102 93.8256 14.9975 96.1986 18.2288 93.4992L39.2568 77.3908L23.4361 62.877Z" fill="#1070B3"/>
<path d="M58.26 63.0274L94.6365 34.9664L94.4003 6.89291C94.4003 6.89291 92.8468 0.76595 87.6644 3.95498L39.2578 48.4633L58.26 63.0274Z" fill="#0877B9"/>
<path d="M88.7329 122.815C90.8456 125 93.4057 124.284 93.4057 124.284L121.754 110.172C125.383 107.674 124.873 104.573 124.873 104.573V20.3017C124.873 16.5979 121.12 15.3173 121.12 15.3173L96.55 3.35214C91.1812 -0.000109196 87.6641 3.95479 87.6641 3.95479C87.6641 3.95479 92.1878 0.665319 94.4 6.89272V118.321C94.4 119.086 94.2384 119.84 93.9153 120.518C93.269 121.836 91.8647 123.066 88.4967 122.552L88.7329 122.815Z" fill="#3C99D4"/>
</svg>
