<svg width="110" height="110" viewBox="0 0 110 110" fill="none" xmlns="http://www.w3.org/2000/svg">
<g clip-path="url(#clip0_2594_4535)">
<path d="M4.58398 4.71094H105.417V105.289H4.58398V4.71094Z" fill="#2E001E"/>
<path d="M0 0.0117188V109.989H110V0.0117188H0ZM4.58333 4.71161H105.417V105.289H4.58333V4.71161Z" fill="#FF2BC2"/>
<path d="M79.8867 46.2112C79.1992 45.8822 78.3283 45.7412 77.2283 45.7412C71.4533 45.7412 67.6033 50.3001 67.6033 57.867C67.6033 66.5148 71.545 69.9927 76.6783 69.9927C77.7783 69.9927 78.97 69.8517 79.8408 69.4757V46.2112H79.8867ZM59.3533 58.243C59.3533 47.2922 66.2283 38.7384 77.5033 38.7384C78.4658 38.7384 78.97 38.7384 79.8867 38.8324V26.6127C79.8867 26.3307 80.1158 26.1427 80.345 26.1427H87.7242C88.0908 26.1427 88.1825 26.2837 88.1825 26.5187V69.4757C88.1825 70.7447 88.1825 72.3426 88.4117 74.0816C88.4117 74.4106 88.4117 74.4576 88.1367 74.5986C84.2867 76.4785 80.2533 77.3245 76.4033 77.3245C66.4575 77.3245 59.3533 71.0267 59.3533 58.243ZM43.7242 50.6291L56.5575 76.1495C56.7867 76.5255 56.6492 76.9015 56.2825 76.9015H48.3075C47.8033 76.9015 47.5742 76.7605 47.345 76.2905C44.4117 70.0867 41.4325 63.6478 38.3617 56.974H38.27C35.52 63.2718 32.495 70.1337 29.5617 76.3375C29.3325 76.7135 29.1033 76.8545 28.7367 76.8545H21.1283C20.67 76.8545 20.6242 76.4785 20.8533 76.1965L33.4117 51.4281L21.2658 26.8007C20.9908 26.4247 21.2658 26.0957 21.5867 26.0957H29.47C29.9283 26.0957 30.1575 26.1897 30.295 26.6127C33.1825 32.8635 36.1158 39.0204 38.8658 45.3183H38.9575C41.6158 39.1144 44.5492 32.8635 47.345 26.7067C47.5742 26.3307 47.7117 26.0957 48.17 26.0957H55.5492C55.9158 26.0957 56.0533 26.3777 55.8242 26.8007L43.7242 50.6291Z" fill="#FF2BC2"/>
</g>
<defs>
<clipPath id="clip0_2594_4535">
<rect width="110" height="110" fill="white"/>
</clipPath>
</defs>
</svg>
