<svg width="50" height="50" viewBox="0 0 50 50" fill="none" xmlns="http://www.w3.org/2000/svg">
<path d="M35.7881 2.07702L35.7882 2.07714L35.7934 2.07153C35.9732 1.87534 36.2184 1.77656 36.47 1.77656C36.7218 1.77656 36.9796 1.87573 37.1809 2.07702L48.196 13.1318L48.1959 13.1319L48.2018 13.1373C48.5917 13.4947 48.5998 14.1213 48.1963 14.5248C47.9947 14.7264 47.7269 14.8253 47.4998 14.8253C47.2728 14.8253 47.005 14.7264 46.8034 14.5248L44.3033 12.0247L44.122 11.8434L44.0192 12.0783C43.465 13.345 43.1085 14.6924 42.9897 16.1187C42.7533 18.9165 43.3042 22.6469 43.5385 24.0524L43.5384 24.0524L43.5395 24.0579C43.6184 24.4527 43.661 24.7202 43.6395 24.9391C43.6196 25.143 43.5429 25.3115 43.3531 25.5013C43.2442 25.6101 43.1147 25.7015 43.0041 25.7291L42.9966 25.731L42.9892 25.7336L16.7415 34.834C16.7412 34.8341 16.7409 34.8342 16.7405 34.8343C16.6279 34.8718 16.4941 34.9036 16.4062 34.9036C16.0088 34.9036 15.6094 34.6355 15.4782 34.242L15.4783 34.242L15.4767 34.2375C15.3447 33.8745 15.4433 33.4762 15.7097 33.2097C15.7097 33.2096 15.7098 33.2096 15.7098 33.2095L30.6312 18.327L30.6314 18.3272L30.6367 18.3214C30.9941 17.9314 31.6215 17.9233 32.025 18.3269L32.0249 18.327L32.0305 18.3321C32.4205 18.6896 32.4285 19.3169 32.025 19.7205L20.7358 31.0089L20.917 31.2979L41.4637 24.15L41.6026 24.1017L41.579 23.9566C41.3055 22.2764 40.8013 18.7026 41.0723 15.9152L41.0726 15.9122C41.2269 13.9835 41.7674 12.1705 42.6554 10.4717L42.715 10.3578L42.624 10.2669L40.0453 7.68889L39.9583 7.60195L39.8471 7.65431C37.8716 8.58391 35.8211 9.16403 33.8118 9.3573C31.2203 9.58926 27.9998 9.08573 26.3966 8.81202L26.2502 8.78702L26.2017 8.92748L20.733 24.7867L20.7324 24.7884C20.6012 25.1819 20.2019 25.45 19.8044 25.45C19.7159 25.45 19.5811 25.4185 19.4691 25.3812L19.4691 25.3811L19.466 25.3801C18.9423 25.2165 18.6708 24.6576 18.8385 24.117L24.6184 7.32257L24.6209 7.31541L24.6227 7.30807C24.6504 7.19766 24.7415 7.06897 24.8506 6.95983C25.036 6.77441 25.2118 6.70453 25.4143 6.68834C25.6311 6.67103 25.8796 6.71427 26.2188 6.77412C27.5056 7.00808 30.965 7.59879 33.6088 7.36216C35.5081 7.2038 37.1277 6.65006 38.1909 6.21691L38.4349 6.11748L38.2486 5.93112L35.7881 3.46987L35.7882 3.46976L35.7826 3.4646C35.3927 3.10713 35.3846 2.48056 35.7881 2.07702ZM4.8625 17.8125V17.6729L4.72641 17.6419C2.57843 17.152 0.95625 15.1909 0.95625 12.8908C0.95625 10.1749 3.14352 7.98765 5.85938 7.98765C8.57523 7.98765 10.7625 10.1749 10.7625 12.8908C10.7625 15.1887 9.14207 17.1139 6.98951 17.6426L6.85625 17.6753V17.8125V20.7033C6.85625 33.0656 16.9346 43.1439 29.2969 43.1439H32.1877H32.3272L32.3583 43.0078C32.8482 40.8598 34.8093 39.2377 37.1094 39.2377C39.8252 39.2377 42.0125 41.4249 42.0125 44.1408C42.0125 46.8566 39.8252 49.0439 37.1094 49.0439C34.8114 49.0439 32.8863 47.4235 32.3576 45.2709L32.3249 45.1377H32.1877H29.2969C15.8388 45.1377 4.8625 34.1613 4.8625 20.7033V17.8125ZM35.7484 13.2098L35.7486 13.21L35.7537 13.2043C35.9335 13.0082 36.1787 12.9094 36.4304 12.9094C36.6823 12.9094 36.9408 13.0086 37.142 13.2098L37.1419 13.21L37.1475 13.2151C37.5375 13.5726 37.5456 14.1991 37.142 14.6027L35.9702 15.7745C35.7686 15.9761 35.5008 16.075 35.2737 16.075C35.0466 16.075 34.778 15.976 34.5766 15.7745L34.5767 15.7744L34.5711 15.7693C34.1811 15.4118 34.173 14.7852 34.5766 14.3817L35.7484 13.2098ZM8.76875 12.8908C8.76875 11.2707 7.47946 9.9814 5.85938 9.9814C4.23929 9.9814 2.95 11.2707 2.95 12.8908C2.95 14.5109 4.23929 15.8002 5.85938 15.8002C7.47946 15.8002 8.76875 14.5109 8.76875 12.8908ZM40.0187 44.1408C40.0187 42.5207 38.7295 41.2314 37.1094 41.2314C35.4893 41.2314 34.2 42.5207 34.2 44.1408C34.2 45.7609 35.4893 47.0502 37.1094 47.0502C38.7295 47.0502 40.0187 45.7609 40.0187 44.1408Z" fill="black" stroke="white" stroke-width="0.35"/>
</svg>
