<svg width="50" height="50" viewBox="0 0 50 50" fill="none" xmlns="http://www.w3.org/2000/svg">
<g clip-path="url(#clip0_2163_2599)">
<path d="M47.2656 11.5031H47.4406V11.3281V5.46875C47.4406 3.84866 46.1513 2.55938 44.5312 2.55938H5.46875C3.84866 2.55938 2.55938 3.84866 2.55938 5.46875V11.3281V11.5031H2.73438H47.2656ZM2.73438 13.4969H2.55938V13.6719V44.5312C2.55938 46.1513 3.84866 47.4406 5.46875 47.4406H44.5312C46.1513 47.4406 47.4406 46.1513 47.4406 44.5312V13.6719V13.4969H47.2656H2.73438ZM20.8281 38.7722L20.8282 38.7719L27.2734 21.468C27.4249 21.064 27.7811 20.8164 28.1708 20.8009C28.3012 20.7958 28.4371 20.8165 28.5717 20.867C29.1085 21.0683 29.3715 21.6331 29.1719 22.1653L29.1717 22.1658L22.7271 39.5078C22.727 39.5081 22.7269 39.5084 22.7268 39.5087C22.5621 39.9357 22.1324 40.1715 21.6931 40.1377L21.6931 40.1372H21.6797C21.6188 40.1372 21.5824 40.1243 21.5072 40.0977C21.4842 40.0896 21.4576 40.0802 21.4255 40.0695C20.8905 39.8672 20.6289 39.3035 20.8281 38.7722ZM35.157 30.5588L35.2977 30.4299L35.157 30.3008L31.4072 26.863L31.2889 26.992L31.4072 26.863C31.0083 26.4974 30.9769 25.8661 31.3401 25.47C31.5222 25.2713 31.7711 25.1629 32.0254 25.1504C32.2796 25.1379 32.5354 25.2209 32.7331 25.4021C32.7331 25.4021 32.7331 25.4021 32.7332 25.4021L37.4595 29.7386L37.4594 29.7388L37.4658 29.7441C37.6576 29.904 37.7934 30.2046 37.7934 30.4688C37.7934 30.7232 37.665 30.992 37.4567 31.2015L32.7331 35.5354L32.733 35.5353L32.7277 35.5406C32.5327 35.7356 32.3074 35.8014 32.0702 35.8014C31.8032 35.8014 31.5419 35.7025 31.3444 35.4725C30.9758 35.0365 31.0069 34.399 31.41 33.9932L35.157 30.5588ZM17.2663 25.4423L17.2668 25.4418C17.4647 25.2604 17.7207 25.1768 17.9746 25.1893C18.2289 25.2018 18.4778 25.3102 18.6599 25.5089C19.0231 25.9051 18.9917 26.5363 18.5928 26.9019L18.7111 27.0309L18.5928 26.902L14.843 30.3398L14.7031 30.468L14.8423 30.5971L18.5921 34.0738L18.5928 34.0745C18.9917 34.4401 19.0231 35.0714 18.6599 35.4675L18.6598 35.4675L18.656 35.4719C18.4585 35.7024 18.197 35.8014 17.9298 35.8014C17.7076 35.8014 17.4737 35.7065 17.2638 35.5325L12.5405 31.1989L12.5406 31.1987L12.5342 31.1934C12.3424 31.0335 12.2066 30.7329 12.2066 30.4688C12.2066 30.2144 12.3349 29.9457 12.5431 29.7363L17.2663 25.4423ZM0.565625 5.46875C0.565625 2.7529 2.7529 0.565625 5.46875 0.565625H44.5312C47.2471 0.565625 49.4344 2.7529 49.4344 5.46875V44.5312C49.4344 47.2471 47.2471 49.4344 44.5312 49.4344H5.46875C2.7529 49.4344 0.565625 47.2471 0.565625 44.5312V10.9375V5.46875ZM6.03438 7.03125C6.03438 6.46384 6.46384 6.03438 7.03125 6.03438H8.59375C9.16116 6.03438 9.59062 6.46384 9.59062 7.03125C9.59062 7.59866 9.16116 8.02812 8.59375 8.02812H7.03125C6.46384 8.02812 6.03438 7.59866 6.03438 7.03125ZM12.2844 7.03125C12.2844 6.46384 12.7138 6.03438 13.2812 6.03438H14.8438C15.4112 6.03438 15.8406 6.46384 15.8406 7.03125C15.8406 7.59866 15.4112 8.02812 14.8438 8.02812H13.2812C12.7138 8.02812 12.2844 7.59866 12.2844 7.03125Z" fill="black" stroke="white" stroke-width="0.35"/>
</g>
<defs>
<clipPath id="clip0_2163_2599">
<rect width="50" height="50" fill="white"/>
</clipPath>
</defs>
</svg>
