<svg width="50" height="50" viewBox="0 0 50 50" fill="none" xmlns="http://www.w3.org/2000/svg">
<path d="M12.2526 33.835L12.1373 33.9053L12.1761 34.0347C12.2871 34.4045 12.325 34.7772 12.325 35.1562C12.325 37.8721 10.1377 40.0594 7.42188 40.0594C4.70602 40.0594 2.51875 37.8721 2.51875 35.1562C2.51875 32.4404 4.70602 30.2531 7.42188 30.2531C8.93171 30.2531 10.2885 30.9326 11.1538 31.9861L11.2498 32.103L11.3794 32.0249L14.4263 30.189L14.4263 30.189L14.4306 30.1863C14.8866 29.8931 15.4847 30.0489 15.7903 30.5243C16.0831 30.9798 15.928 31.577 15.454 31.8829C15.4534 31.8833 15.4528 31.8837 15.4522 31.884L12.2526 33.835ZM37.8592 16.5978L37.9911 16.5237L37.9368 16.3825C37.7509 15.8992 37.675 15.3745 37.675 14.8438C37.675 12.1279 39.9013 9.90156 42.6172 9.90156C45.333 9.90156 47.5203 12.0888 47.5203 14.8047C47.5203 17.5205 45.333 19.7078 42.6172 19.7078C41.2584 19.7078 40.0527 19.1802 39.1472 18.2747L39.0525 18.18L38.9364 18.2466L35.7356 20.0812C35.2299 20.3494 34.6352 20.1779 34.3719 19.72C34.1033 19.2137 34.2756 18.6181 34.7348 18.3553C34.7349 18.3553 34.7351 18.3552 34.7353 18.3551L37.8592 16.5978ZM26.1301 9.83005L25.9969 9.86278V10V13.2812C25.9969 13.8487 25.5674 14.2781 25 14.2781C24.4326 14.2781 24.0031 13.8487 24.0031 13.2812V10V9.86042L23.867 9.82938C21.7191 9.33949 20.0969 7.37823 20.0969 5.07812C20.0969 2.36227 22.2841 0.175 25 0.175C27.7159 0.175 29.9031 2.36227 29.9031 5.07812C29.9031 7.37609 28.2827 9.30135 26.1301 9.83005ZM38.6206 32.0249L38.7474 32.1013L38.8438 31.9889C39.7505 30.9311 41.0704 30.2531 42.5781 30.2531C45.294 30.2531 47.4813 32.4404 47.4813 35.1562C47.4813 37.8721 45.294 40.0594 42.5781 40.0594C39.8623 40.0594 37.675 37.8721 37.675 35.1562C37.675 34.7859 37.7491 34.4125 37.8279 34.0187L37.8519 33.8987L37.7474 33.835L34.5442 31.8818L34.5443 31.8818L34.5399 31.8793C34.0787 31.6157 33.9132 30.9855 34.2097 30.5243L34.2099 30.5244L34.2144 30.5165C34.478 30.0552 35.1082 29.8898 35.5694 30.1863L35.5694 30.1863L35.5737 30.189L38.6206 32.0249ZM11.1816 18.208L11.0652 18.1405L10.97 18.2356C10.0612 19.1445 8.81522 19.7469 7.42188 19.7469C4.70602 19.7469 2.51875 17.5596 2.51875 14.8438C2.51875 12.1297 4.70426 9.97969 7.42188 9.97969C10.1377 9.97969 12.325 12.167 12.325 14.8828C12.325 15.3731 12.2495 15.8621 12.0996 16.3118L12.0541 16.4483L12.1792 16.5194L15.3429 18.316C15.3429 18.316 15.343 18.3161 15.343 18.3161C15.8042 18.5798 15.9729 19.2143 15.7074 19.6788C15.4439 20.14 14.8095 20.3088 14.345 20.0435C14.3448 20.0435 14.3447 20.0434 14.3446 20.0434L11.1816 18.208ZM10.3313 35.1562C10.3313 33.5362 9.04196 32.2469 7.42188 32.2469C5.80179 32.2469 4.5125 33.5362 4.5125 35.1562C4.5125 36.7763 5.80179 38.0656 7.42188 38.0656C9.04196 38.0656 10.3313 36.7763 10.3313 35.1562ZM42.5781 17.7531C44.1982 17.7531 45.4875 16.4638 45.4875 14.8438C45.4875 13.2237 44.1982 11.9344 42.5781 11.9344C40.958 11.9344 39.6688 13.2237 39.6688 14.8438C39.6688 16.4638 40.958 17.7531 42.5781 17.7531ZM25 2.16875C23.3799 2.16875 22.0906 3.45804 22.0906 5.07812C22.0906 6.69821 23.3799 7.9875 25 7.9875C26.6201 7.9875 27.9094 6.69821 27.9094 5.07812C27.9094 3.45804 26.6201 2.16875 25 2.16875ZM39.6688 35.1562C39.6688 36.7763 40.958 38.0656 42.5781 38.0656C44.1982 38.0656 45.4875 36.7763 45.4875 35.1562C45.4875 33.5362 44.1982 32.2469 42.5781 32.2469C40.958 32.2469 39.6688 33.5362 39.6688 35.1562ZM10.3313 14.8438C10.3313 13.2237 9.04196 11.9344 7.42188 11.9344C5.80179 11.9344 4.5125 13.2237 4.5125 14.8438C4.5125 16.4638 5.80179 17.7531 7.42188 17.7531C9.04196 17.7531 10.3313 16.4638 10.3313 14.8438ZM15.2344 45.9188C14.667 45.9188 14.2375 45.4893 14.2375 44.9219C14.2375 38.9642 19.0806 34.1594 25 34.1594C30.919 34.1594 35.7625 39.0029 35.7625 44.9219C35.7625 45.4893 35.333 45.9188 34.7656 45.9188C34.1982 45.9188 33.7687 45.4893 33.7687 44.9219C33.7687 40.0987 29.8232 36.1531 25 36.1531C20.1768 36.1531 16.2312 40.0987 16.2312 44.9219C16.2312 45.4893 15.8018 45.9188 15.2344 45.9188ZM31.8563 25C31.8563 28.7705 28.7705 31.8563 25 31.8563C21.2295 31.8563 18.1438 28.7705 18.1438 25C18.1438 21.2295 21.2295 18.1437 25 18.1437C28.7705 18.1437 31.8563 21.2295 31.8563 25ZM29.8625 25C29.8625 22.3252 27.6748 20.1375 25 20.1375C22.3252 20.1375 20.1375 22.3252 20.1375 25C20.1375 27.6748 22.3252 29.8625 25 29.8625C27.6748 29.8625 29.8625 27.6748 29.8625 25Z" fill="black" stroke="white" stroke-width="0.35"/>
</svg>
