<svg width="46" height="49" viewBox="0 0 46 49" fill="none" xmlns="http://www.w3.org/2000/svg">
<path d="M1.08594 14.6639C1.32031 14.8983 1.59375 15.0155 1.90625 15.0155C2.21875 15.0155 2.49219 14.8983 2.72656 14.6639L7.375 10.0155L12.0234 14.6639C12.2578 14.8983 12.5703 15.0155 12.8438 15.0155C13.1172 15.0155 13.4297 14.8983 13.6641 14.6639C14.1328 14.1951 14.1328 13.453 13.6641 13.0233L9.01562 8.37483L13.6641 3.72639C14.1328 3.25764 14.1328 2.51546 13.6641 2.08577C13.1953 1.61702 12.4531 1.61702 12.0234 2.08577L7.375 6.73421L2.72656 2.08577C2.25781 1.61702 1.51562 1.61702 1.08594 2.08577C0.617188 2.51546 0.617188 3.29671 1.08594 3.72639L5.73437 8.37483L1.08594 13.0233C0.617188 13.453 0.617188 14.2342 1.08594 14.6639ZM38.625 32.9842C34.9531 32.9842 31.9844 35.953 31.9844 39.6248C31.9844 43.2967 34.9531 46.2655 38.625 46.2655C42.2969 46.2655 45.2656 43.2967 45.2656 39.6248C45.2656 35.953 42.2969 32.9842 38.625 32.9842ZM38.625 43.9217C36.2422 43.9217 34.3281 42.0076 34.3281 39.6248C34.3281 37.242 36.2422 35.328 38.625 35.328C41.0078 35.328 42.9219 37.242 42.9219 39.6248C42.9219 42.0076 41.0078 43.9217 38.625 43.9217ZM34.0156 21.1092C31.7109 22.867 26.8672 22.9451 22.1797 23.0623C17.4531 23.1795 13.0391 23.2576 10.5781 25.0155C6.78906 27.7498 5.8125 30.1717 8.11719 39.8983C8.46875 41.3826 9.60156 45.7967 9.60156 45.7967C9.75781 46.4217 9.95312 47.0858 10.1484 47.7498C10.3047 48.2576 10.7734 48.6092 11.2812 48.6092C11.3984 48.6092 11.4766 48.6092 11.5938 48.5701C12.2188 48.3748 12.5703 47.7498 12.4141 47.1248C12.2188 46.4608 12.0625 45.7967 11.8672 45.1717C11.8672 45.1717 10.7734 40.8358 10.4219 39.3514C8.19531 29.9764 9.32812 28.8045 11.9844 26.8905C13.8203 25.5623 18.1172 25.4842 22.2578 25.367C27.2969 25.2889 32.4922 25.1717 35.4219 22.9842C38.2344 20.8748 39.0938 16.578 38.0781 10.2498C37.7266 8.06233 37.1797 6.07014 36.75 4.50764L41.5156 7.04671C42.1016 7.35921 42.8047 7.12483 43.1172 6.57796C43.4297 5.99202 43.1953 5.28889 42.6484 4.97639L35.3438 1.07014C34.7578 0.757645 34.0547 0.99202 33.7422 1.53889L29.8359 8.84358C29.5234 9.42952 29.7578 10.1326 30.3047 10.4451C30.4609 10.5233 30.6562 10.6014 30.8516 10.6014C31.2812 10.6014 31.6719 10.367 31.9063 9.97639L34.5234 5.09358C35.9688 10.1326 37.5312 18.453 34.0156 21.1092Z" fill="black"/>
</svg>
