<svg width="55" height="55" viewBox="0 0 55 55" fill="none" xmlns="http://www.w3.org/2000/svg">
<g clip-path="url(#clip0_2089_11044)">
<path d="M51.9922 12.7943H52.3255V12.4609V6.01562C52.3255 4.15575 50.8442 2.67448 48.9844 2.67448H6.01562C4.15575 2.67448 2.67448 4.15575 2.67448 6.01562V12.4609V12.7943H3.00781H51.9922ZM3.00781 14.7057H2.67448V15.0391V48.9844C2.67448 50.8442 4.15575 52.3255 6.01562 52.3255H48.9844C50.8442 52.3255 52.3255 50.8442 52.3255 48.9844V15.0391V14.7057H51.9922H3.00781ZM34.375 28.026H34.0417V28.3594V38.6719V39.0052H34.375H43.3984H43.7318V38.6719V28.3594V28.026H43.3984H34.375ZM0.763021 6.01562C0.763021 3.10597 3.10597 0.763021 6.01562 0.763021H48.9844C51.894 0.763021 54.237 3.10597 54.237 6.01562V48.9844C54.237 51.894 51.894 54.237 48.9844 54.237H6.01562C3.10597 54.237 0.763021 51.894 0.763021 48.9844V6.01562ZM6.77865 7.73438C6.77865 7.188 7.188 6.77865 7.73438 6.77865H9.45312C9.9995 6.77865 10.4089 7.188 10.4089 7.73438C10.4089 8.28075 9.9995 8.6901 9.45312 8.6901H7.73438C7.188 8.6901 6.77865 8.28075 6.77865 7.73438ZM13.6536 7.73438C13.6536 7.188 14.063 6.77865 14.6094 6.77865H16.3281C16.8745 6.77865 17.2839 7.188 17.2839 7.73438C17.2839 8.28075 16.8745 8.6901 16.3281 8.6901H14.6094C14.063 8.6901 13.6536 8.28075 13.6536 7.73438ZM9.35677 27.0703C9.35677 26.5239 9.76613 26.1146 10.3125 26.1146H26.2109C26.7573 26.1146 27.1667 26.5239 27.1667 27.0703C27.1667 27.6167 26.7573 28.026 26.2109 28.026H10.3125C9.76613 28.026 9.35677 27.6167 9.35677 27.0703ZM32.1302 27.0703C32.1302 26.5239 32.5396 26.1146 33.0859 26.1146H44.6875C45.2339 26.1146 45.6432 26.5239 45.6432 27.0703V39.9609C45.6432 40.5073 45.2339 40.9167 44.6875 40.9167H33.0859C32.5396 40.9167 32.1302 40.5073 32.1302 39.9609V27.0703ZM9.35677 33.5156C9.35677 32.9692 9.76613 32.5599 10.3125 32.5599H26.2109C26.7573 32.5599 27.1667 32.9692 27.1667 33.5156C27.1667 34.062 26.7573 34.4714 26.2109 34.4714H10.3125C9.76613 34.4714 9.35677 34.062 9.35677 33.5156ZM9.35677 39.9609C9.35677 39.4146 9.76613 39.0052 10.3125 39.0052H17.1875C17.7339 39.0052 18.1432 39.4146 18.1432 39.9609C18.1432 40.5073 17.7339 40.9167 17.1875 40.9167H10.3125C9.76613 40.9167 9.35677 40.5073 9.35677 39.9609ZM23.1068 39.9609C23.1068 39.4146 23.5161 39.0052 24.0625 39.0052H26.2109C26.7573 39.0052 27.1667 39.4146 27.1667 39.9609C27.1667 40.5073 26.7573 40.9167 26.2109 40.9167H24.0625C23.5161 40.9167 23.1068 40.5073 23.1068 39.9609Z" fill="black" stroke="#EAEAEA" stroke-width="0.666667"/>
</g>
<defs>
<clipPath id="clip0_2089_11044">
<rect width="55" height="55" fill="white"/>
</clipPath>
</defs>
</svg>
