<svg width="55" height="55" viewBox="0 0 55 55" fill="none" xmlns="http://www.w3.org/2000/svg">
<g clip-path="url(#clip0_2089_11049)">
<path d="M51.9922 12.7943H52.3255V12.4609V6.01562C52.3255 4.15575 50.8442 2.67448 48.9844 2.67448H6.01562C4.15575 2.67448 2.67448 4.15575 2.67448 6.01562V12.4609V12.7943H3.00781H51.9922ZM3.00781 14.7057H2.67448V15.0391V48.9844C2.67448 50.8442 4.15575 52.3255 6.01562 52.3255H48.9844C50.8442 52.3255 52.3255 50.8442 52.3255 48.9844V15.0391V14.7057H51.9922H3.00781ZM23.0427 42.6989L23.043 42.6982L30.1326 23.6643C30.1327 23.6641 30.1327 23.6639 30.1328 23.6637C30.28 23.2717 30.6226 23.0365 30.9935 23.0217C31.118 23.0168 31.2488 23.0366 31.3794 23.0855C31.899 23.2804 32.1487 23.8217 31.9573 24.3323L31.9569 24.3333L24.8684 43.408C24.8682 43.4086 24.868 43.4091 24.8678 43.4097C24.7112 43.8145 24.3013 44.044 23.8732 44.0111L23.8605 44.0101H23.8477C23.8234 44.0101 23.8025 44.0067 23.7708 43.9973C23.7529 43.9919 23.733 43.9851 23.7053 43.9753C23.681 43.9666 23.6494 43.9552 23.6155 43.9438C23.0993 43.7473 22.8519 43.2079 23.0427 42.6989ZM38.7679 33.7186L39.0359 33.4729L38.7679 33.2271L34.6431 29.4455L34.4178 29.6912L34.643 29.4455C34.2606 29.0949 34.232 28.4895 34.5779 28.1121C34.7519 27.9223 34.9902 27.8181 35.2348 27.8061C35.4794 27.794 35.7234 27.8739 35.9113 28.0462L41.1102 32.8163L41.1161 32.8216L41.1222 32.8267C41.299 32.974 41.432 33.264 41.432 33.5156C41.432 33.7491 41.3128 34.0098 41.1046 34.2201L35.9112 38.9852L35.9059 38.99L35.9008 38.9951C35.7181 39.1778 35.5091 39.2407 35.2772 39.2407C35.02 39.2407 34.7735 39.1466 34.586 38.9282C34.2297 38.5063 34.258 37.8895 34.6487 37.4941L38.7679 33.7186ZM19.0877 28.0907L19.0887 28.0898C19.277 27.9172 19.5212 27.8369 19.7652 27.8489C20.0098 27.8609 20.2481 27.9651 20.4221 28.1549C20.768 28.5323 20.7394 29.1377 20.357 29.4883L20.3569 29.4883L16.2321 33.2699L15.9656 33.5142L16.2307 33.7601L20.3556 37.5845L20.357 37.5857C20.7394 37.9363 20.768 38.5417 20.4221 38.9191L20.4219 38.919L20.4147 38.9274C20.2271 39.1464 19.9803 39.2407 19.7228 39.2407C19.5192 39.2407 19.2937 39.1536 19.0827 38.9795L13.8898 34.215L13.8839 34.2096L13.8778 34.2045C13.701 34.0572 13.568 33.7672 13.568 33.5156C13.568 33.2823 13.687 33.0218 13.8948 32.8117L19.0877 28.0907ZM0.763021 6.01562C0.763021 3.10597 3.10597 0.763021 6.01562 0.763021H48.9844C51.894 0.763021 54.237 3.10597 54.237 6.01562V48.9844C54.237 51.894 51.894 54.237 48.9844 54.237H6.01562C3.10597 54.237 0.763021 51.894 0.763021 48.9844V12.0312V6.01562ZM6.77865 7.73438C6.77865 7.188 7.188 6.77865 7.73438 6.77865H9.45312C9.9995 6.77865 10.4089 7.188 10.4089 7.73438C10.4089 8.28075 9.9995 8.6901 9.45312 8.6901H7.73438C7.188 8.6901 6.77865 8.28075 6.77865 7.73438ZM13.6536 7.73438C13.6536 7.188 14.063 6.77865 14.6094 6.77865H16.3281C16.8745 6.77865 17.2839 7.188 17.2839 7.73438C17.2839 8.28075 16.8745 8.6901 16.3281 8.6901H14.6094C14.063 8.6901 13.6536 8.28075 13.6536 7.73438Z" fill="black" stroke="#EAEAEA" stroke-width="0.666667"/>
</g>
<defs>
<clipPath id="clip0_2089_11049">
<rect width="55" height="55" fill="white"/>
</clipPath>
</defs>
</svg>
