<svg width="21" height="21" viewBox="0 0 21 21" fill="none" xmlns="http://www.w3.org/2000/svg">
<path fill-rule="evenodd" clip-rule="evenodd" d="M2.08142 11.5002C2.49017 14.4166 4.40847 16.849 7.02106 17.982C7.13542 15.6315 7.62078 13.3731 8.42251 11.2574C7.56787 11.0942 6.68287 11.0085 5.77607 11.0085C4.49264 11.0085 3.25303 11.1802 2.08142 11.5002ZM8.25511 18.4051C8.91955 18.5756 9.61601 18.6664 10.3337 18.6664C12.7255 18.6664 14.882 17.6587 16.4017 16.0447C14.7429 13.9376 12.387 12.3376 9.64907 11.5502C8.81587 13.6992 8.33028 16.0042 8.25511 18.4051ZM17.205 15.0491C18.1272 13.7081 18.667 12.0836 18.667 10.333C18.667 10.1864 18.6632 10.0406 18.6557 9.89579C17.7684 10.0565 16.8527 10.1405 15.9167 10.1405C14.0842 10.1405 12.3298 9.81837 10.7145 9.22997C10.511 9.61086 10.319 9.99805 10.1388 10.3912C12.9682 11.2358 15.4241 12.8805 17.205 15.0491ZM18.4978 8.65391C18.0646 6.53663 16.8285 4.71182 15.1215 3.51151C13.6559 4.88249 12.3839 6.43427 11.346 8.12784C12.7692 8.62089 14.3087 8.89054 15.9167 8.89054C16.8005 8.89054 17.6635 8.80908 18.4978 8.65391ZM14.0037 2.84927C12.8964 2.30522 11.6507 1.99969 10.3337 1.99969C8.40398 1.99969 6.62749 2.65558 5.21496 3.75659C6.49022 5.40993 8.19128 6.75841 10.1693 7.65779C11.225 5.89852 12.5169 4.28289 14.0037 2.84927ZM4.28662 4.5991C2.89185 6.06955 2.02774 8.0483 2.00098 10.2287C3.20512 9.92191 4.47085 9.75847 5.77607 9.75847C6.85097 9.75847 7.899 9.86931 8.90784 10.0797C9.10873 9.62924 9.32425 9.18604 9.55383 8.75065C7.46583 7.78281 5.65974 6.35281 4.28662 4.5991Z" fill="white"/>
</svg>
