<svg width="20" height="21" viewBox="0 0 20 21" fill="none" xmlns="http://www.w3.org/2000/svg">
<path fill-rule="evenodd" clip-rule="evenodd" d="M5.83366 1.99969C3.53247 1.99969 1.66699 3.86518 1.66699 6.16636V14.4997C1.66699 16.8009 3.53247 18.6664 5.83366 18.6664H14.167C16.4682 18.6664 18.3337 16.8009 18.3337 14.4997V6.16636C18.3337 3.86518 16.4682 1.99969 14.167 1.99969H5.83366ZM15.0005 6.16652C15.4607 6.16652 15.8338 5.79343 15.8338 5.33319C15.8338 4.87295 15.4607 4.49986 15.0005 4.49986C14.5403 4.49986 14.1672 4.87295 14.1672 5.33319C14.1672 5.79343 14.5403 6.16652 15.0005 6.16652ZM14.1672 10.3332C14.1672 12.6344 12.3017 14.4999 10.0005 14.4999C7.6993 14.4999 5.83382 12.6344 5.83382 10.3332C5.83382 8.032 7.6993 6.16652 10.0005 6.16652C12.3017 6.16652 14.1672 8.032 14.1672 10.3332ZM10.0005 12.8332C11.3812 12.8332 12.5005 11.7139 12.5005 10.3332C12.5005 8.95248 11.3812 7.83319 10.0005 7.83319C8.61978 7.83319 7.50049 8.95248 7.50049 10.3332C7.50049 11.7139 8.61978 12.8332 10.0005 12.8332Z" fill="white"/>
</svg>
