<svg width="21" height="21" viewBox="0 0 21 21" fill="none" xmlns="http://www.w3.org/2000/svg">
<path fill-rule="evenodd" clip-rule="evenodd" d="M5.66634 3.66636C5.66634 4.58684 4.92015 5.33303 3.99967 5.33303C3.0792 5.33303 2.33301 4.58684 2.33301 3.66636C2.33301 2.74589 3.0792 1.99969 3.99967 1.99969C4.92015 1.99969 5.66634 2.74589 5.66634 3.66636ZM2.33317 7.41652H5.6665V18.6665H2.33317V7.41652ZM8.1665 7.41652H11.4998V8.1177C12.0211 7.93345 12.5821 7.83319 13.1665 7.83319C15.9279 7.83319 18.1665 10.0718 18.1665 12.8332V18.6665H14.8332V12.8332C14.8332 11.9127 14.087 11.1665 13.1665 11.1665C12.246 11.1665 11.4998 11.9127 11.4998 12.8332V18.6665H8.1665V12.8332V7.41652Z" fill="white"/>
</svg>
