<svg width="55" height="55" viewBox="0 0 55 55" fill="none" xmlns="http://www.w3.org/2000/svg">
<path d="M51 13.0001H51.3333V12.6668V6.41679C51.3333 4.60769 49.8924 3.16679 48.0833 3.16679H6.41667C4.60757 3.16679 3.16667 4.60769 3.16667 6.41679V12.6668V13.0001H3.5H51ZM3.5 14.8335H3.16667V15.1668V48.0835C3.16667 49.8926 4.60757 51.3335 6.41667 51.3335H48.0833C49.8924 51.3335 51.3333 49.8926 51.3333 48.0835V15.1668V14.8335H51H3.5ZM1.33333 6.41679C1.33333 3.60088 3.60076 1.33346 6.41667 1.33346H48.0833C50.8992 1.33346 53.1667 3.60088 53.1667 6.41679V48.0835C53.1667 50.8994 50.8992 53.1668 48.0833 53.1668H6.41667C3.60076 53.1668 1.33333 50.8994 1.33333 48.0835V6.41679ZM7.16667 8.08346C7.16667 7.55922 7.55909 7.16679 8.08333 7.16679H9.75C10.2742 7.16679 10.6667 7.55922 10.6667 8.08346C10.6667 8.60769 10.2742 9.00012 9.75 9.00012H8.08333C7.55909 9.00012 7.16667 8.60769 7.16667 8.08346ZM13.8333 8.08346C13.8333 7.55922 14.2258 7.16679 14.75 7.16679H16.4167C16.9409 7.16679 17.3333 7.55922 17.3333 8.08346C17.3333 8.60769 16.9409 9.00012 16.4167 9.00012H14.75C14.2258 9.00012 13.8333 8.60769 13.8333 8.08346Z" fill="black" stroke="#EAEAEA" stroke-width="0.666667"/>
<path d="M30.0115 26.71L30.0115 26.71L30.0142 26.7072C30.8212 25.866 31.9535 25.4105 33.1219 25.4105C34.2879 25.4105 35.3886 25.8645 36.2321 26.7099C36.2322 26.7099 36.2322 26.71 36.2322 26.71L45.8864 36.4545L45.8862 36.4547L45.8931 36.461C46.2098 36.752 46.2191 37.266 45.8869 37.599L45.8867 37.5989L45.8809 37.6053C45.5908 37.9225 45.0795 37.9317 44.7475 37.599L35.0929 27.9217C34.5797 27.4072 33.8504 27.1155 33.1219 27.1155C32.358 27.1155 31.6631 27.4082 31.1509 27.9217L18.9918 40.1087C18.5179 40.551 17.9229 40.7999 17.3014 40.7999C17.2677 40.7999 17.2236 40.794 17.1603 40.785L17.1538 40.784C17.1032 40.7768 17.0379 40.7675 16.9766 40.7662C16.4866 40.7021 15.9889 40.4536 15.5798 40.0436C15.5798 40.0436 15.5798 40.0436 15.5798 40.0436L11.9217 36.3761L11.9216 36.3761C11.3832 35.8364 10.6941 35.5056 9.9949 35.4687L9.99491 35.4684H9.98436C9.52592 35.4684 9.17421 35.0924 9.20149 34.6277C9.22948 34.1507 9.6186 33.8043 10.04 33.8307L10.04 33.8308L10.0466 33.831C11.1423 33.8633 12.2126 34.3485 13.061 35.1989L13.0616 35.1996L16.7536 38.8657C16.7537 38.8658 16.7538 38.8659 16.7539 38.8661C16.8113 38.9235 16.8815 38.9846 16.956 39.0327C17.0246 39.0771 17.1242 39.1287 17.2339 39.1287C17.4288 39.1287 17.6611 39.0895 17.8499 38.9002L30.0115 26.71ZM12.8607 25.4141C12.8607 23.0793 14.7364 21.1999 17.0646 21.1999C19.3927 21.1999 21.2684 23.0793 21.2684 25.4141C21.2684 27.7489 19.3927 29.6283 17.0646 29.6283C14.7364 29.6283 12.8607 27.7489 12.8607 25.4141ZM19.6359 25.4141C19.6359 23.9798 18.4966 22.8372 17.0646 22.8372C15.6325 22.8372 14.4932 23.9798 14.4932 25.4141C14.4932 26.8484 15.6325 27.991 17.0646 27.991C18.4966 27.991 19.6359 26.8484 19.6359 25.4141Z" fill="black" stroke="#EAEAEA" stroke-width="0.4"/>
</svg>
