<svg width="70" height="70" viewBox="0 0 70 70" fill="none" xmlns="http://www.w3.org/2000/svg">
<path d="M53.8251 27.8736L54.0758 27.9179L56.8602 28.4095C56.861 28.4096 56.8618 28.4098 56.8626 28.4099C58.0483 28.5985 58.7824 29.7202 58.5988 30.883L58.598 30.8878L58.598 30.8878L56.7395 41.3325L53.8251 27.8736ZM53.8251 27.8736L53.7854 28.1251M53.8251 27.8736L53.7854 28.1251M53.7854 28.1251L51.5424 42.3439L51.504 42.5869M53.7854 28.1251L51.504 42.5869M51.504 42.5869L51.7465 42.6291M51.504 42.5869L51.7465 42.6291M51.7465 42.6291L54.2309 43.0615C54.3806 43.1256 54.525 43.1254 54.6206 43.1252L54.6337 43.1252C55.6884 43.1252 56.5548 42.378 56.7394 41.3329L51.7465 42.6291ZM12.3612 25.7278L12.5439 25.686L12.555 25.4989C13.2581 13.5997 23.0472 4.35156 35.0007 4.35156C46.8995 4.35156 56.7433 13.6543 57.4464 25.499L57.4573 25.6822L57.6354 25.7267C60.1388 26.3526 61.7999 28.8021 61.3327 31.3457L61.3325 31.347L59.4729 41.7921L59.4729 41.7922C59.0564 44.1346 57.0273 45.852 54.6337 45.852C54.3548 45.852 54.0527 45.8503 53.808 45.8013L53.808 45.8011L53.7976 45.7995L51.0077 45.3626L50.8246 45.3339L50.7439 45.5008C49.5729 47.9245 47.6723 51.3161 45.0321 54.0986C42.3919 56.8812 39.0352 59.0315 34.9462 59.0315C32.0802 59.0315 26.3646 57.819 21.2148 49.3083L21.2149 49.3082L21.2112 49.3025C20.8024 48.6666 21.0194 47.8326 21.683 47.406C22.3181 46.9977 23.1509 47.2137 23.578 47.8755C27.9923 55.1024 32.5522 56.2502 34.9462 56.2502C36.1671 56.2502 38.2971 55.9368 40.7574 54.2012C43.2157 52.4671 45.9891 49.3235 48.5183 43.6879L48.5402 43.639V43.5855V43.5503L49.8489 35.0927L49.8974 34.779L49.5811 34.8053L49.5628 34.8069C48.9109 34.8612 48.2714 34.9145 47.6333 34.9145C41.7424 34.9145 36.5993 32.2664 32.3282 30.0213L32.3276 30.021C30.4996 29.0661 28.7749 28.1687 27.218 27.6012C25.6657 27.0353 24.2333 26.7791 23.0045 27.1594L23.0026 27.16C21.709 27.5716 20.5746 28.7327 19.5244 30.612L19.4809 30.6898L19.4965 30.7776L21.7385 43.4111C21.8782 44.203 21.3702 44.8957 20.6285 45.0357C20.628 45.0358 20.6275 45.0359 20.6269 45.036L16.1999 45.8001L16.1999 45.8L16.1934 45.8013C15.9487 45.8503 15.6465 45.852 15.3677 45.852C12.9741 45.852 10.945 44.1346 10.5285 41.7922L10.5285 41.7921L8.66892 31.347L8.66867 31.3457C8.20079 28.7983 9.86599 26.2997 12.3612 25.7278ZM54.3686 25.0196L54.6984 25.0816L54.6634 24.7478C53.6111 14.7237 45.1926 7.02386 35.0552 7.02386C24.8626 7.02386 16.4992 14.7241 15.447 24.7478L15.4129 25.0723L15.7351 25.0207L17.1001 24.8021C17.4345 24.7548 17.803 24.8045 18.1212 25.0318L18.1212 25.0319L18.1279 25.0364C18.4033 25.22 18.6297 25.542 18.6743 25.8986L18.6754 25.9076L18.6772 25.9165L18.7317 26.1899L18.823 26.6484L19.1536 26.3178C20.0579 25.4136 21.0643 24.7787 22.1721 24.4092C23.9085 23.8572 25.6826 24.0497 27.5741 24.6692C29.4256 25.2757 31.3652 26.2825 33.4706 27.3754C33.5226 27.4024 33.5747 27.4294 33.6269 27.4565C34.7526 28.045 35.7309 28.6486 36.657 29.22C36.7129 29.2545 36.7687 29.2889 36.8243 29.3232C37.7973 29.9232 38.7216 30.486 39.6936 30.9407C41.6518 31.8568 43.7935 32.3293 46.9599 31.8571L47.1549 31.828L47.1721 31.6316L46.923 31.6098C47.1721 31.6316 47.1721 31.6314 47.1721 31.6312L47.1722 31.6304L47.1724 31.6275L47.1733 31.6166L47.1766 31.5749C47.1793 31.5384 47.1832 31.4847 47.1876 31.4149C47.1964 31.2753 47.2076 31.0713 47.2168 30.8121C47.2354 30.2937 47.2465 29.5539 47.2172 28.6655C47.1587 26.8901 46.9384 24.5144 46.289 22.1242C45.6401 19.7356 44.558 17.316 42.7645 15.4701C40.9649 13.6179 38.462 12.3573 35.0067 12.2737L35.0066 12.2737C31.4608 12.1906 28.4126 13.0634 25.95 14.7935C23.4883 16.5229 21.6285 19.0971 20.4384 22.3899C20.157 23.1384 19.3694 23.5052 18.6278 23.2271C17.8784 22.9461 17.511 22.158 17.7893 21.4159L17.7894 21.4155C19.2232 17.574 21.4638 14.5965 24.3697 12.5785C27.2757 10.5606 30.8612 9.4924 35.0007 9.4924C39.7625 9.4924 43.7642 10.8847 46.8582 13.4674C49.9534 16.0512 52.1581 19.8414 53.2967 24.6668L53.334 24.825L53.4938 24.8551L54.3686 25.0196ZM16.2153 28.1213L16.1726 27.8751L13.2074 41.3325L13.4536 41.2891L13.2075 41.3329L13.2074 41.3327C13.392 42.3779 14.2584 43.1252 15.3132 43.1252C15.3993 43.1252 15.4802 43.1049 15.5299 43.0925L15.5376 43.0906C15.5981 43.0755 15.6225 43.0707 15.6411 43.0707H15.663L15.6846 43.0669L18.4734 42.5745L18.7189 42.5312L18.6763 42.2855L16.2153 28.1213ZM13.0848 28.4098L13.083 28.4101L13.1257 28.6565L13.0867 28.4095C13.0861 28.4096 13.0854 28.4097 13.0848 28.4098ZM28.0558 59.0391H28.1594L28.2138 58.9846L28.2192 58.9846H28.3837H28.5471H28.6311C28.7138 59.0306 28.7933 59.0379 28.8441 59.0389C28.8446 59.0392 28.8452 59.0395 28.8459 59.0398C28.8571 59.0454 28.8826 59.0585 28.9108 59.0691C28.9336 59.0776 28.9657 59.0877 29.0046 59.0917C29.0063 59.0926 29.0084 59.0936 29.0107 59.0947L29.0129 59.0958C29.0251 59.1019 29.0493 59.1139 29.0757 59.1238C29.0812 59.1258 29.0873 59.128 29.0939 59.1301C29.0951 59.1309 29.0962 59.1317 29.0973 59.1325C29.1077 59.1395 29.1227 59.1492 29.1415 59.1591C29.169 59.1894 29.1967 59.2081 29.2103 59.217C29.2188 59.2226 29.2275 59.2279 29.2325 59.2309L29.234 59.2318L29.245 59.2387C29.246 59.2394 29.2467 59.2399 29.2471 59.2402L29.3543 59.3474L29.3552 59.3482L29.4633 59.4574L29.5366 59.5315H29.5418C29.5512 59.5429 29.5619 59.555 29.5741 59.5672L29.6332 59.6263C29.6336 59.6273 29.6339 59.6282 29.6343 59.6292C29.6442 59.6555 29.6563 59.6796 29.6624 59.6918L29.6636 59.6941C29.6638 59.6946 29.6641 59.6951 29.6643 59.6956V59.9138H29.7199V59.9319L29.7798 59.9918L29.7845 60.0078C30.6432 62.9274 33.0577 63.9609 35.0007 63.9609C36.9999 63.9609 39.3586 62.9261 40.2169 60.0078L40.227 59.9733V59.9691C40.2273 59.9686 40.2275 59.9681 40.2278 59.9676L40.229 59.9653C40.2351 59.9531 40.2472 59.929 40.2571 59.9026C40.2633 59.886 40.2704 59.8642 40.2753 59.8386C40.5598 59.1748 41.3795 58.8537 42.071 59.1299C42.0712 59.13 42.0715 59.13 42.0717 59.1301L54.156 64.0514L54.1574 64.052C54.8399 64.325 55.174 65.1574 54.8947 65.8584C54.6597 66.4205 54.1492 66.7422 53.5944 66.7422C53.4276 66.7422 53.2648 66.7396 53.1049 66.6596L53.0965 66.6554L53.0878 66.6519L42.5327 62.3313L42.3215 62.2449L42.2162 62.4474C40.8384 65.0969 38.1364 66.7422 35.0007 66.7422C31.865 66.7422 29.163 65.0969 27.7852 62.4474L27.6799 62.2449L27.4687 62.3313L16.9215 66.6486C16.7716 66.698 16.585 66.7422 16.4069 66.7422C15.8461 66.7422 15.2876 66.4158 15.0541 65.8087L15.051 65.8006L15.0473 65.7927C14.7296 65.1119 15.0916 64.2762 15.7884 63.9975L15.7899 63.997L27.8313 59.0935H27.8913H27.9949L28.0494 59.0391H28.0558ZM29.8158 60.0282C29.8161 60.0285 29.816 60.0284 29.8156 60.028L29.8158 60.0282ZM28.0912 58.9976C28.0915 58.9973 28.0914 58.9974 28.091 58.9978L28.0912 58.9976Z" fill="black" stroke="white" stroke-width="0.5"/>
</svg>
