<svg width="70" height="70" viewBox="0 0 70 70" fill="none" xmlns="http://www.w3.org/2000/svg">
<path d="M24.4347 11.2525L24.4345 11.2526L24.4389 11.262C24.7543 11.9378 24.3996 12.7661 23.7126 13.0508C23.4955 13.105 23.3121 13.1484 23.1342 13.1484C22.6206 13.1484 22.0699 12.8162 21.8926 12.3286L21.8928 12.3285L21.8883 12.3178L18.7165 4.71623L18.7167 4.71615L18.7123 4.70678C18.3946 4.02602 18.7567 3.19056 19.4536 2.91181L19.4537 2.91217L19.4665 2.90623C20.1472 2.58854 20.9827 2.95066 21.2614 3.64754L21.2614 3.64755L21.2628 3.65096L24.4347 11.2525ZM17.3169 17.301L17.3174 17.3011C18.0689 17.536 18.4768 18.2762 18.2471 19.0114L18.2468 19.0124C18.0628 19.6104 17.5096 19.9844 16.8998 19.9844C16.7301 19.9844 16.6063 19.9824 16.4867 19.9425L16.4867 19.9425L16.4811 19.9407L8.66187 17.5348C8.66167 17.5348 8.66148 17.5347 8.66128 17.5346C7.91721 17.3018 7.50036 16.5117 7.73217 15.7699C7.96478 15.0255 8.75493 14.6084 9.49684 14.8401C9.49693 14.8401 9.49702 14.8402 9.49711 14.8402L17.3169 17.301ZM45.6576 62.3401C45.973 63.0159 45.6184 63.8443 44.9314 64.1289C44.7143 64.1831 44.5308 64.2266 44.3529 64.2266C43.7826 64.2266 43.2816 63.946 43.0524 63.396L38.0214 51.2559L37.873 50.8979L37.608 51.1806L30.2252 59.0556L30.2252 59.0555L30.2218 59.0593C29.7763 59.5543 29.1325 59.8516 28.4389 59.8516C28.1591 59.8516 27.8711 59.7582 27.5354 59.6463C26.5477 59.2998 25.9595 58.4171 26.0089 57.3791L26.0092 57.3791V57.3672V24.4453C26.0092 23.4455 26.5564 22.5561 27.4968 22.1601L27.4968 22.1601L27.5013 22.1581C28.3917 21.7624 29.4841 21.9613 30.1761 22.6533L30.1785 22.6556L53.6371 45.5127C53.6375 45.5131 53.6378 45.5134 53.6382 45.5138C54.3935 46.2699 54.6335 47.3115 54.2397 48.2467L54.2395 48.2466L54.2355 48.2573C53.8923 49.1889 52.9536 49.7891 51.9545 49.7891H40.7982H40.4231L40.5675 50.1353L45.6534 62.3306L45.6532 62.3307L45.6576 62.3401ZM29.1598 25.5783L28.7357 25.1672V25.7578V56.0547V56.69L29.1687 56.2251L37.3171 47.4751L37.3173 47.4752L37.324 47.4674C37.5995 47.146 37.9645 47.0078 38.3373 47.0078H50.642H51.2589L50.816 46.5783L29.1598 25.5783ZM31.1751 11.5473L31.1757 11.5461L35.0032 4.2739C35.0033 4.27372 35.0034 4.27355 35.0035 4.27338C35.373 3.58111 36.2084 3.34021 36.9191 3.67186C37.6071 3.99294 37.8865 4.81893 37.5151 5.51516L37.5145 5.51638L33.6897 12.7834C33.4022 13.2585 32.9348 13.5313 32.4311 13.5313C32.1877 13.5313 31.9542 13.4821 31.7772 13.3936L31.7773 13.3935L31.7711 13.3906C31.0831 13.0696 30.8038 12.2436 31.1751 11.5473Z" fill="black" stroke="white" stroke-width="0.5"/>
</svg>
