<svg width="70" height="70" viewBox="0 0 70 70" fill="none" xmlns="http://www.w3.org/2000/svg">
<g clip-path="url(#clip0_2703_15898)">
<path d="M18.5938 9.54688H18.8438V9.29688V4.92188C18.8438 2.6537 20.7006 0.796875 22.9688 0.796875H36.0938C38.3619 0.796875 40.2188 2.6537 40.2188 4.92188V9.29688V9.54688H40.4688H51.4062C55.2057 9.54688 58.2656 12.6068 58.2656 16.4062V47.0312C58.2656 50.8307 55.2057 53.8906 51.4062 53.8906H7.65625C3.85682 53.8906 0.796875 50.8307 0.796875 47.0312V16.4062C0.796875 12.6068 3.85682 9.54688 7.65625 9.54688H18.5938ZM37.1875 9.54688H37.4375V9.29688V4.92188C37.4375 4.18224 36.8334 3.57812 36.0938 3.57812H22.9688C22.2291 3.57812 21.625 4.18224 21.625 4.92188V9.29688V9.54688H21.875H37.1875ZM11.4844 51.1094H11.7344V50.8594V12.5781V12.3281H11.4844H7.65625C5.38537 12.3281 3.57812 14.1354 3.57812 16.4062V47.0312C3.57812 49.3021 5.38537 51.1094 7.65625 51.1094H11.4844ZM47.5781 12.3281H47.3281V12.5781V50.8594V51.1094H47.5781H51.4062C53.6771 51.1094 55.4844 49.3021 55.4844 47.0312V16.4062C55.4844 14.1354 53.6771 12.3281 51.4062 12.3281H47.5781ZM44.5469 12.5781V12.3281H44.2969H14.7656H14.5156V12.5781V50.8594V51.1094H14.7656H44.2969H44.5469V50.8594V12.5781ZM2.1875 58.7656H63.9844C66.8541 58.7656 69.2031 61.1146 69.2031 63.9844C69.2031 66.8541 66.8541 69.2031 63.9844 69.2031H13.125C12.3334 69.2031 11.7344 68.6041 11.7344 67.8125C11.7344 67.0209 12.3334 66.4219 13.125 66.4219H63.9844C65.3256 66.4219 66.4219 65.3256 66.4219 63.9844C66.4219 62.6432 65.3256 61.5469 63.9844 61.5469H2.1875C1.39588 61.5469 0.796875 60.9479 0.796875 60.1562C0.796875 59.3646 1.39588 58.7656 2.1875 58.7656ZM6.3125 67.8125C6.3125 68.6041 5.71349 69.2031 4.92188 69.2031H2.1875C1.39588 69.2031 0.796875 68.6041 0.796875 67.8125C0.796875 67.0209 1.39588 66.4219 2.1875 66.4219H4.92188C5.71349 66.4219 6.3125 67.0209 6.3125 67.8125Z" fill="black" stroke="white" stroke-width="0.5"/>
</g>
<defs>
<clipPath id="clip0_2703_15898">
<rect width="70" height="70" fill="white"/>
</clipPath>
</defs>
</svg>
