<svg width="70" height="70" viewBox="0 0 70 70" fill="none" xmlns="http://www.w3.org/2000/svg">
<path d="M40.6449 10.9252L40.6369 10.9172L40.6282 10.91C40.3694 10.6943 40.2257 10.3337 40.2257 9.95273C40.2257 9.58598 40.3604 9.26577 40.6449 8.98128C40.892 8.7342 41.2485 8.60376 41.6164 8.60376C41.9842 8.60376 42.3407 8.7342 42.5878 8.98128L42.5958 8.9893L42.6045 8.99656C42.8635 9.21233 43.007 9.57192 43.007 9.95273C43.007 10.3196 42.8722 10.6409 42.5878 10.9252L42.5798 10.9333L42.5725 10.942C42.357 11.2006 41.9976 11.3434 41.6164 11.3434C41.2492 11.3434 40.9291 11.2094 40.6449 10.9252ZM52.6345 16.1871L52.6348 16.1871L52.6369 16.175L53.3461 12.0251C53.5544 11.0931 54.0192 10.2714 54.7359 9.65527C54.8779 9.54633 55.0409 9.49078 55.2014 9.48478C55.4707 9.47472 55.7361 9.60231 55.8924 9.8606C56.3546 10.684 56.509 11.6088 56.3543 12.5371L56.3539 12.5397L55.6993 16.7426C55.5689 17.3451 55.8428 17.8756 56.2911 18.1959L56.291 18.1961L56.3013 18.2028L57.8275 19.183C58.1168 19.3927 58.2555 19.7808 58.2135 20.1403L58.0445 20.9845L55.2284 20.4817L55.2232 20.4807L54.4081 20.3172L54.4081 20.3171L54.4024 20.3161L52.5457 19.9887L51.7282 19.8248L51.7282 19.8247L51.723 19.8238L48.9077 19.321L49.0802 18.3735C49.1715 18.0187 49.4336 17.7221 49.8162 17.6358L51.5077 17.3075L51.5078 17.3076L51.5143 17.3062C52.1009 17.1758 52.504 16.7743 52.6345 16.1871ZM9.5674 30.2573L9.56766 30.2569C13.8998 22.6933 21.7991 18.4137 30.0095 18.2627C34.3094 18.1836 38.6939 19.237 42.6952 21.5447L42.6967 21.5456C44.6984 22.6817 46.4834 24.0881 48.0536 25.7124L48.0536 25.7124L48.0565 25.7154C48.5551 26.214 48.5662 27.0953 48.0021 27.6594C47.504 28.1575 46.625 28.169 46.0609 27.6066C44.6787 26.1695 43.0748 24.8964 41.3031 23.8997C31.0146 17.9818 17.8457 21.4094 11.9785 31.594L11.9784 31.5941C6.49999 41.1122 9.10166 53.1751 18.1194 59.648L18.1199 59.6483C18.7762 60.1171 18.9057 60.9968 18.4494 61.59L18.442 61.5996L18.4356 61.6099C18.2205 61.9541 17.7678 62.1483 17.3349 62.1483C17.0032 62.1483 16.7322 62.055 16.5073 61.8751L16.5075 61.8749L16.4971 61.8673C14.7658 60.623 13.3032 59.2158 12.0015 57.6971L11.5919 57.2193L11.5619 57.8479C11.4508 60.1821 12.0033 61.9702 13.2351 63.026L13.237 63.0276C14.2529 63.8815 15.7304 64.1756 17.4959 63.9758C19.2641 63.7756 21.3532 63.0772 23.6361 61.903C28.2034 59.5538 33.5874 55.2785 38.7988 49.162C43.5807 43.5555 46.6558 37.2939 48.5352 32.4241C49.4753 29.9885 50.117 27.8988 50.5239 26.4103C50.7274 25.666 50.8723 25.0717 50.9664 24.6592C51.0135 24.4531 51.0479 24.2921 51.0707 24.1803C51.0821 24.1244 51.0906 24.0804 51.0965 24.0487C51.0994 24.0331 51.1017 24.0195 51.1035 24.0087L51.1061 23.9917C51.1061 23.9917 51.1061 23.9913 51.1062 23.9905C51.2494 23.2554 51.9912 22.7487 52.7267 22.8866C53.4667 23.0253 53.9783 23.7703 53.8398 24.5089L53.8396 24.5102C53.7329 25.097 50.9533 39.2085 40.934 50.9158L40.9337 50.9162C36.6811 55.9048 32.1875 59.8794 27.9393 62.605C23.6859 65.3339 19.7007 66.7967 16.4601 66.7967C14.4829 66.7967 12.7937 66.2634 11.4807 65.1607C9.01329 63.0603 8.18186 59.3489 9.26734 54.2472L9.27181 54.2262H9.5557L9.35054 53.8552C5.39944 46.7107 5.23738 37.7808 9.5674 30.2573ZM62.7933 29.0266L62.7853 29.0186L62.7766 29.0113C62.5177 28.7955 62.3742 28.436 62.3742 28.0551C62.3742 27.6882 62.509 27.367 62.7933 27.0826C63.0404 26.8356 63.397 26.7051 63.7648 26.7051C64.1326 26.7051 64.4892 26.8356 64.7362 27.0826L64.7443 27.0906L64.753 27.0979C65.0118 27.3136 65.1554 27.6741 65.1554 28.0551C65.1554 28.4162 64.9705 28.7924 64.7362 29.0266L64.7282 29.0346L64.721 29.0433C64.5052 29.3022 64.1456 29.4458 63.7648 29.4458C63.398 29.4458 63.0778 29.3111 62.7933 29.0266ZM43.1717 31.9288C43.1933 31.9217 43.2068 31.9173 43.2176 31.9143H43.2333L43.2631 31.9068C43.3547 31.884 43.4466 31.8717 43.5378 31.8694C44.1882 31.8529 44.8056 32.3289 44.9253 32.9676C45.0648 33.7115 44.6046 34.4387 43.8896 34.5855H43.8039H43.7657L43.7293 34.5969C42.7462 34.9041 42.0991 35.9022 42.4147 36.9268C42.5998 37.6813 42.1708 38.4591 41.4468 38.6401L41.4375 38.6424L41.4283 38.6455C41.3059 38.6863 41.2317 38.6871 41.0695 38.6871C40.4748 38.6871 39.9139 38.2741 39.7242 37.6671C39.1064 35.1808 40.5518 32.6489 43.0272 31.966C43.0571 31.9624 43.0826 31.9559 43.0986 31.9515C43.1243 31.9446 43.1506 31.9359 43.1694 31.9296L43.1717 31.9288ZM51.5394 37.4554L51.5392 37.4548C51.3552 36.7188 51.8139 35.976 52.56 35.7894C52.6527 35.7663 52.7451 35.7533 52.8361 35.7497C53.4729 35.7245 54.0623 36.158 54.2254 36.8102C55.7407 42.8715 54.8212 49.1496 51.7358 54.5083L51.7355 54.5089C47.4606 61.9765 39.5054 66.5233 30.8433 66.5233H30.1945C29.4537 66.4732 28.8553 65.8736 28.8514 65.086C28.9017 64.3434 29.504 63.7433 30.294 63.742C38.1472 63.9069 45.4512 59.8696 49.3257 53.1175C52.0927 48.3578 52.8672 42.8222 51.5394 37.4554ZM24.168 28.7081C24.5313 28.3448 25.0242 28.1407 25.538 28.1407C26.0519 28.1407 26.5447 28.3448 26.908 28.7081C27.2714 29.0715 27.4755 29.5643 27.4755 30.0782C27.4755 30.592 27.2714 31.0848 26.908 31.4482C26.5447 31.8115 26.0519 32.0157 25.538 32.0157C25.0242 32.0157 24.5313 31.8115 24.168 31.4482C23.8046 31.0848 23.6005 30.592 23.6005 30.0782C23.6005 29.5643 23.8046 29.0715 24.168 28.7081ZM24.6197 44.8002C25.342 44.0779 26.3216 43.6721 27.3431 43.6721C28.3646 43.6721 29.3443 44.0779 30.0666 44.8002C30.7889 45.5225 31.1947 46.5022 31.1947 47.5237C31.1947 48.5452 30.7889 49.5248 30.0666 50.2471C29.3443 50.9695 28.3646 51.3752 27.3431 51.3752C26.3216 51.3752 25.342 50.9695 24.6197 50.2471C23.8974 49.5248 23.4916 48.5452 23.4916 47.5237C23.4916 46.5022 23.8974 45.5225 24.6197 44.8002Z" fill="black" stroke="white" stroke-width="0.5"/>
</svg>
