<svg width="70" height="70" viewBox="0 0 70 70" fill="none" xmlns="http://www.w3.org/2000/svg">
<mask id="path-1-inside-1_2594_5040" fill="white">
<path d="M43.2048 7.00205C43.0235 6.99762 42.8404 7.00034 42.6558 7.01059C39.2105 7.28403 36.5312 10.2921 36.5312 13.7921V54.0418C36.5312 54.9715 37.2422 55.6825 38.1719 55.6825C39.1016 55.6825 39.8125 54.9715 39.8125 54.0418V13.6831C39.8125 12.0425 40.9607 10.5653 42.6013 10.2918C44.4607 10.0184 46.1018 11.3318 46.3205 13.0818C45.1721 14.3396 44.4065 15.9798 44.4065 17.8391C44.4065 18.6595 44.8989 19.3702 45.7192 19.5342C46.7582 19.753 47.6877 18.9325 47.6877 17.9481C47.6877 15.87 49.3277 14.1747 51.4058 14.12C53.4839 14.1747 55.125 15.87 55.125 17.9481C55.125 18.3309 55.0699 18.7146 54.9605 19.0974C54.7964 19.5896 54.9058 20.1907 55.2339 20.5735C55.5621 21.011 56.0543 21.2293 56.6011 21.2293H56.7656C59.1719 21.2293 61.1406 23.1981 61.1406 25.6043C61.1406 26.2606 60.977 26.8626 60.7582 27.4095H59.0076C58.1873 27.4095 57.4766 27.9565 57.3125 28.7222C57.0938 29.7612 57.9143 30.6907 58.8987 30.6907H61.0862C63.6565 32.5501 64.6408 35.9952 63.0002 39.2217C62.7815 39.6592 62.4533 39.9874 62.1799 40.3155C61.5237 41.0264 61.633 42.1751 62.4533 42.722C63.1643 43.2141 64.1484 43.0501 64.6953 42.4485C66.2266 40.6438 67.1018 38.3465 67.1018 35.995C67.1018 33.1512 65.8989 30.4715 63.7661 28.6122C64.1489 27.6825 64.3674 26.6434 64.3674 25.6043C64.3674 21.9403 61.7971 18.8782 58.3518 18.1126V17.9481C58.3518 14.1747 55.398 11.1122 51.6793 10.8387H51.4614H51.3513H51.2424C50.5315 10.8387 49.8201 10.9489 49.1638 11.1677C48.241 8.75803 45.9241 7.06854 43.2048 7.00205ZM26.6875 7.01059C23.8984 7.01059 21.5473 8.70676 20.5629 11.1677C19.9067 10.9489 19.1953 10.8387 18.4844 10.8387C14.5469 10.8387 11.375 14.0106 11.375 17.9481V18.0036C7.92969 18.7693 5.3049 21.8313 5.3049 25.4954C5.3049 26.5891 5.52322 27.6278 5.96072 28.6122C3.8826 30.4715 2.625 33.1512 2.625 35.995C2.625 38.5653 3.60959 40.9173 5.3049 42.722C5.3049 44.3079 5.35938 46.7137 5.35938 46.9325C5.35938 52.1278 9.46115 56.4481 14.6018 56.7762C16.2424 60.1122 19.6328 62.245 23.4062 62.245C28.8203 62.245 33.25 57.8153 33.25 52.4012V13.5731C33.25 9.96372 30.2969 7.01059 26.6875 7.01059ZM26.6875 10.2918C28.4922 10.2918 29.9688 11.7684 29.9688 13.5731V52.4012C29.9688 56.0106 27.0156 58.9637 23.4062 58.9637C20.6172 58.9637 18.1558 57.2137 17.2261 54.5887C17.0074 53.8778 16.2964 53.4403 15.5855 53.495H15.4221H15.2031C11.5938 53.495 8.64062 50.5418 8.64062 46.9325C8.64062 46.8231 8.64041 46.0036 8.6951 45.0739C9.84354 45.5661 11.1562 45.8387 12.4688 45.8387C17.8828 45.8387 22.3125 41.409 22.3125 35.995V33.2606C22.3125 32.3309 21.6016 31.62 20.6719 31.62C19.7422 31.62 19.0312 32.3309 19.0312 33.2606V35.995C19.0312 39.6043 16.0781 42.5575 12.4688 42.5575C11.2109 42.5575 10.0076 42.1755 8.96854 41.5193C7.05447 40.3161 5.90625 38.2372 5.90625 35.995C5.90625 33.8622 6.94531 31.9485 8.64062 30.6907H10.8281C11.7578 30.6907 12.4688 29.9798 12.4688 29.0501C12.4688 28.1204 11.7578 27.4095 10.8281 27.4095H9.07855C8.75043 26.8079 8.58615 26.1519 8.58615 25.4409C8.58615 23.3081 10.1174 21.5577 12.1408 21.1749C13.344 23.4717 15.6953 25.0575 18.4844 25.0575C19.4141 25.0575 20.125 24.3465 20.125 23.4168C20.125 22.4872 19.4141 21.7762 18.4844 21.7762C16.7891 21.7762 15.3129 20.6286 14.8207 19.0974C14.7661 18.9333 14.7107 18.769 14.7107 18.605V18.495C14.7107 18.3309 14.6562 18.1668 14.6562 17.9481C14.6562 15.8153 16.3516 14.12 18.4844 14.12C19.3047 14.12 20.1246 14.3936 20.7808 14.8858C21.273 15.2686 21.9301 15.3237 22.477 15.0503C23.0239 14.7769 23.4062 14.2293 23.4062 13.5731V13.5186C23.4062 11.7139 24.8828 10.2918 26.6875 10.2918ZM45.8281 23.8548C44.8984 23.8548 44.1875 24.5657 44.1875 25.4954V27.6829C44.1875 28.6126 44.8984 29.3235 45.8281 29.3235C46.7578 29.3235 47.4688 28.6126 47.4688 27.6829V25.4954C47.4688 24.5657 46.7578 23.8548 45.8281 23.8548ZM45.8281 34.4099C44.8984 34.4099 44.1875 35.1208 44.1875 36.0505C44.1875 37.363 44.4612 38.6755 44.9533 39.8786C45.2268 40.4802 45.8277 40.8624 46.4839 40.8624C46.7027 40.8624 46.9223 40.8081 47.0864 40.7534C47.9067 40.4253 48.2893 39.4407 47.9612 38.6204C47.633 37.8001 47.4688 36.9255 47.4688 36.0505C47.4688 35.1208 46.7578 34.4099 45.8281 34.4099Z"/>
</mask>
<path d="M43.2048 7.00205C43.0235 6.99762 42.8404 7.00034 42.6558 7.01059C39.2105 7.28403 36.5312 10.2921 36.5312 13.7921V54.0418C36.5312 54.9715 37.2422 55.6825 38.1719 55.6825C39.1016 55.6825 39.8125 54.9715 39.8125 54.0418V13.6831C39.8125 12.0425 40.9607 10.5653 42.6013 10.2918C44.4607 10.0184 46.1018 11.3318 46.3205 13.0818C45.1721 14.3396 44.4065 15.9798 44.4065 17.8391C44.4065 18.6595 44.8989 19.3702 45.7192 19.5342C46.7582 19.753 47.6877 18.9325 47.6877 17.9481C47.6877 15.87 49.3277 14.1747 51.4058 14.12C53.4839 14.1747 55.125 15.87 55.125 17.9481C55.125 18.3309 55.0699 18.7146 54.9605 19.0974C54.7964 19.5896 54.9058 20.1907 55.2339 20.5735C55.5621 21.011 56.0543 21.2293 56.6011 21.2293H56.7656C59.1719 21.2293 61.1406 23.1981 61.1406 25.6043C61.1406 26.2606 60.977 26.8626 60.7582 27.4095H59.0076C58.1873 27.4095 57.4766 27.9565 57.3125 28.7222C57.0938 29.7612 57.9143 30.6907 58.8987 30.6907H61.0862C63.6565 32.5501 64.6408 35.9952 63.0002 39.2217C62.7815 39.6592 62.4533 39.9874 62.1799 40.3155C61.5237 41.0264 61.633 42.1751 62.4533 42.722C63.1643 43.2141 64.1484 43.0501 64.6953 42.4485C66.2266 40.6438 67.1018 38.3465 67.1018 35.995C67.1018 33.1512 65.8989 30.4715 63.7661 28.6122C64.1489 27.6825 64.3674 26.6434 64.3674 25.6043C64.3674 21.9403 61.7971 18.8782 58.3518 18.1126V17.9481C58.3518 14.1747 55.398 11.1122 51.6793 10.8387H51.4614H51.3513H51.2424C50.5315 10.8387 49.8201 10.9489 49.1638 11.1677C48.241 8.75803 45.9241 7.06854 43.2048 7.00205ZM26.6875 7.01059C23.8984 7.01059 21.5473 8.70676 20.5629 11.1677C19.9067 10.9489 19.1953 10.8387 18.4844 10.8387C14.5469 10.8387 11.375 14.0106 11.375 17.9481V18.0036C7.92969 18.7693 5.3049 21.8313 5.3049 25.4954C5.3049 26.5891 5.52322 27.6278 5.96072 28.6122C3.8826 30.4715 2.625 33.1512 2.625 35.995C2.625 38.5653 3.60959 40.9173 5.3049 42.722C5.3049 44.3079 5.35938 46.7137 5.35938 46.9325C5.35938 52.1278 9.46115 56.4481 14.6018 56.7762C16.2424 60.1122 19.6328 62.245 23.4062 62.245C28.8203 62.245 33.25 57.8153 33.25 52.4012V13.5731C33.25 9.96372 30.2969 7.01059 26.6875 7.01059ZM26.6875 10.2918C28.4922 10.2918 29.9688 11.7684 29.9688 13.5731V52.4012C29.9688 56.0106 27.0156 58.9637 23.4062 58.9637C20.6172 58.9637 18.1558 57.2137 17.2261 54.5887C17.0074 53.8778 16.2964 53.4403 15.5855 53.495H15.4221H15.2031C11.5938 53.495 8.64062 50.5418 8.64062 46.9325C8.64062 46.8231 8.64041 46.0036 8.6951 45.0739C9.84354 45.5661 11.1562 45.8387 12.4688 45.8387C17.8828 45.8387 22.3125 41.409 22.3125 35.995V33.2606C22.3125 32.3309 21.6016 31.62 20.6719 31.62C19.7422 31.62 19.0312 32.3309 19.0312 33.2606V35.995C19.0312 39.6043 16.0781 42.5575 12.4688 42.5575C11.2109 42.5575 10.0076 42.1755 8.96854 41.5193C7.05447 40.3161 5.90625 38.2372 5.90625 35.995C5.90625 33.8622 6.94531 31.9485 8.64062 30.6907H10.8281C11.7578 30.6907 12.4688 29.9798 12.4688 29.0501C12.4688 28.1204 11.7578 27.4095 10.8281 27.4095H9.07855C8.75043 26.8079 8.58615 26.1519 8.58615 25.4409C8.58615 23.3081 10.1174 21.5577 12.1408 21.1749C13.344 23.4717 15.6953 25.0575 18.4844 25.0575C19.4141 25.0575 20.125 24.3465 20.125 23.4168C20.125 22.4872 19.4141 21.7762 18.4844 21.7762C16.7891 21.7762 15.3129 20.6286 14.8207 19.0974C14.7661 18.9333 14.7107 18.769 14.7107 18.605V18.495C14.7107 18.3309 14.6562 18.1668 14.6562 17.9481C14.6562 15.8153 16.3516 14.12 18.4844 14.12C19.3047 14.12 20.1246 14.3936 20.7808 14.8858C21.273 15.2686 21.9301 15.3237 22.477 15.0503C23.0239 14.7769 23.4062 14.2293 23.4062 13.5731V13.5186C23.4062 11.7139 24.8828 10.2918 26.6875 10.2918ZM45.8281 23.8548C44.8984 23.8548 44.1875 24.5657 44.1875 25.4954V27.6829C44.1875 28.6126 44.8984 29.3235 45.8281 29.3235C46.7578 29.3235 47.4688 28.6126 47.4688 27.6829V25.4954C47.4688 24.5657 46.7578 23.8548 45.8281 23.8548ZM45.8281 34.4099C44.8984 34.4099 44.1875 35.1208 44.1875 36.0505C44.1875 37.363 44.4612 38.6755 44.9533 39.8786C45.2268 40.4802 45.8277 40.8624 46.4839 40.8624C46.7027 40.8624 46.9223 40.8081 47.0864 40.7534C47.9067 40.4253 48.2893 39.4407 47.9612 38.6204C47.633 37.8001 47.4688 36.9255 47.4688 36.0505C47.4688 35.1208 46.7578 34.4099 45.8281 34.4099Z" fill="black" stroke="white" mask="url(#path-1-inside-1_2594_5040)"/>
<path d="M55.4678 44.625C54.4834 44.625 53.608 45.1174 53.1158 45.9377L41.5225 65.2428C41.0303 66.1178 40.9758 67.1022 41.468 67.9772C41.9602 68.8522 42.8354 69.3444 43.8745 69.3444H67.0067C67.991 69.3444 68.9209 68.8522 69.4131 67.9772C69.9053 67.1569 69.9053 66.1178 69.4131 65.2428L57.8198 45.9377C57.3276 45.1174 56.4522 44.625 55.4678 44.625ZM55.4678 51.352C56.3975 51.352 57.1084 52.0629 57.1084 52.9926V58.4614C57.1084 59.3911 56.3975 60.102 55.4678 60.102C54.5381 60.102 53.8272 59.3911 53.8272 58.4614V52.9926C53.8272 52.0629 54.5381 51.352 55.4678 51.352ZM55.4678 62.2895C56.3975 62.2895 57.1084 63.0004 57.1084 63.9301C57.1084 64.8598 56.3975 65.5707 55.4678 65.5707C54.5381 65.5707 53.8272 64.8598 53.8272 63.9301C53.8272 63.0004 54.5381 62.2895 55.4678 62.2895Z" fill="black"/>
<path d="M55.4678 44.625C54.4834 44.625 53.608 45.1174 53.1158 45.9377L41.5225 65.2428C41.0303 66.1178 40.9758 67.1022 41.468 67.9772C41.9602 68.8522 42.8354 69.3444 43.8745 69.3444H67.0067C67.991 69.3444 68.9209 68.8522 69.4131 67.9772C69.9053 67.1569 69.9053 66.1178 69.4131 65.2428L57.8198 45.9377C57.3276 45.1174 56.4522 44.625 55.4678 44.625ZM55.4678 51.352C56.3975 51.352 57.1084 52.0629 57.1084 52.9926V58.4614C57.1084 59.3911 56.3975 60.102 55.4678 60.102C54.5381 60.102 53.8272 59.3911 53.8272 58.4614V52.9926C53.8272 52.0629 54.5381 51.352 55.4678 51.352ZM55.4678 62.2895C56.3975 62.2895 57.1084 63.0004 57.1084 63.9301C57.1084 64.8598 56.3975 65.5707 55.4678 65.5707C54.5381 65.5707 53.8272 64.8598 53.8272 63.9301C53.8272 63.0004 54.5381 62.2895 55.4678 62.2895Z" stroke="white"/>
</svg>
