<svg width="70" height="70" viewBox="0 0 70 70" fill="none" xmlns="http://www.w3.org/2000/svg">
<path d="M11.4863 18.5683L11.4842 18.5701C10.9918 19.001 10.6875 19.6706 10.6875 20.3433C10.6875 21.6298 11.7295 22.6719 13.0161 22.6719H22.9688C25.2396 22.6719 27.0469 20.8646 27.0469 18.5938V7.65625C27.0469 3.85682 30.1068 0.796875 33.9062 0.796875H55.2344C59.0338 0.796875 62.0938 3.85682 62.0938 7.65625V62.3438C62.0938 66.1432 59.0338 69.2031 55.2344 69.2031H14.7656C10.9662 69.2031 7.90625 66.1432 7.90625 62.3438V32.2656C7.90625 31.474 8.50526 30.875 9.29688 30.875C10.0885 30.875 10.6875 31.474 10.6875 32.2656V62.3438C10.6875 64.6146 12.4947 66.4219 14.7656 66.4219H55.2344C57.5053 66.4219 59.3125 64.6146 59.3125 62.3438V7.65625C59.3125 5.38537 57.5053 3.57812 55.2344 3.57812H33.9062C31.6354 3.57812 29.8281 5.38537 29.8281 7.65625V18.5938C29.8281 22.3932 26.7682 25.4531 22.9688 25.4531H13.0161C10.201 25.4531 7.90625 23.1584 7.90625 20.3433C7.90625 18.8283 8.53237 17.4218 9.67856 16.4316C9.67879 16.4314 9.67902 16.4312 9.67924 16.431L19.9039 7.73777L19.904 7.7379L19.9109 7.73159C20.4619 7.22653 21.3382 7.26899 21.8486 7.87221L21.8485 7.87234L21.8552 7.87965C22.3601 8.4304 22.317 9.30678 21.7135 9.81739L21.7125 9.81829L11.4863 18.5683L11.4863 18.5683ZM22.6719 35C22.6719 34.2084 23.2709 33.6094 24.0625 33.6094H45.9375C46.7291 33.6094 47.3281 34.2084 47.3281 35C47.3281 35.7916 46.7291 36.3906 45.9375 36.3906H24.0625C23.2709 36.3906 22.6719 35.7916 22.6719 35ZM22.6719 43.2031C22.6719 42.4115 23.2709 41.8125 24.0625 41.8125H45.9375C46.7291 41.8125 47.3281 42.4115 47.3281 43.2031C47.3281 43.9947 46.7291 44.5938 45.9375 44.5938H24.0625C23.2709 44.5938 22.6719 43.9947 22.6719 43.2031ZM22.6719 51.4062C22.6719 50.6146 23.2709 50.0156 24.0625 50.0156H45.9375C46.7291 50.0156 47.3281 50.6146 47.3281 51.4062C47.3281 52.1979 46.7291 52.7969 45.9375 52.7969H24.0625C23.2709 52.7969 22.6719 52.1979 22.6719 51.4062Z" fill="black" stroke="white" stroke-width="0.5"/>
</svg>
