<svg width="70" height="70" viewBox="0 0 70 70" fill="none" xmlns="http://www.w3.org/2000/svg">
<path d="M7.40625 57.9688V58.2188H7.65625H26.6324C27.424 58.2188 28.023 58.8178 28.023 59.6094C28.023 60.401 27.424 61 26.6324 61H6.01562C5.22401 61 4.625 60.401 4.625 59.6094V2.1875C4.625 1.39588 5.22401 0.796875 6.01562 0.796875H50.3125C51.1041 0.796875 51.7031 1.39588 51.7031 2.1875V24.117C51.7031 24.9086 51.1041 25.5076 50.3125 25.5076C49.5209 25.5076 48.9219 24.9086 48.9219 24.117V3.82812V3.57812H48.6719H7.65625H7.40625V3.82812V57.9688ZM18.011 33.4184L18.011 33.4184L18.0064 33.4158C17.3632 33.0482 17.1279 32.1634 17.4978 31.5153C19.6956 27.7099 23.7695 25.3518 28.1641 25.3518C30.6281 25.3518 33.0393 26.1015 35.0756 27.4941C35.7262 27.9603 35.8666 28.79 35.4488 29.4454C34.9815 30.0945 34.1516 30.234 33.4971 29.815C31.9243 28.7485 30.0737 28.1891 28.1714 28.1331L28.1714 28.133H28.1641C24.794 28.133 21.5954 29.9848 19.91 32.9046C19.6286 33.3722 19.1644 33.6018 18.7027 33.6018C18.4656 33.6018 18.2386 33.555 18.011 33.4184ZM60.3875 62.3314L60.2252 62.1692L60.0497 62.317C56.9759 64.9055 52.9858 66.4688 48.6719 66.4688C38.8568 66.4688 30.875 58.4869 30.875 48.6719C30.875 38.8568 38.8568 30.875 48.6719 30.875C58.4869 30.875 66.4688 38.8568 66.4688 48.6719C66.4688 52.9858 64.9055 56.9759 62.317 60.0497L62.1692 60.2252L62.3314 60.3875L68.7839 66.841L68.7838 66.8412L68.7918 66.8486C69.3355 67.3469 69.347 68.2209 68.784 68.784C68.5027 69.0652 68.129 69.2031 67.8125 69.2031C67.496 69.2031 67.1223 69.0652 66.8411 68.784L66.6643 68.9607L66.841 68.7839L60.3875 62.3314ZM21.3047 15.8594C21.3047 12.0599 24.3646 9 28.1641 9C31.9635 9 35.0234 12.0599 35.0234 15.8594C35.0234 19.6588 31.9635 22.7188 28.1641 22.7188C24.3646 22.7188 21.3047 19.6588 21.3047 15.8594ZM32.2422 15.8594C32.2422 13.5885 30.4349 11.7812 28.1641 11.7812C25.8932 11.7812 24.0859 13.5885 24.0859 15.8594C24.0859 18.1303 25.8932 19.9375 28.1641 19.9375C30.4349 19.9375 32.2422 18.1303 32.2422 15.8594ZM63.6875 48.6719C63.6875 40.3854 56.9584 33.6562 48.6719 33.6562C40.3854 33.6562 33.6562 40.3854 33.6562 48.6719C33.6562 56.9584 40.3854 63.6875 48.6719 63.6875C56.9584 63.6875 63.6875 56.9584 63.6875 48.6719ZM15.5625 40.4688C15.5625 39.6771 16.1615 39.0781 16.9531 39.0781H25.4842C26.2758 39.0781 26.8748 39.6771 26.8748 40.4688C26.8748 41.255 26.2265 41.8594 25.4842 41.8594H16.9531C16.1615 41.8594 15.5625 41.2604 15.5625 40.4688ZM15.5625 48.6719C15.5625 47.8803 16.1615 47.2812 16.9531 47.2812H24.0625C24.8541 47.2812 25.4531 47.8803 25.4531 48.6719C25.4531 49.4635 24.8541 50.0625 24.0625 50.0625H16.9531C16.1615 50.0625 15.5625 49.4635 15.5625 48.6719Z" fill="black" stroke="white" stroke-width="0.5"/>
</svg>
