<svg width="70" height="70" viewBox="0 0 70 70" fill="none" xmlns="http://www.w3.org/2000/svg">
<path d="M33.1396 9.13245L33.3305 9.08596V8.88956V4.82166C33.3305 3.92463 34.0014 3.25 34.8805 3.25C35.7596 3.25 36.4305 3.92463 36.4305 4.82166V8.88956V9.08508L36.6202 9.13219C39.6899 9.8942 42.0098 12.7099 42.0098 16.1157V20.7908C42.0098 23.5372 43.2429 26.2139 45.3305 28.1402L45.3304 28.1403L45.3343 28.1437C48.6393 31.0704 50.5305 35.3736 50.5305 39.7973C50.5305 43.9819 48.9355 47.927 46.0399 50.9779C43.0871 53.9653 39.1921 55.5781 35.0598 55.5781C34.8931 55.5781 34.7394 55.5639 34.5733 55.5484L34.5691 55.548C34.4091 55.533 34.2373 55.5169 34.0491 55.5164C26.3173 54.9747 20.1205 48.8211 19.5298 41.0538C19.1753 36.1492 21.0066 31.4288 24.667 28.1425L24.667 28.1425L24.669 28.1407C26.6432 26.33 27.75 23.7116 27.75 20.9735V16.1157C27.75 12.7674 30.014 9.89398 33.1396 9.13245ZM35.008 12.1255L34.9303 12.0363L34.8121 12.0399C32.6385 12.1046 30.85 13.9145 30.85 16.1157V19.9405V20.1905H31.1H36.3195H36.5695V19.9405V16.1157C36.5695 14.5884 35.9409 13.1955 35.008 12.1255ZM30.8598 23.2733H30.6543L30.6145 23.4748C30.0841 26.1587 28.7295 28.6596 26.7335 30.442L26.7335 30.442L26.7302 30.4451C23.8564 33.1059 22.3254 36.8221 22.6311 40.7868C23.0602 46.9831 28.0784 51.9397 34.2034 52.3121C37.8188 52.5599 41.2481 51.1944 43.8158 48.6578C46.2047 46.3022 47.4902 43.1414 47.4902 39.7973C47.4902 36.2053 45.9603 32.7986 43.328 30.4435C41.2649 28.534 39.8519 26.0888 39.2635 23.4685L39.2196 23.2733H39.0195H30.8598ZM16.0974 58.8699L16.0975 58.8698L16.0896 58.8624C15.4806 58.2975 15.4692 57.3073 16.0974 56.6715L18.0778 54.6672C18.3908 54.3505 18.7913 54.1948 19.182 54.1948C19.5725 54.1948 19.9539 54.3499 20.2342 54.6593L20.2415 54.6674L20.2495 54.6748C20.8585 55.2397 20.8699 56.2311 20.2417 56.8668L18.2624 58.8699C17.9458 59.1904 17.5887 59.3424 17.1805 59.3424C16.8276 59.3424 16.4106 59.1869 16.0974 58.8699ZM49.7583 54.6672L49.7585 54.6674L49.7658 54.6593C50.0461 54.3499 50.4275 54.1948 50.818 54.1948C51.2087 54.1948 51.6092 54.3505 51.9222 54.6672L53.9026 56.6715L53.9025 56.6717L53.9104 56.6791C54.5194 57.244 54.5308 58.2342 53.9026 58.8699C53.5862 59.1902 53.228 59.3424 52.8195 59.3424C52.4668 59.3424 52.0509 59.1871 51.7376 58.8699L49.7583 56.8668L49.7585 56.8667L49.7505 56.8593C49.1415 56.2943 49.1301 55.303 49.7583 54.6672ZM8.25 39.7973C8.25 38.9002 8.92088 38.2256 9.8 38.2256H12.6195C13.4986 38.2256 14.1695 38.9002 14.1695 39.7973C14.1695 40.6943 13.4987 41.3689 12.6195 41.3689H9.8C8.92088 41.3689 8.25 40.6943 8.25 39.7973ZM55.8305 39.7973C55.8305 38.9002 56.5014 38.2256 57.3805 38.2256H60.2C61.0791 38.2256 61.75 38.9002 61.75 39.7973C61.75 40.6943 61.0791 41.3689 60.2 41.3689H57.3805C56.5559 41.3689 55.8305 40.6889 55.8305 39.7973ZM33.45 62.3854C33.45 61.4883 34.1209 60.8137 35 60.8137C35.8791 60.8137 36.55 61.4883 36.55 62.3854V65.1783C36.55 66.0754 35.8791 66.75 35 66.75C34.1209 66.75 33.45 66.0754 33.45 65.1783V62.3854Z" fill="black" stroke="white" stroke-width="0.5"/>
</svg>
