<svg width="70" height="70" viewBox="0 0 70 70" fill="none" xmlns="http://www.w3.org/2000/svg">
<g clip-path="url(#clip0_2703_15900)">
<mask id="path-1-inside-1_2703_15900" fill="white">
<path d="M7.65625 0.546875C3.71875 0.546875 0.546875 3.71875 0.546875 7.65625V27.3438C0.546875 28.2734 1.25781 28.9844 2.1875 28.9844C3.11719 28.9844 3.82812 28.2734 3.82812 27.3438V19.1406H66.1719V27.3438C66.1719 28.2734 66.8828 28.9844 67.8125 28.9844C68.7422 28.9844 69.4531 28.2734 69.4531 27.3438V7.65625C69.4531 3.71875 66.2812 0.546875 62.3438 0.546875H7.65625ZM7.65625 3.82812H62.3438C64.4766 3.82812 66.1719 5.52344 66.1719 7.65625V15.8594H3.82812V7.65625C3.82812 5.52344 5.52344 3.82812 7.65625 3.82812ZM9.84375 8.20312C8.91406 8.20312 8.20312 8.91406 8.20312 9.84375C8.20312 10.7734 8.91406 11.4844 9.84375 11.4844H12.0312C12.9609 11.4844 13.6719 10.7734 13.6719 9.84375C13.6719 8.91406 12.9609 8.20312 12.0312 8.20312H9.84375ZM18.5938 8.20312C17.6641 8.20312 16.9531 8.91406 16.9531 9.84375C16.9531 10.7734 17.6641 11.4844 18.5938 11.4844H20.7812C21.7109 11.4844 22.4219 10.7734 22.4219 9.84375C22.4219 8.91406 21.7109 8.20312 20.7812 8.20312H18.5938ZM51.9307 21.9209C51.5949 21.9061 51.2556 21.909 50.9138 21.9295C45.8826 22.1482 41.7812 26.3049 41.5625 31.3908C41.5078 33.2502 41.9455 35.1089 42.8752 36.7496L38.2812 36.6406H26.1411C24.9379 36.6406 23.7893 37.1877 23.1877 38.2268C22.5862 39.2658 22.5315 40.5234 23.1877 41.5625C23.4065 41.9453 23.5705 42.3277 23.7346 42.7652C24.1721 44.023 24.1719 45.3908 23.7891 46.7033C23.1328 49.1096 21.0547 50.9143 18.5938 51.3518C16.5156 51.6799 14.4918 51.0777 12.9605 49.6011C11.648 48.3433 10.9375 46.6484 10.9375 44.8438C10.9375 43.6953 11.2654 42.5469 11.8123 41.5625C12.4138 40.5234 12.4138 39.2658 11.8123 38.2268C11.2107 37.1877 10.0074 36.6406 8.85895 36.6406H2.1875C1.25781 36.6406 0.546875 37.3516 0.546875 38.2812V62.3438C0.546875 66.2812 3.71875 69.4531 7.65625 69.4531H35H37.1875H62.3438C66.2812 69.4531 69.4531 66.8281 69.4531 62.8906V38.2812C69.4531 37.3516 68.7422 36.6406 67.8125 36.6406H59.9373C60.8123 35.1641 61.25 33.4688 61.25 31.7188C61.25 28.9844 60.1565 26.4688 58.1877 24.6094C56.4651 22.9824 54.2814 22.0249 51.9307 21.9209ZM51.6423 25.1509C53.2042 25.2204 54.6873 25.8608 55.8357 26.9614C57.1482 28.2192 57.8598 29.9141 57.8598 31.7188C57.8598 32.8672 57.5308 34.0156 56.9839 35C56.3824 35.9844 56.3824 37.2424 56.9839 38.2268C57.5855 39.2658 58.6799 39.8674 59.8283 39.8674H66.1719V62.8906C66.1719 65.0234 64.4766 66.1719 62.3438 66.1719H37.0786H36.6406V61.5779C38.1172 62.4529 39.8125 62.8906 41.5625 62.8906C44.2969 62.8906 46.8125 61.7971 48.6719 59.8283C50.5312 57.8596 51.5158 55.2888 51.3518 52.5545C51.133 47.5232 46.9763 43.4219 41.8904 43.2031C40.031 43.1484 38.1723 43.5862 36.5317 44.5158V39.8674H42.7652C43.9683 39.8674 45.0627 39.2112 45.6096 38.2268C46.1565 37.2424 46.2112 35.9844 45.6096 35C45.008 33.9062 44.6801 32.7031 44.7348 31.4453C44.8442 28.0547 47.5777 25.3203 50.9683 25.1562C51.1939 25.1426 51.4192 25.141 51.6423 25.1509ZM26.031 39.8674H33.3594V44.4614C33.3594 45.6645 34.0156 46.7578 35 47.3047C36.0391 47.9062 37.2424 47.9062 38.2268 47.3047C39.3205 46.7031 40.5237 46.3752 41.7815 46.4299C45.1721 46.5393 47.9065 49.2739 48.0705 52.6645C48.1799 54.4692 47.5232 56.2183 46.2654 57.5308C45.0076 58.8433 43.3127 59.5549 41.508 59.5549C40.3596 59.5549 39.2112 59.227 38.2268 58.6801C37.2424 58.0786 35.9844 58.0786 35 58.6801C34.0156 59.2817 33.3594 60.3748 33.3594 61.5779V66.1719H7.10938C5.30469 66.1719 3.82812 64.6953 3.82812 62.8906V39.9219H8.96896C8.09396 41.3984 7.65625 43.0938 7.65625 44.8438C7.65625 47.5781 8.74979 50.0938 10.7185 51.9531C12.6873 53.8125 15.258 54.7971 17.9924 54.633C23.0237 54.4143 27.125 50.2576 27.3438 45.1717C27.3984 43.9685 27.2342 42.7652 26.8513 41.6714C26.6326 41.0699 26.3592 40.4143 26.031 39.8674Z"/>
</mask>
<path d="M7.65625 0.546875C3.71875 0.546875 0.546875 3.71875 0.546875 7.65625V27.3438C0.546875 28.2734 1.25781 28.9844 2.1875 28.9844C3.11719 28.9844 3.82812 28.2734 3.82812 27.3438V19.1406H66.1719V27.3438C66.1719 28.2734 66.8828 28.9844 67.8125 28.9844C68.7422 28.9844 69.4531 28.2734 69.4531 27.3438V7.65625C69.4531 3.71875 66.2812 0.546875 62.3438 0.546875H7.65625ZM7.65625 3.82812H62.3438C64.4766 3.82812 66.1719 5.52344 66.1719 7.65625V15.8594H3.82812V7.65625C3.82812 5.52344 5.52344 3.82812 7.65625 3.82812ZM9.84375 8.20312C8.91406 8.20312 8.20312 8.91406 8.20312 9.84375C8.20312 10.7734 8.91406 11.4844 9.84375 11.4844H12.0312C12.9609 11.4844 13.6719 10.7734 13.6719 9.84375C13.6719 8.91406 12.9609 8.20312 12.0312 8.20312H9.84375ZM18.5938 8.20312C17.6641 8.20312 16.9531 8.91406 16.9531 9.84375C16.9531 10.7734 17.6641 11.4844 18.5938 11.4844H20.7812C21.7109 11.4844 22.4219 10.7734 22.4219 9.84375C22.4219 8.91406 21.7109 8.20312 20.7812 8.20312H18.5938ZM51.9307 21.9209C51.5949 21.9061 51.2556 21.909 50.9138 21.9295C45.8826 22.1482 41.7812 26.3049 41.5625 31.3908C41.5078 33.2502 41.9455 35.1089 42.8752 36.7496L38.2812 36.6406H26.1411C24.9379 36.6406 23.7893 37.1877 23.1877 38.2268C22.5862 39.2658 22.5315 40.5234 23.1877 41.5625C23.4065 41.9453 23.5705 42.3277 23.7346 42.7652C24.1721 44.023 24.1719 45.3908 23.7891 46.7033C23.1328 49.1096 21.0547 50.9143 18.5938 51.3518C16.5156 51.6799 14.4918 51.0777 12.9605 49.6011C11.648 48.3433 10.9375 46.6484 10.9375 44.8438C10.9375 43.6953 11.2654 42.5469 11.8123 41.5625C12.4138 40.5234 12.4138 39.2658 11.8123 38.2268C11.2107 37.1877 10.0074 36.6406 8.85895 36.6406H2.1875C1.25781 36.6406 0.546875 37.3516 0.546875 38.2812V62.3438C0.546875 66.2812 3.71875 69.4531 7.65625 69.4531H35H37.1875H62.3438C66.2812 69.4531 69.4531 66.8281 69.4531 62.8906V38.2812C69.4531 37.3516 68.7422 36.6406 67.8125 36.6406H59.9373C60.8123 35.1641 61.25 33.4688 61.25 31.7188C61.25 28.9844 60.1565 26.4688 58.1877 24.6094C56.4651 22.9824 54.2814 22.0249 51.9307 21.9209ZM51.6423 25.1509C53.2042 25.2204 54.6873 25.8608 55.8357 26.9614C57.1482 28.2192 57.8598 29.9141 57.8598 31.7188C57.8598 32.8672 57.5308 34.0156 56.9839 35C56.3824 35.9844 56.3824 37.2424 56.9839 38.2268C57.5855 39.2658 58.6799 39.8674 59.8283 39.8674H66.1719V62.8906C66.1719 65.0234 64.4766 66.1719 62.3438 66.1719H37.0786H36.6406V61.5779C38.1172 62.4529 39.8125 62.8906 41.5625 62.8906C44.2969 62.8906 46.8125 61.7971 48.6719 59.8283C50.5312 57.8596 51.5158 55.2888 51.3518 52.5545C51.133 47.5232 46.9763 43.4219 41.8904 43.2031C40.031 43.1484 38.1723 43.5862 36.5317 44.5158V39.8674H42.7652C43.9683 39.8674 45.0627 39.2112 45.6096 38.2268C46.1565 37.2424 46.2112 35.9844 45.6096 35C45.008 33.9062 44.6801 32.7031 44.7348 31.4453C44.8442 28.0547 47.5777 25.3203 50.9683 25.1562C51.1939 25.1426 51.4192 25.141 51.6423 25.1509ZM26.031 39.8674H33.3594V44.4614C33.3594 45.6645 34.0156 46.7578 35 47.3047C36.0391 47.9062 37.2424 47.9062 38.2268 47.3047C39.3205 46.7031 40.5237 46.3752 41.7815 46.4299C45.1721 46.5393 47.9065 49.2739 48.0705 52.6645C48.1799 54.4692 47.5232 56.2183 46.2654 57.5308C45.0076 58.8433 43.3127 59.5549 41.508 59.5549C40.3596 59.5549 39.2112 59.227 38.2268 58.6801C37.2424 58.0786 35.9844 58.0786 35 58.6801C34.0156 59.2817 33.3594 60.3748 33.3594 61.5779V66.1719H7.10938C5.30469 66.1719 3.82812 64.6953 3.82812 62.8906V39.9219H8.96896C8.09396 41.3984 7.65625 43.0938 7.65625 44.8438C7.65625 47.5781 8.74979 50.0938 10.7185 51.9531C12.6873 53.8125 15.258 54.7971 17.9924 54.633C23.0237 54.4143 27.125 50.2576 27.3438 45.1717C27.3984 43.9685 27.2342 42.7652 26.8513 41.6714C26.6326 41.0699 26.3592 40.4143 26.031 39.8674Z" fill="black" stroke="white" mask="url(#path-1-inside-1_2703_15900)"/>
</g>
<defs>
<clipPath id="clip0_2703_15900">
<rect width="70" height="70" fill="white"/>
</clipPath>
</defs>
</svg>
