<svg width="70" height="70" viewBox="0 0 70 70" fill="none" xmlns="http://www.w3.org/2000/svg">
<g clip-path="url(#clip0_2703_15866)">
<path d="M3.82812 18.8906H3.57812V19.1406V62.3438C3.57812 64.6146 5.38537 66.4219 7.65625 66.4219H13.125C13.9112 66.4219 14.5156 67.0701 14.5156 67.8125V67.867C14.5156 68.6039 13.9164 69.2031 13.1795 69.2031H7.65625C3.85682 69.2031 0.796875 66.1432 0.796875 62.3438V15.3125V7.65625C0.796875 3.85682 3.85682 0.796875 7.65625 0.796875H62.3438C66.1432 0.796875 69.2031 3.85682 69.2031 7.65625V23.5156C69.2031 24.1623 68.7965 24.7053 68.1673 24.8518H68.1404H68.113L68.0862 24.8577C67.2561 25.0422 66.4219 24.3929 66.4219 23.5156V19.1406V18.8906H66.1719H3.82812ZM66.1719 16.1094H66.4219V15.8594V7.65625C66.4219 5.38537 64.6146 3.57812 62.3438 3.57812H7.65625C5.38537 3.57812 3.57812 5.38537 3.57812 7.65625V15.8594V16.1094H3.82812H66.1719ZM26.0071 46.1185L26.0071 46.1184C26.7098 35.4156 35.3599 26.7638 46.0641 26.007L46.0464 25.7576L46.0641 26.007C46.446 25.9799 46.8275 25.9629 47.2072 25.9552C52.8995 25.84 58.2892 27.8924 62.4449 31.8454L62.4449 31.8455C66.8237 36.008 69.2571 41.8472 69.2031 47.8491C69.0405 59.6302 59.203 69.2031 47.1957 69.2031H27.3982C26.8531 69.2031 26.3338 68.8353 26.0952 68.3104C25.868 67.8104 26.0032 67.2106 26.3719 66.8415C26.372 66.8413 26.3722 66.8412 26.3723 66.841L31.1832 62.0836L31.348 61.9206L31.1979 61.7439C27.5205 57.4175 25.6286 51.8493 26.0071 46.1185ZM66.4763 47.8556L66.4763 47.8542C66.5318 42.5894 64.3712 37.4916 60.5466 33.8888C56.9105 30.4605 52.2005 28.6376 47.2417 28.743C46.9114 28.75 46.5799 28.7653 46.2474 28.7895C36.9364 29.4547 29.3994 36.9904 28.7894 46.3031C28.4017 51.8443 30.3429 57.0009 34.2763 60.9344L34.2844 60.9424L34.2931 60.9497C34.552 61.1654 34.6955 61.525 34.6955 61.9058C34.6955 62.2727 34.5607 62.594 34.2763 62.8783L31.1596 65.9951L30.7328 66.4219H31.3364H47.1957C57.663 66.4219 66.31 58.1144 66.4763 47.8556ZM8.45312 9.84375C8.45312 9.05213 9.05213 8.45312 9.84375 8.45312H12.0312C12.8229 8.45312 13.4219 9.05213 13.4219 9.84375C13.4219 10.6354 12.8229 11.2344 12.0312 11.2344H9.84375C9.05213 11.2344 8.45312 10.6354 8.45312 9.84375ZM17.2031 9.84375C17.2031 9.05213 17.8021 8.45312 18.5938 8.45312H20.7812C21.5729 8.45312 22.1719 9.05213 22.1719 9.84375C22.1719 10.6354 21.5729 11.2344 20.7812 11.2344H18.5938C17.8021 11.2344 17.2031 10.6354 17.2031 9.84375ZM37.9844 43.75C37.9844 42.9584 38.5834 42.3594 39.375 42.3594H55.7812C56.5729 42.3594 57.1719 42.9584 57.1719 43.75C57.1719 44.5416 56.5729 45.1406 55.7812 45.1406H39.375C38.5834 45.1406 37.9844 44.5416 37.9844 43.75ZM37.9844 51.4062C37.9844 50.6146 38.5834 50.0156 39.375 50.0156H46.4844C47.276 50.0156 47.875 50.6146 47.875 51.4062C47.875 52.1979 47.276 52.7969 46.4844 52.7969H39.375C38.5834 52.7969 37.9844 52.1979 37.9844 51.4062ZM51.6562 51.4062C51.6562 50.6146 52.2553 50.0156 53.0469 50.0156H55.7812C56.5729 50.0156 57.1719 50.6146 57.1719 51.4062C57.1719 52.1979 56.5729 52.7969 55.7812 52.7969H53.0469C52.2553 52.7969 51.6562 52.1979 51.6562 51.4062Z" fill="black" stroke="white" stroke-width="0.5"/>
</g>
<defs>
<clipPath id="clip0_2703_15866">
<rect width="70" height="70" fill="white"/>
</clipPath>
</defs>
</svg>
