<svg width="70" height="70" viewBox="0 0 70 70" fill="none" xmlns="http://www.w3.org/2000/svg">
<path d="M45.6406 6.5625V6.3125H45.3906H17.5C15.2291 6.3125 13.4219 8.11974 13.4219 10.3906V59.6638C13.4219 60.8269 13.9011 61.8387 14.4981 62.5579C14.7968 62.9178 15.1292 63.2097 15.454 63.4133C15.7738 63.6137 16.1079 63.742 16.4062 63.742H52.5C53.6009 63.742 54.6543 63.3358 55.4176 62.5139C56.1693 61.7044 56.5781 60.7147 56.5781 59.6094V22.9688C56.5781 22.1771 57.1771 21.5781 57.9688 21.5781C58.7604 21.5781 59.3594 22.1771 59.3594 22.9688V59.6094C59.3594 61.4571 58.6744 63.1422 57.3559 64.4616C56.0316 65.7321 54.3435 66.4688 52.5 66.4688H16.4062C15.1009 66.4688 13.6599 65.7349 12.538 64.4935C11.4199 63.2563 10.6406 61.5373 10.6406 59.6094V10.3906C10.6406 6.5912 13.7006 3.53125 17.5 3.53125H47.0312C50.2987 3.53125 53.4084 4.81551 55.8244 7.12265C58.0756 9.42897 59.3598 12.4292 59.4138 15.6425V15.8594C59.4138 16.0353 59.3707 16.2156 59.2768 16.4034C59.0395 16.878 58.5172 17.25 57.9688 17.25H57.7498H52.5C48.7006 17.25 45.6406 14.1901 45.6406 10.3906V6.5625ZM48.7153 6.48079L48.4219 6.42901V6.72699V10.3906C48.4219 12.6615 50.2291 14.4688 52.5 14.4688H56.1636H56.4616L56.4098 14.1753C56.0728 12.2654 55.174 10.5236 53.7705 9.1201C52.367 7.71662 50.6252 6.81783 48.7153 6.48079ZM27.0469 15.8594C27.0469 15.0678 27.6459 14.4688 28.4375 14.4688H41.5625C42.3541 14.4688 42.9531 15.0678 42.9531 15.8594C42.9531 16.651 42.3541 17.25 41.5625 17.25H28.4375C27.6459 17.25 27.0469 16.651 27.0469 15.8594ZM21.5781 32.2656C21.5781 31.474 22.1771 30.875 22.9688 30.875H47.0312C47.8229 30.875 48.4219 31.474 48.4219 32.2656C48.4219 33.0572 47.8229 33.6562 47.0312 33.6562H22.9688C22.1771 33.6562 21.5781 33.0572 21.5781 32.2656ZM21.5781 40.4688C21.5781 39.6771 22.1771 39.0781 22.9688 39.0781H47.0312C47.8229 39.0781 48.4219 39.6771 48.4219 40.4688C48.4219 41.2604 47.8229 41.8594 47.0312 41.8594H22.9688C22.1771 41.8594 21.5781 41.2604 21.5781 40.4688ZM21.6871 48.6719C21.6871 47.8803 22.2861 47.2812 23.0777 47.2812H38.9371C39.7287 47.2812 40.3277 47.8803 40.3277 48.6719C40.3277 49.4635 39.7287 50.0625 38.9371 50.0625H23.0777C22.2861 50.0625 21.6871 49.4635 21.6871 48.6719ZM46.0479 47.6886C46.3087 47.4278 46.6624 47.2812 47.0312 47.2812C47.4001 47.2812 47.7538 47.4278 48.0146 47.6886C48.2754 47.9493 48.4219 48.3031 48.4219 48.6719C48.4219 49.0407 48.2754 49.3944 48.0146 49.6552C47.7538 49.916 47.4001 50.0625 47.0312 50.0625C46.6624 50.0625 46.3087 49.916 46.0479 49.6552C45.7871 49.3944 45.6406 49.0407 45.6406 48.6719C45.6406 48.3031 45.7871 47.9493 46.0479 47.6886Z" fill="black" stroke="white" stroke-width="0.5"/>
</svg>
