<svg width="70" height="70" viewBox="0 0 70 70" fill="none" xmlns="http://www.w3.org/2000/svg">
<g clip-path="url(#clip0_2703_15880)">
<mask id="path-1-inside-1_2703_15880" fill="white">
<path d="M69.4531 7.65625C69.4531 3.71875 66.2812 0.546875 62.3438 0.546875H54.1406C53.2109 0.546875 52.5 1.25781 52.5 2.1875C52.5 3.11719 53.2109 3.82812 54.1406 3.82812H62.3438C64.4766 3.82812 66.1719 5.52344 66.1719 7.65625V15.8594C66.1719 16.7891 66.8828 17.5 67.8125 17.5C68.7422 17.5 69.4531 16.7891 69.4531 15.8594V7.65625ZM2.1875 17.5C3.11719 17.5 3.82812 16.7891 3.82812 15.8594V7.65625C3.82812 5.52344 5.52344 3.82812 7.65625 3.82812H15.8594C16.7891 3.82812 17.5 3.11719 17.5 2.1875C17.5 1.25781 16.7891 0.546875 15.8594 0.546875H7.65625C3.71875 0.546875 0.546875 3.71875 0.546875 7.65625V15.8594C0.546875 16.7891 1.25781 17.5 2.1875 17.5ZM7.65625 69.4531H15.8594C16.7891 69.4531 17.5 68.7422 17.5 67.8125C17.5 66.8828 16.7891 66.1719 15.8594 66.1719H7.65625C5.52344 66.1719 3.82812 64.4766 3.82812 62.3438V54.1406C3.82812 53.2109 3.11719 52.5 2.1875 52.5C1.25781 52.5 0.546875 53.2109 0.546875 54.1406V62.3438C0.546875 66.2812 3.71875 69.4531 7.65625 69.4531ZM69.4531 62.3438V54.1406C69.4531 53.2109 68.7422 52.5 67.8125 52.5C66.8828 52.5 66.1719 53.2109 66.1719 54.1406V62.3438C66.1719 64.4766 64.4766 66.1719 62.3438 66.1719H54.1406C53.2109 66.1719 52.5 66.8828 52.5 67.8125C52.5 68.7422 53.2109 69.4531 54.1406 69.4531H62.3438C66.2812 69.4531 69.4531 66.2812 69.4531 62.3438ZM56.875 44.2969H45.9375C45.0078 44.2969 44.2969 45.0078 44.2969 45.9375V56.875C44.2969 57.8047 45.0078 58.5156 45.9375 58.5156H56.875C57.8047 58.5156 58.5156 57.8047 58.5156 56.875V45.9375C58.5156 45.0078 57.8047 44.2969 56.875 44.2969ZM55.2344 55.2344H47.5781V47.5781H55.2344V55.2344ZM31.7188 58.5156C32.6484 58.5156 33.3594 57.8047 33.3594 56.875V53.0469H38.2812C39.2109 53.0469 39.9219 52.3359 39.9219 51.4062V40.4688C39.9219 39.5391 39.2109 38.8281 38.2812 38.8281C37.3516 38.8281 36.6406 39.5391 36.6406 40.4688V49.7656H31.7188C30.7891 49.7656 30.0781 50.4766 30.0781 51.4062V56.875C30.0781 57.8047 30.7891 58.5156 31.7188 58.5156ZM56.875 25.7031C57.8047 25.7031 58.5156 24.9922 58.5156 24.0625V13.125C58.5156 12.1953 57.8047 11.4844 56.875 11.4844H45.9375C45.0078 11.4844 44.2969 12.1953 44.2969 13.125V24.0625C44.2969 24.9922 45.0078 25.7031 45.9375 25.7031H56.875ZM47.5781 14.7656H55.2344V22.4219H47.5781V14.7656ZM13.125 25.7031H24.0625C24.9922 25.7031 25.7031 24.9922 25.7031 24.0625V13.125C25.7031 12.1953 24.9922 11.4844 24.0625 11.4844H13.125C12.1953 11.4844 11.4844 12.1953 11.4844 13.125V24.0625C11.4844 24.9922 12.1953 25.7031 13.125 25.7031ZM14.7656 14.7656H22.4219V22.4219H14.7656V14.7656ZM13.125 36.6406H15.8594C16.7891 36.6406 17.5 35.9297 17.5 35C17.5 34.0703 16.7891 33.3594 15.8594 33.3594H13.125C12.1953 33.3594 11.4844 34.0703 11.4844 35C11.4844 35.9297 12.1953 36.6406 13.125 36.6406ZM31.7188 36.6406C32.6484 36.6406 33.3594 35.9297 33.3594 35V25.7031H38.2812C39.2109 25.7031 39.9219 24.9922 39.9219 24.0625V13.125C39.9219 12.1953 39.2109 11.4844 38.2812 11.4844C37.3516 11.4844 36.6406 12.1953 36.6406 13.125V22.4219H31.7188C30.7891 22.4219 30.0781 23.1328 30.0781 24.0625V33.3594H26.7969C25.8672 33.3594 25.1562 34.0703 25.1562 35C25.1562 35.9297 25.8672 36.6406 26.7969 36.6406H31.7188ZM41.5625 31.7188C41.5625 32.6484 42.2734 33.3594 43.2031 33.3594H48.125V38.2812C48.125 39.2109 48.8359 39.9219 49.7656 39.9219H56.875C57.8047 39.9219 58.5156 39.2109 58.5156 38.2812C58.5156 37.3516 57.8047 36.6406 56.875 36.6406H51.4062V31.7188C51.4062 30.7891 50.6953 30.0781 49.7656 30.0781H43.2031C42.2734 30.0781 41.5625 30.7891 41.5625 31.7188ZM25.7031 56.875V45.9375C25.7031 45.0078 24.9922 44.2969 24.0625 44.2969H13.125C12.1953 44.2969 11.4844 45.0078 11.4844 45.9375V56.875C11.4844 57.8047 12.1953 58.5156 13.125 58.5156H24.0625C24.9922 58.5156 25.7031 57.8047 25.7031 56.875ZM22.4219 55.2344H14.7656V47.5781H22.4219V55.2344Z"/>
</mask>
<path d="M69.4531 7.65625C69.4531 3.71875 66.2812 0.546875 62.3438 0.546875H54.1406C53.2109 0.546875 52.5 1.25781 52.5 2.1875C52.5 3.11719 53.2109 3.82812 54.1406 3.82812H62.3438C64.4766 3.82812 66.1719 5.52344 66.1719 7.65625V15.8594C66.1719 16.7891 66.8828 17.5 67.8125 17.5C68.7422 17.5 69.4531 16.7891 69.4531 15.8594V7.65625ZM2.1875 17.5C3.11719 17.5 3.82812 16.7891 3.82812 15.8594V7.65625C3.82812 5.52344 5.52344 3.82812 7.65625 3.82812H15.8594C16.7891 3.82812 17.5 3.11719 17.5 2.1875C17.5 1.25781 16.7891 0.546875 15.8594 0.546875H7.65625C3.71875 0.546875 0.546875 3.71875 0.546875 7.65625V15.8594C0.546875 16.7891 1.25781 17.5 2.1875 17.5ZM7.65625 69.4531H15.8594C16.7891 69.4531 17.5 68.7422 17.5 67.8125C17.5 66.8828 16.7891 66.1719 15.8594 66.1719H7.65625C5.52344 66.1719 3.82812 64.4766 3.82812 62.3438V54.1406C3.82812 53.2109 3.11719 52.5 2.1875 52.5C1.25781 52.5 0.546875 53.2109 0.546875 54.1406V62.3438C0.546875 66.2812 3.71875 69.4531 7.65625 69.4531ZM69.4531 62.3438V54.1406C69.4531 53.2109 68.7422 52.5 67.8125 52.5C66.8828 52.5 66.1719 53.2109 66.1719 54.1406V62.3438C66.1719 64.4766 64.4766 66.1719 62.3438 66.1719H54.1406C53.2109 66.1719 52.5 66.8828 52.5 67.8125C52.5 68.7422 53.2109 69.4531 54.1406 69.4531H62.3438C66.2812 69.4531 69.4531 66.2812 69.4531 62.3438ZM56.875 44.2969H45.9375C45.0078 44.2969 44.2969 45.0078 44.2969 45.9375V56.875C44.2969 57.8047 45.0078 58.5156 45.9375 58.5156H56.875C57.8047 58.5156 58.5156 57.8047 58.5156 56.875V45.9375C58.5156 45.0078 57.8047 44.2969 56.875 44.2969ZM55.2344 55.2344H47.5781V47.5781H55.2344V55.2344ZM31.7188 58.5156C32.6484 58.5156 33.3594 57.8047 33.3594 56.875V53.0469H38.2812C39.2109 53.0469 39.9219 52.3359 39.9219 51.4062V40.4688C39.9219 39.5391 39.2109 38.8281 38.2812 38.8281C37.3516 38.8281 36.6406 39.5391 36.6406 40.4688V49.7656H31.7188C30.7891 49.7656 30.0781 50.4766 30.0781 51.4062V56.875C30.0781 57.8047 30.7891 58.5156 31.7188 58.5156ZM56.875 25.7031C57.8047 25.7031 58.5156 24.9922 58.5156 24.0625V13.125C58.5156 12.1953 57.8047 11.4844 56.875 11.4844H45.9375C45.0078 11.4844 44.2969 12.1953 44.2969 13.125V24.0625C44.2969 24.9922 45.0078 25.7031 45.9375 25.7031H56.875ZM47.5781 14.7656H55.2344V22.4219H47.5781V14.7656ZM13.125 25.7031H24.0625C24.9922 25.7031 25.7031 24.9922 25.7031 24.0625V13.125C25.7031 12.1953 24.9922 11.4844 24.0625 11.4844H13.125C12.1953 11.4844 11.4844 12.1953 11.4844 13.125V24.0625C11.4844 24.9922 12.1953 25.7031 13.125 25.7031ZM14.7656 14.7656H22.4219V22.4219H14.7656V14.7656ZM13.125 36.6406H15.8594C16.7891 36.6406 17.5 35.9297 17.5 35C17.5 34.0703 16.7891 33.3594 15.8594 33.3594H13.125C12.1953 33.3594 11.4844 34.0703 11.4844 35C11.4844 35.9297 12.1953 36.6406 13.125 36.6406ZM31.7188 36.6406C32.6484 36.6406 33.3594 35.9297 33.3594 35V25.7031H38.2812C39.2109 25.7031 39.9219 24.9922 39.9219 24.0625V13.125C39.9219 12.1953 39.2109 11.4844 38.2812 11.4844C37.3516 11.4844 36.6406 12.1953 36.6406 13.125V22.4219H31.7188C30.7891 22.4219 30.0781 23.1328 30.0781 24.0625V33.3594H26.7969C25.8672 33.3594 25.1562 34.0703 25.1562 35C25.1562 35.9297 25.8672 36.6406 26.7969 36.6406H31.7188ZM41.5625 31.7188C41.5625 32.6484 42.2734 33.3594 43.2031 33.3594H48.125V38.2812C48.125 39.2109 48.8359 39.9219 49.7656 39.9219H56.875C57.8047 39.9219 58.5156 39.2109 58.5156 38.2812C58.5156 37.3516 57.8047 36.6406 56.875 36.6406H51.4062V31.7188C51.4062 30.7891 50.6953 30.0781 49.7656 30.0781H43.2031C42.2734 30.0781 41.5625 30.7891 41.5625 31.7188ZM25.7031 56.875V45.9375C25.7031 45.0078 24.9922 44.2969 24.0625 44.2969H13.125C12.1953 44.2969 11.4844 45.0078 11.4844 45.9375V56.875C11.4844 57.8047 12.1953 58.5156 13.125 58.5156H24.0625C24.9922 58.5156 25.7031 57.8047 25.7031 56.875ZM22.4219 55.2344H14.7656V47.5781H22.4219V55.2344Z" fill="black" stroke="white" mask="url(#path-1-inside-1_2703_15880)"/>
</g>
<defs>
<clipPath id="clip0_2703_15880">
<rect width="70" height="70" fill="white"/>
</clipPath>
</defs>
</svg>
