<svg width="70" height="70" viewBox="0 0 70 70" fill="none" xmlns="http://www.w3.org/2000/svg">
<path d="M24.4328 11.2525L24.4326 11.2526L24.4369 11.262C24.7523 11.9378 24.3977 12.7661 23.7107 13.0508C23.4936 13.105 23.3102 13.1484 23.1322 13.1484C22.6186 13.1484 22.0679 12.8162 21.8906 12.3286L21.8909 12.3285L21.8864 12.3178L18.7145 4.71623L18.7147 4.71615L18.7103 4.70678C18.3926 4.02602 18.7548 3.19056 19.4516 2.91181L19.4518 2.91217L19.4645 2.90623C20.1453 2.58854 20.9807 2.95066 21.2595 3.64754L21.2595 3.64755L21.2609 3.65096L24.4328 11.2525ZM17.315 17.301L17.3155 17.3011C18.0669 17.536 18.4749 18.2762 18.2452 19.0114L18.2448 19.0124C18.0608 19.6104 17.5077 19.9844 16.8978 19.9844C16.7281 19.9844 16.6044 19.9824 16.4847 19.9425L16.4847 19.9425L16.4792 19.9407L8.65992 17.5348C8.65972 17.5348 8.65952 17.5347 8.65933 17.5346C7.91526 17.3018 7.49841 16.5117 7.73022 15.7699C7.96283 15.0255 8.75297 14.6084 9.49489 14.8401C9.49498 14.8401 9.49507 14.8402 9.49515 14.8402L17.315 17.301ZM45.6557 62.3401C45.9711 63.0159 45.6164 63.8443 44.9294 64.1289C44.7123 64.1831 44.5289 64.2266 44.351 64.2266C43.7807 64.2266 43.2797 63.946 43.0505 63.396L38.0194 51.2559L37.8711 50.8979L37.6061 51.1806L30.2233 59.0556L30.2232 59.0555L30.2198 59.0593C29.7743 59.5543 29.1306 59.8516 28.4369 59.8516C28.1572 59.8516 27.8692 59.7582 27.5334 59.6463C26.5458 59.2998 25.9575 58.4171 26.0069 57.3791L26.0072 57.3791V57.3672V24.4453C26.0072 23.4455 26.5545 22.5561 27.4949 22.1601L27.4949 22.1601L27.4994 22.1581C28.3898 21.7624 29.4821 21.9613 30.1742 22.6533L30.1765 22.6556L53.6351 45.5127C53.6355 45.5131 53.6359 45.5134 53.6362 45.5138C54.3915 46.2699 54.6315 47.3115 54.2378 48.2467L54.2375 48.2466L54.2336 48.2573C53.8904 49.1889 52.9517 49.7891 51.9525 49.7891H40.7963H40.4212L40.5655 50.1353L45.6515 62.3306L45.6513 62.3307L45.6557 62.3401ZM29.1578 25.5783L28.7338 25.1672V25.7578V56.0547V56.69L29.1667 56.2251L37.3152 47.4751L37.3153 47.4752L37.322 47.4674C37.5975 47.146 37.9625 47.0078 38.3353 47.0078H50.64H51.257L50.8141 46.5783L29.1578 25.5783ZM31.1731 11.5473L31.1738 11.5461L35.0012 4.2739C35.0013 4.27372 35.0014 4.27355 35.0015 4.27338C35.3711 3.58111 36.2065 3.34021 36.9171 3.67186C37.6052 3.99294 37.8845 4.81893 37.5132 5.51516L37.5126 5.51638L33.6878 12.7834C33.4003 13.2585 32.9328 13.5313 32.4291 13.5313C32.1857 13.5313 31.9522 13.4821 31.7753 13.3936L31.7753 13.3935L31.7692 13.3906C31.0812 13.0696 30.8018 12.2436 31.1731 11.5473Z" fill="black" stroke="white" stroke-width="0.5"/>
</svg>
