<svg width="70" height="70" viewBox="0 0 70 70" fill="none" xmlns="http://www.w3.org/2000/svg">
<path d="M41.1924 41.1922L41.1931 41.1915C48.0709 34.2582 48.0714 22.9989 41.1386 16.0654C37.6982 12.57 33.1489 10.8518 28.602 10.8518C24.0529 10.8518 19.5036 12.6261 16.065 16.0648C9.13142 22.9983 9.13142 34.2586 16.065 41.1922C22.9986 48.1258 34.2588 48.1258 41.1924 41.1922ZM18.7705 18.7703L18.7723 18.7685C21.4048 16.0823 24.8955 14.633 28.602 14.633C29.3936 14.633 29.9926 15.232 29.9926 16.0237C29.9926 16.8153 29.3936 17.4143 28.602 17.4143C25.6359 17.4143 22.8375 18.5892 20.7134 20.7132L20.7134 20.7132L20.7109 20.7157C18.7561 22.7264 17.5819 25.3538 17.4693 28.2055C17.4209 28.9565 16.8116 29.5545 16.0783 29.5545H16.0315C15.2262 29.5038 14.6418 28.8972 14.6873 28.1241L14.6875 28.1207C14.8488 24.5715 16.2458 21.295 18.7705 18.7703ZM44.6381 44.6924L44.6383 44.6926L44.6457 44.6846C44.8964 44.411 45.2384 44.2732 45.5893 44.2732C45.9405 44.2732 46.3002 44.4115 46.581 44.6924L47.9482 46.0596L48.0756 46.187L48.2368 46.1064C48.8568 45.7964 49.5295 45.6404 50.258 45.6404C51.508 45.6404 52.7013 46.1086 53.5815 46.9888L60.5808 53.9893L60.7576 53.8125L60.5808 53.9893C62.3964 55.8049 62.3973 58.7614 60.5834 60.578C59.6448 61.4633 58.4489 61.929 57.2574 61.929C56.0657 61.929 54.8724 61.4635 53.935 60.5261L53.9336 60.5247L46.9346 53.6357C46.9344 53.6355 46.9341 53.6353 46.9339 53.6351C46.0541 52.7549 45.5862 51.5619 45.5862 50.3123C45.5862 49.5838 45.7421 48.9111 46.0522 48.2911L46.1327 48.1299L46.0053 48.0025L44.6381 46.6353L44.6383 46.6351L44.6303 46.6278C44.0866 46.1294 44.0751 45.2555 44.6381 44.6924ZM48.933 51.6373L48.9337 51.638L55.8746 58.5244C56.5787 59.2873 57.7759 59.2757 58.5241 58.5315C59.2888 57.8262 59.276 56.6258 58.5279 55.8777L51.5907 48.9404C51.2593 48.5494 50.7484 48.3672 50.258 48.3672C49.7533 48.3672 49.3111 48.5583 48.9409 48.925C48.5497 49.2563 48.3674 49.7673 48.3674 50.2578C48.3674 50.7573 48.5551 51.2593 48.933 51.6373ZM14.1221 14.1219C18.12 10.124 23.3736 8.125 28.6287 8.125C33.8837 8.125 39.1374 10.124 43.1353 14.1219C51.1315 22.1181 51.1324 35.1395 43.1902 43.1357C39.1924 47.1332 33.9523 49.133 28.6565 49.133C23.3603 49.133 18.12 47.133 14.1221 43.1351C6.12597 35.139 6.12597 22.118 14.1221 14.1219ZM18.1573 35.6571C18.4181 35.3963 18.7718 35.2498 19.1406 35.2498C19.5094 35.2498 19.8632 35.3963 20.1239 35.6571C20.3847 35.9179 20.5312 36.2716 20.5312 36.6404C20.5312 37.0092 20.3847 37.3629 20.1239 37.6237C19.8632 37.8845 19.5094 38.031 19.1406 38.031C18.7718 38.031 18.4181 37.8845 18.1573 37.6237C17.8965 37.3629 17.75 37.0092 17.75 36.6404C17.75 36.2716 17.8965 35.9179 18.1573 35.6571Z" fill="black" stroke="white" stroke-width="0.5"/>
</svg>
