<svg width="30" height="30" viewBox="0 0 30 30" fill="none" xmlns="http://www.w3.org/2000/svg">
<path d="M26.25 23.75V21.6926C26.25 20.6703 25.6276 19.751 24.6785 19.3714L22.1358 18.3543C20.9286 17.8714 19.5527 18.3945 18.9713 19.5575L18.75 20C18.75 20 15.625 19.375 13.125 16.875C10.625 14.375 10 11.25 10 11.25L10.4425 11.0287C11.6055 10.4473 12.1286 9.07142 11.6457 7.8642L10.6286 5.32152C10.249 4.37238 9.32968 3.75 8.30742 3.75H6.25C4.86929 3.75 3.75 4.86929 3.75 6.25C3.75 17.2957 12.7043 26.25 23.75 26.25C25.1307 26.25 26.25 25.1307 26.25 23.75Z" stroke="#2F2F2F" stroke-width="1.5" stroke-linejoin="round"/>
</svg>
