<svg width="30" height="30" viewBox="0 0 30 30" fill="none" xmlns="http://www.w3.org/2000/svg">
<path d="M27.5 15C27.5 21.9036 21.9036 27.5 15 27.5M27.5 15C27.5 8.09644 21.9036 2.5 15 2.5M27.5 15C27.5 12.9289 21.9036 11.25 15 11.25C8.09644 11.25 2.5 12.9289 2.5 15M27.5 15C27.5 17.0711 21.9036 18.75 15 18.75C8.09644 18.75 2.5 17.0711 2.5 15M15 27.5C8.09644 27.5 2.5 21.9036 2.5 15M15 27.5C17.7614 27.5 20 21.9036 20 15C20 8.09644 17.7614 2.5 15 2.5M15 27.5C12.2386 27.5 10 21.9036 10 15C10 8.09644 12.2386 2.5 15 2.5M2.5 15C2.5 8.09644 8.09644 2.5 15 2.5" stroke="#2F2F2F" stroke-width="1.5"/>
</svg>
