<svg width="30" height="30" viewBox="0 0 30 30" fill="none" xmlns="http://www.w3.org/2000/svg">
<path d="M22.5 14.875V22.5C22.5 25.2614 20.2614 27.5 17.5 27.5H7.5C4.73858 27.5 2.5 25.2614 2.5 22.5V12.5C2.5 9.73858 4.73858 7.5 7.5 7.5H15.125M22.5 14.875C25.3528 14.2959 27.5 11.7737 27.5 8.75C27.5 5.29822 24.7018 2.5 21.25 2.5C18.2263 2.5 15.7041 4.6472 15.125 7.5M22.5 14.875C22.0961 14.957 21.6781 15 21.25 15C17.7982 15 15 12.2018 15 8.75C15 8.32192 15.043 7.90389 15.125 7.5" stroke="#2F2F2F" stroke-width="1.5" stroke-linejoin="round"/>
</svg>
