<svg width="15" height="15" viewBox="0 0 15 15" fill="none" xmlns="http://www.w3.org/2000/svg">
<path d="M2.73109 7.47801L0 6.46628L0.840336 4.17889L3.44538 5.10264C4.95798 5.6305 5.79832 6.11437 6.68067 6.7302C6.42857 5.6305 6.30252 4.57478 6.30252 3.03519V0L8.65546 0V3.03519C8.65546 4.57478 8.4874 5.71847 8.27731 6.7302C9.15966 6.15836 10 5.6305 11.4706 5.10264L14.1176 4.1349L15 6.46628L12.2269 7.47801C10.8403 8.00587 9.7479 8.18182 8.78151 8.31378C9.66387 9.10557 10.2941 9.80939 11.0924 11.129L12.7311 13.5924L10.7983 15L9.15966 12.5806C8.27731 11.261 7.81513 10.2493 7.43698 9.32551C7.10084 10.3812 6.63866 11.393 5.79832 12.5806L4.11765 15L2.14286 13.5924L3.78151 11.129C4.66387 9.80939 5.37815 9.06158 6.17647 8.31378C4.91597 8.13783 3.94958 7.96188 2.73109 7.47801Z" fill="#FF2626"/>
</svg>
