<svg width="623" height="3539" viewBox="0 0 623 3539" fill="none" xmlns="http://www.w3.org/2000/svg">
<path d="M270.846 2C149.851 87.8711 -95.5014 258.346 43.3622 346.445C216.942 456.577 604.654 431.346 444.426 739.888C284.199 1048.44 -119.831 907.264 232.768 1183.79C585.366 1460.32 657.667 1346.34 580.471 1291.4C470.723 1213.3 383.104 1570.77 328.706 1749.95C274.308 1929.13 348.243 2089.16 203 2184.5C112.066 2244.19 58.9916 2011.13 261.427 2177.43C463.863 2343.73 293.462 2280.28 289.504 2283.75C90.4171 2391.84 777.963 2744.82 543.358 2837.58C250.102 2953.52 -28.8384 2815.31 164.523 3105.42C357.884 3395.53 819.279 2873.03 526.024 3537.19" stroke="#FF2626" stroke-width="3" stroke-linecap="round" stroke-linejoin="round"/>
</svg>
