<svg width="44" height="44" viewBox="0 0 44 44" fill="none" xmlns="http://www.w3.org/2000/svg">
<path d="M43.7644 21.9143C43.7644 33.8279 34.1066 43.4858 22.193 43.4858C10.2794 43.4858 0.621582 33.8279 0.621582 21.9143C0.621582 10.0008 10.2794 0.342896 22.193 0.342896C34.1066 0.342896 43.7644 10.0008 43.7644 21.9143Z" fill="black"/>
<path fill-rule="evenodd" clip-rule="evenodd" d="M32.1695 24.6727C33.3681 23.4116 33.3681 21.4956 32.1695 20.2345C30.1479 18.1075 26.676 15.2181 22.7321 15.2181C18.7883 15.2181 15.3163 18.1075 13.2948 20.2345C12.0962 21.4956 12.0962 23.4116 13.2948 24.6727C15.3163 26.7996 18.7883 29.689 22.7321 29.689C26.676 29.689 30.1479 26.7996 32.1695 24.6727ZM22.7321 25.5545C24.4447 25.5545 25.833 24.1661 25.833 22.4536C25.833 20.741 24.4447 19.3527 22.7321 19.3527C21.0195 19.3527 19.6312 20.741 19.6312 22.4536C19.6312 24.1661 21.0195 25.5545 22.7321 25.5545Z" fill="white"/>
</svg>
