<svg width="1922" height="1080" viewBox="0 0 1922 1080" fill="none" xmlns="http://www.w3.org/2000/svg">
<g clip-path="url(#clip0_2770_2672)">
<path d="M-12 -820.747L-11.9999 1680.15M45.2222 -820.747L45.2223 1680.15M102.444 -820.747V1680.15M159.667 -820.747V1680.15M216.889 -820.747V1680.15M274.111 -820.747V1680.15M331.333 -820.747V1680.15M388.555 -820.747V1680.15M445.778 -820.747V1680.15M503 -820.747V1680.15M560.222 -820.747V1680.15M617.444 -820.747V1680.15M674.667 -820.747V1680.15M731.889 -820.747V1680.15M789.111 -820.747V1680.15M846.333 -820.747V1680.15M903.555 -820.747V1680.15M960.778 -820.747V1680.15M1018 -820.747V1680.15M1075.22 -820.747V1680.15M1132.44 -820.747V1680.15M1189.67 -820.747V1680.15M1246.89 -820.747V1680.15M1304.11 -820.747V1680.15M1361.33 -820.747V1680.15M1418.56 -820.747V1680.15M1475.78 -820.747V1680.15M1533 -820.747V1680.15M1590.22 -820.747V1680.15M1647.44 -820.747V1680.15M1704.67 -820.747V1680.15M1761.89 -820.747V1680.15M1819.11 -820.747V1680.15M1876.33 -820.747V1680.15M1933.56 -820.747V1680.15M-5.74128 1688.26H1925.51M-5.74128 1614.16H1925.51M-5.74128 1540.05H1925.51M-5.74128 1465.95H1925.51M-5.74128 1391.85H1925.51M-5.74129 1317.75H1925.51M-5.74129 1243.65H1925.51M-5.74129 1169.55H1925.51M-5.7413 1095.45H1925.51M-5.7413 1021.35H1925.51M-5.7413 947.249H1925.51M-5.7413 873.148H1925.51M-5.74131 799.048H1925.51M-5.74131 724.947H1925.51M-5.74131 650.846H1925.51M-5.74131 576.745H1925.51M-5.74132 502.645H1925.51M-5.74132 428.544H1925.51M-5.74132 354.443H1925.51M-5.74133 280.343H1925.51M-5.74133 206.242H1925.51M-5.74133 132.141H1925.51M-5.74133 58.0405H1925.51M-5.74134 -16.0602H1925.51M-5.74134 -90.1609H1925.51M-5.74134 -164.262H1925.51M-5.74135 -238.362H1925.51M-5.74135 -312.463H1925.51M-5.74135 -386.564H1925.51M-5.74135 -460.664H1925.51M-5.74136 -534.765H1925.51M-5.74136 -608.866H1925.51M-5.74136 -682.967H1925.51M-5.74136 -757.067L1925.51 -757.067M-5.74137 -831.168L1925.51 -831.168" stroke="white" stroke-width="1.3344"/>
<rect width="1922" height="2281" transform="matrix(1 0 0 -1 0 1080)" fill="url(#paint0_linear_2770_2672)"/>
</g>
<defs>
<linearGradient id="paint0_linear_2770_2672" x1="961" y1="0" x2="961" y2="2281" gradientUnits="userSpaceOnUse">
<stop stop-color="#FF2626"/>
<stop offset="0.13" stop-color="#FF2626"/>
<stop offset="0.89" stop-color="#FF2626" stop-opacity="0"/>
<stop offset="1" stop-color="#FF2626" stop-opacity="0"/>
</linearGradient>
<clipPath id="clip0_2770_2672">
<rect width="1922" height="1080" fill="white"/>
</clipPath>
</defs>
</svg>
