<svg width="1922" height="1080" viewBox="0 0 1922 1080" fill="none" xmlns="http://www.w3.org/2000/svg">
<g opacity="0.5">
<g clip-path="url(#clip0_3302_3112)">
<path d="M-12 -1005.58L-11.9999 1495.32M45.2222 -1005.58L45.2223 1495.32M102.444 -1005.58V1495.32M159.667 -1005.58V1495.32M216.889 -1005.58V1495.32M274.111 -1005.58V1495.32M331.333 -1005.58V1495.32M388.555 -1005.58V1495.32M445.778 -1005.58V1495.32M503 -1005.58V1495.32M560.222 -1005.58V1495.32M617.444 -1005.58V1495.32M674.667 -1005.58V1495.32M731.889 -1005.58V1495.32M789.111 -1005.58V1495.32M846.333 -1005.58V1495.32M903.555 -1005.58V1495.32M960.778 -1005.58V1495.32M1018 -1005.58V1495.32M1075.22 -1005.58V1495.32M1132.44 -1005.58V1495.32M1189.67 -1005.58V1495.32M1246.89 -1005.58V1495.32M1304.11 -1005.58V1495.32M1361.33 -1005.58V1495.32M1418.56 -1005.58V1495.32M1475.78 -1005.58V1495.32M1533 -1005.58V1495.32M1590.22 -1005.58V1495.32M1647.44 -1005.58V1495.32M1704.67 -1005.58V1495.32M1761.89 -1005.58V1495.32M1819.11 -1005.58V1495.32M1876.33 -1005.58V1495.32M1933.56 -1005.58V1495.32M-5.74128 1503.42H1925.51M-5.74128 1429.32H1925.51M-5.74128 1355.22H1925.51M-5.74128 1281.12H1925.51M-5.74128 1207.02H1925.51M-5.74129 1132.92H1925.51M-5.74129 1058.82H1925.51M-5.74129 984.719H1925.51M-5.7413 910.618H1925.51M-5.7413 836.518H1925.51M-5.7413 762.417H1925.51M-5.7413 688.316H1925.51M-5.74131 614.216H1925.51M-5.74131 540.115H1925.51M-5.74131 466.014H1925.51M-5.74131 391.913H1925.51M-5.74132 317.813H1925.51M-5.74132 243.712H1925.51M-5.74132 169.611H1925.51M-5.74133 95.5106H1925.51M-5.74133 21.4099H1925.51M-5.74133 -52.6908H1925.51M-5.74133 -126.792H1925.51M-5.74134 -200.892H1925.51M-5.74134 -274.993H1925.51M-5.74134 -349.094H1925.51M-5.74135 -423.194H1925.51M-5.74135 -497.295H1925.51M-5.74135 -571.396H1925.51M-5.74135 -645.496H1925.51M-5.74136 -719.597H1925.51M-5.74136 -793.698H1925.51M-5.74136 -867.799H1925.51M-5.74136 -941.899L1925.51 -941.899M-5.74137 -1016L1925.51 -1016" stroke="url(#paint0_linear_3302_3112)" stroke-width="1.3344"/>
</g>
</g>
<defs>
<linearGradient id="paint0_linear_3302_3112" x1="961" y1="-4.49999" x2="961" y2="648" gradientUnits="userSpaceOnUse">
<stop stop-color="#DDDDDD"/>
<stop offset="1" stop-color="#DDDDDD" stop-opacity="0"/>
</linearGradient>
<clipPath id="clip0_3302_3112">
<rect width="1922" height="1080" fill="white"/>
</clipPath>
</defs>
</svg>
