<svg width="40" height="37" viewBox="0 0 40 37" fill="none" xmlns="http://www.w3.org/2000/svg">
<path fill-rule="evenodd" clip-rule="evenodd" d="M19.807 5.45037L21.3052 3.78815C25.4424 -0.801943 32.1502 -0.801942 36.2874 3.78815C40.4246 8.37825 40.4246 15.8203 36.2874 20.4104L22.8034 35.3703C21.1485 37.2064 18.4654 37.2064 16.8105 35.3703L3.32655 20.4104C-0.810673 15.8203 -0.810671 8.37825 3.32655 3.78815C7.46377 -0.801944 14.1715 -0.801942 18.3087 3.78816L19.807 5.45037ZM29.5986 4.8958C28.7875 4.8958 28.1299 5.57487 28.1299 6.41255C28.1299 7.25022 28.7875 7.92929 29.5986 7.92929C30.9506 7.92929 32.0466 9.06107 32.0466 10.4572C32.0466 11.2949 32.7041 11.9739 33.5153 11.9739C34.3265 11.9739 34.9841 11.2949 34.9841 10.4572C34.9841 7.38572 32.5729 4.8958 29.5986 4.8958Z" fill="#FF2626"/>
</svg>
