<svg xmlns="http://www.w3.org/2000/svg" width="70" height="71" viewBox="0 0 70 71" fill="none">
  <path d="M33.1396 9.7306L33.3305 9.6841V9.4877V5.4198C33.3305 4.52277 34.0014 3.84814 34.8805 3.84814C35.7596 3.84814 36.4305 4.52277 36.4305 5.4198V9.4877V9.68323L36.6202 9.73034C39.6899 10.4923 42.0098 13.3081 42.0098 16.7139V21.389C42.0098 24.1354 43.2429 26.812 45.3305 28.7384L45.3304 28.7384L45.3343 28.7418C48.6393 31.6685 50.5305 35.9717 50.5305 40.3954C50.5305 44.5801 48.9355 48.5252 46.0399 51.5761C43.0871 54.5635 39.1921 56.1763 35.0598 56.1763C34.8931 56.1763 34.7394 56.162 34.5733 56.1465L34.5691 56.1461C34.4091 56.1312 34.2373 56.1151 34.0491 56.1146C26.3173 55.5728 20.1205 49.4192 19.5298 41.652C19.1753 36.7473 21.0066 32.0269 24.667 28.7407L24.667 28.7407L24.669 28.7389C26.6432 26.9282 27.75 24.3098 27.75 21.5716V16.7139C27.75 13.3655 30.014 10.4921 33.1396 9.7306ZM35.008 12.7236L34.9303 12.6345L34.8121 12.638C32.6385 12.7027 30.85 14.5126 30.85 16.7139V20.5386V20.7886H31.1H36.3195H36.5695V20.5386V16.7139C36.5695 15.1866 35.9409 13.7937 35.008 12.7236ZM30.8598 23.8715H30.6543L30.6145 24.073C30.0841 26.7568 28.7295 29.2578 26.7335 31.0402L26.7335 31.0401L26.7302 31.0432C23.8564 33.704 22.3254 37.4202 22.6311 41.385C23.0602 47.5812 28.0784 52.5378 34.2034 52.9103C37.8188 53.158 41.2481 51.7925 43.8158 49.256C46.2047 46.9003 47.4902 43.7395 47.4902 40.3954C47.4902 36.8034 45.9603 33.3967 43.328 31.0417C41.2649 29.1322 39.8519 26.6869 39.2635 24.0667L39.2196 23.8715H39.0195H30.8598ZM16.0974 59.4681L16.0975 59.4679L16.0896 59.4605C15.4806 58.8956 15.4692 57.9054 16.0974 57.2697L18.0778 55.2654C18.3908 54.9486 18.7913 54.7929 19.182 54.7929C19.5725 54.7929 19.9539 54.948 20.2342 55.2575L20.2415 55.2655L20.2495 55.2729C20.8585 55.8379 20.8699 56.8292 20.2417 57.465L18.2624 59.4681C17.9458 59.7885 17.5887 59.9405 17.1805 59.9405C16.8276 59.9405 16.4106 59.7851 16.0974 59.4681ZM49.7583 55.2654L49.7585 55.2655L49.7658 55.2575C50.0461 54.948 50.4275 54.7929 50.818 54.7929C51.2087 54.7929 51.6092 54.9486 51.9222 55.2654L53.9026 57.2697L53.9025 57.2698L53.9104 57.2772C54.5194 57.8422 54.5308 58.8324 53.9026 59.4681C53.5862 59.7884 53.228 59.9405 52.8195 59.9405C52.4668 59.9405 52.0509 59.7852 51.7376 59.4681L49.7583 57.465L49.7585 57.4648L49.7505 57.4574C49.1415 56.8925 49.1301 55.9011 49.7583 55.2654ZM8.25 40.3954C8.25 39.4984 8.92088 38.8238 9.8 38.8238H12.6195C13.4986 38.8238 14.1695 39.4984 14.1695 40.3954C14.1695 41.2924 13.4987 41.9671 12.6195 41.9671H9.8C8.92088 41.9671 8.25 41.2924 8.25 40.3954ZM55.8305 40.3954C55.8305 39.4984 56.5014 38.8238 57.3805 38.8238H60.2C61.0791 38.8238 61.75 39.4984 61.75 40.3954C61.75 41.2924 61.0791 41.9671 60.2 41.9671H57.3805C56.5559 41.9671 55.8305 41.287 55.8305 40.3954ZM33.45 62.9835C33.45 62.0865 34.1209 61.4119 35 61.4119C35.8791 61.4119 36.55 62.0865 36.55 62.9835V65.7765C36.55 66.6735 35.8791 67.3481 35 67.3481C34.1209 67.3481 33.45 66.6735 33.45 65.7765V62.9835Z" fill="black" stroke="white" stroke-width="0.5"/>
</svg>