<svg width="254" height="213" viewBox="0 0 254 213" fill="none" xmlns="http://www.w3.org/2000/svg">
<path d="M87.951 0H118.869C118.865 70.9387 118.881 141.879 118.861 212.818H87.955C87.947 193.2 87.955 173.581 87.951 153.962C80.0517 164.262 71.2624 173.827 62.1617 183.044C53.489 191.78 44.5209 200.224 35.2234 208.28C27.2538 200.291 19.2842 192.302 11.3125 184.313C21.1023 173.416 31.3782 162.968 42.0901 152.998C51.472 144.331 61.1974 135.986 71.7205 128.757C76.4134 125.559 81.2792 122.59 86.4322 120.208C79.003 121.865 71.4512 122.907 63.8834 123.664C53.5352 124.681 43.1408 125.142 32.7463 125.291C21.8275 125.429 10.9047 125.256 0 124.671V90.7767C8.48792 90.1472 16.9939 89.7979 25.504 89.6233C36.9632 89.404 48.4344 89.538 59.8755 90.2893C68.4217 90.864 76.9639 91.7677 85.3795 93.4085C79.236 90.4092 73.5245 86.5894 68.032 82.5178C59.5802 76.2064 51.6508 69.2126 43.9865 61.9569C32.6961 51.2023 21.936 39.8811 11.7264 28.0766C19.692 20.0817 27.6636 12.0949 35.6372 4.10812C47.0603 14.4241 58.0132 25.2742 68.4217 36.634C75.2964 44.176 81.92 51.9679 87.949 60.2227C87.955 40.1491 87.951 20.0735 87.951 0Z" fill="#FF2525"/>
<path d="M145.085 0H253.081V123.082C237.182 123.086 221.283 123.086 205.384 123.088C205.392 129.136 205.349 135.181 205.406 141.229C205.531 145.32 205.946 149.564 207.893 153.236C209.262 155.937 211.767 157.946 214.582 158.96C217.841 160.132 221.337 160.378 224.773 160.404C234.208 160.41 243.644 160.392 253.081 160.412V212.811C245.733 212.817 238.387 212.813 231.041 212.815C225.98 212.786 220.915 212.904 215.858 212.65C204.636 212.111 193.361 210.163 182.97 205.751C171.928 201.153 162.149 193.249 155.855 182.978C149.518 172.823 146.517 160.911 145.494 149.06C145.1 144.862 145.045 140.647 145.085 136.436C145.085 90.9572 145.085 45.4786 145.085 0Z" fill="black"/>
</svg>
