<svg width="311" height="495" viewBox="0 0 311 495" fill="none" xmlns="http://www.w3.org/2000/svg">
<path d="M167.428 0H310.472V188.328C309.997 207.52 306.312 227.235 295.951 243.686C288.025 256.468 276.023 266.501 262.349 272.653C245.109 280.486 225.935 282.987 207.138 282.974C194.595 282.969 182.056 282.978 169.513 282.969C169.513 259.746 169.508 236.518 169.513 213.295C180.579 213.273 191.641 213.29 202.702 213.286C207.763 213.317 212.935 213.175 217.774 211.556C221.446 210.35 224.773 207.932 226.737 204.57C229.74 199.483 230.326 193.42 230.499 187.632C230.561 179.644 230.512 171.652 230.525 163.663C209.484 163.663 188.443 163.668 167.402 163.659C167.424 109.105 167.371 54.5545 167.428 0Z" fill="black"/>
<path d="M45.0407 225.08C62.5913 216.196 82.5015 213.166 101.995 212.94C115.332 212.922 128.669 212.936 142.006 212.931C142.019 236.168 142.015 259.4 142.01 282.637C129.569 282.659 117.128 282.615 104.687 282.659C99.2005 282.797 93.4035 283.12 88.5513 285.955C84.8478 288.088 82.4926 291.96 81.4059 296.009C79.8447 301.571 79.9201 307.399 79.9467 313.125C79.9467 319.162 79.9467 325.198 79.9467 331.235C100.997 331.284 122.051 331.142 143.097 331.301C143.026 385.856 143.075 440.406 143.07 494.96C95.3817 494.987 47.6886 494.96 0 494.974V306.628C0.461274 289.024 3.76559 271.07 12.6052 255.639C20.0166 242.479 31.5618 231.821 45.0407 225.08Z" fill="#FF2626"/>
</svg>
