<svg width="73" height="63" viewBox="0 0 73 63" fill="none" xmlns="http://www.w3.org/2000/svg">
<path d="M26.1314 0H35.3176C35.3164 20.9998 35.3212 42.0002 35.3152 63H26.1326C26.1302 57.1923 26.1326 51.3847 26.1314 45.577C23.7844 48.626 21.173 51.4574 18.4691 54.186C15.8923 56.7721 13.2277 59.2717 10.4653 61.6564C8.09745 59.2915 5.72958 56.9266 3.36111 54.5617C6.26977 51.336 9.32287 48.2431 12.5055 45.2915C15.293 42.7258 18.1826 40.2557 21.3091 38.1156C22.7034 37.1688 24.1491 36.2899 25.6801 35.5848C23.4728 36.0753 21.2291 36.3837 18.9806 36.6079C15.906 36.9091 12.8177 37.0456 9.72936 37.0894C6.48524 37.1303 3.23994 37.0792 0 36.9061V26.8724C2.52187 26.686 5.04912 26.5826 7.57756 26.5309C10.9822 26.466 14.3905 26.5057 17.7898 26.7281C20.329 26.8982 22.867 27.1657 25.3674 27.6515C23.5421 26.7636 21.8451 25.6328 20.2132 24.4275C17.7021 22.5592 15.3461 20.4888 13.069 18.3409C9.71444 15.1573 6.51748 11.8059 3.48407 8.31143C5.85075 5.94472 8.21922 3.58042 10.5883 1.21612C13.9822 4.26993 17.2365 7.48185 20.329 10.8447C22.3716 13.0773 24.3395 15.3839 26.1308 17.8276C26.1326 11.8852 26.1314 5.94232 26.1314 0Z" fill="#FF2525"/>
<path d="M41.12 0H73.0001V36.3861C68.3067 36.3873 63.6133 36.3873 58.9199 36.3879C58.9223 38.1757 58.9098 39.9629 58.9265 41.7507C58.9635 42.9602 59.0859 44.2148 59.6607 45.3005C60.0648 46.0988 60.8043 46.6927 61.6352 46.9927C62.5974 47.339 63.6294 47.4117 64.6436 47.4195C67.4287 47.4213 70.2144 47.4159 73.0001 47.4219V62.9122C70.831 62.914 68.6624 62.9128 66.4939 62.9134C64.9999 62.905 63.5047 62.9399 62.0119 62.8647C58.6991 62.7054 55.3708 62.1295 52.3034 60.8251C49.0438 59.4659 46.1572 57.1292 44.2991 54.0928C42.4284 51.0907 41.5426 47.5692 41.2406 44.0657C41.1242 42.825 41.1081 41.5788 41.12 40.3338C41.12 26.8892 41.12 13.4446 41.12 0Z" fill="black"/>
</svg>
