<svg width="80" height="55" viewBox="0 0 80 55" fill="none" xmlns="http://www.w3.org/2000/svg">
<g clip-path="url(#clip0_17_67)">
<mask id="mask0_17_67" style="mask-type:luminance" maskUnits="userSpaceOnUse" x="-1" y="0" width="81" height="55">
<path d="M-0.00390625 0H79.9883V55H-0.00390625V0Z" fill="white"/>
</mask>
<g mask="url(#mask0_17_67)">
<path fill-rule="evenodd" clip-rule="evenodd" d="M-5.00781 0H84.9922V55H-5.00781V0Z" fill="#0C590B"/>
<path fill-rule="evenodd" clip-rule="evenodd" d="M-5.00781 0H17.5508V55H-5.00781V0Z" fill="white"/>
<path fill-rule="evenodd" clip-rule="evenodd" d="M53.4336 24.2129L49.7773 23.5039L47.8555 26.4365L47.457 23.042L43.8242 22.2686L47.2227 20.8721L46.9062 17.4668L49.4141 20.002L52.8477 18.6699L50.9844 21.6348L53.4453 24.2129H53.4336Z" fill="white"/>
<path fill-rule="evenodd" clip-rule="evenodd" d="M54.8046 32.8711C54.0248 34.4311 52.9162 35.8343 51.5426 37.0002C50.169 38.1661 48.5576 39.0715 46.8009 39.6645C45.0443 40.2575 43.1771 40.5264 41.3067 40.4555C39.4363 40.3847 37.5996 39.9757 35.9023 39.2519C32.4586 37.7904 29.7894 35.1347 28.4818 31.8691C27.1741 28.6036 27.3352 24.9956 28.9296 21.8389C29.7215 20.2162 30.875 18.7633 32.316 17.5737C33.757 16.3842 35.4536 15.4842 37.2968 14.9316C36.8143 15.2999 36.3527 15.6908 35.914 16.1025C33.6277 18.4236 32.414 21.4678 32.5288 24.5933C32.6436 27.7187 34.078 30.6812 36.5295 32.856C38.9811 35.0307 42.2581 36.2478 45.6696 36.2507C49.0812 36.2535 52.3606 35.0418 54.8164 32.8711H54.8046Z" fill="white"/>
</g>
</g>
<defs>
<clipPath id="clip0_17_67">
<rect width="80" height="55" fill="white"/>
</clipPath>
</defs>
</svg>
