<svg width="52" height="49" viewBox="0 0 52 49" fill="none" xmlns="http://www.w3.org/2000/svg">
<path d="M9.46777 24.4282L0 21.1232L2.91317 13.6511L11.944 16.6686C17.1877 18.3929 20.1009 19.9736 23.1596 21.9853C22.2857 18.3929 21.8487 14.9443 21.8487 9.91494V0H30.0056V9.91494C30.0056 14.9443 29.4229 18.6804 28.6947 21.9853C31.7535 20.1173 34.6666 18.3929 39.7647 16.6686L48.9411 13.5073L52 21.1232L42.3865 24.4282C37.5798 26.1525 33.7927 26.7273 30.4426 27.1584C33.5014 29.7448 35.6863 32.044 38.4537 36.3548L44.1345 44.4017L37.4342 49L31.7535 41.0968C28.6947 36.786 27.0924 33.481 25.7815 30.4634C24.6162 33.912 23.014 37.217 20.1009 41.0968L14.2745 49L7.42857 44.4017L13.1093 36.3548C16.1681 32.044 18.6443 29.6011 21.4118 27.1584C17.042 26.5836 13.6919 26.0088 9.46777 24.4282Z" fill="white"/>
</svg>
