<svg width="70" height="67" viewBox="0 0 70 67" fill="none" xmlns="http://www.w3.org/2000/svg">
<path d="M12.7451 33.4018L0 28.8827L3.92157 18.6657L16.0784 22.7918C23.1373 25.1496 27.0588 27.3108 31.1765 30.0616C30 25.1496 29.4118 20.434 29.4118 13.5572V0L40.3922 0V13.5572C40.3922 20.434 39.6078 25.5425 38.6275 30.0616C42.7451 27.5073 46.6667 25.1496 53.5294 22.7918L65.8824 18.4692L70 28.8827L57.0588 33.4018C50.5882 35.7595 45.4902 36.5455 40.9804 37.1349C45.098 40.6716 48.0392 43.8153 51.7647 49.7097L59.4118 60.7126L50.3922 67L42.7451 56.1935C38.6275 50.2991 36.4706 45.7801 34.7059 41.654C33.1373 46.3695 30.9804 50.8886 27.0588 56.1935L19.2157 67L10 60.7126L17.6471 49.7097C21.7647 43.8153 25.098 40.4751 28.8235 37.1349C22.9412 36.349 18.4314 35.563 12.7451 33.4018Z" fill="#FF2626"/>
</svg>
