<svg width="24" height="24" viewBox="0 0 24 24" fill="none" xmlns="http://www.w3.org/2000/svg">
<path d="M19.9806 5.99067C19.7208 5.99841 19.4742 6.10699 19.2931 6.2934L9.00008 16.5864L5.70712 13.2934C5.61497 13.1974 5.5046 13.1208 5.38247 13.068C5.26034 13.0152 5.12891 12.9874 4.99587 12.986C4.86283 12.9846 4.73086 13.0099 4.60768 13.0601C4.4845 13.1104 4.3726 13.1848 4.27852 13.2789C4.18444 13.3729 4.11008 13.4849 4.05979 13.608C4.0095 13.7312 3.98429 13.8632 3.98565 13.9962C3.987 14.1293 4.01489 14.2607 4.06767 14.3828C4.12046 14.505 4.19708 14.6153 4.29305 14.7075L8.29305 18.7075C8.4806 18.8949 8.73491 19.0002 9.00008 19.0002C9.26526 19.0002 9.51957 18.8949 9.70712 18.7075L20.7071 7.70747C20.8516 7.567 20.9503 7.38616 20.9903 7.18864C21.0302 6.99112 21.0096 6.78614 20.931 6.60055C20.8525 6.41497 20.7197 6.25744 20.5501 6.14861C20.3805 6.03978 20.182 5.98473 19.9806 5.99067Z" fill="#2F2F2F"/>
</svg>
