<svg width="80" height="56" viewBox="0 0 80 56" fill="none" xmlns="http://www.w3.org/2000/svg">
<g clip-path="url(#clip0_17_70)">
<path d="M0 0.25H80V55.25H0" fill="#BD3D44"/>
<path d="M0 6.58649H80ZM0 15.0313H80ZM0 23.5104H80ZM0 31.9896H80ZM0 40.4688H80ZM0 48.9479H80Z" fill="black"/>
<path d="M0 6.58649H80M0 15.0313H80M0 23.5104H80M0 31.9896H80M0 40.4688H80M0 48.9479H80" stroke="white" stroke-width="4"/>
<path d="M0 0.020813H45.6V29.6406H0" fill="#192F5D"/>
<path d="M5 2.77081L5.44903 3.94713H6.90211L5.72654 4.67413L6.17557 5.85045L5 5.12345L3.82443 5.85045L4.27346 4.67413L3.09789 3.94713H4.55097L5 2.77081Z" fill="white"/>
<path d="M11 2.77081L11.449 3.94713H12.9021L11.7265 4.67413L12.1756 5.85045L11 5.12345L9.82443 5.85045L10.2735 4.67413L9.09789 3.94713H10.551L11 2.77081Z" fill="white"/>
<path d="M17 2.77081L17.449 3.94713H18.9021L17.7265 4.67413L18.1756 5.85045L17 5.12345L15.8244 5.85045L16.2735 4.67413L15.0979 3.94713H16.551L17 2.77081Z" fill="white"/>
<path d="M23 2.77081L23.449 3.94713H24.9021L23.7265 4.67413L24.1756 5.85045L23 5.12345L21.8244 5.85045L22.2735 4.67413L21.0979 3.94713H22.551L23 2.77081Z" fill="white"/>
<path d="M29 2.77081L29.449 3.94713H30.9021L29.7265 4.67413L30.1756 5.85045L29 5.12345L27.8244 5.85045L28.2735 4.67413L27.0979 3.94713H28.551L29 2.77081Z" fill="white"/>
<path d="M35 2.77081L35.449 3.94713H36.9021L35.7265 4.67413L36.1756 5.85045L35 5.12345L33.8244 5.85045L34.2735 4.67413L33.0979 3.94713H34.551L35 2.77081Z" fill="white"/>
<path d="M41 2.77081L41.449 3.94713H42.9021L41.7265 4.67413L42.1756 5.85045L41 5.12345L39.8244 5.85045L40.2735 4.67413L39.0979 3.94713H40.551L41 2.77081Z" fill="white"/>
<path d="M5 7.87793L5.44903 9.05425H6.90211L5.72654 9.78125L6.17557 10.9576L5 10.2306L3.82443 10.9576L4.27346 9.78125L3.09789 9.05425H4.55097L5 7.87793Z" fill="white"/>
<path d="M11 7.87793L11.449 9.05425H12.9021L11.7265 9.78125L12.1756 10.9576L11 10.2306L9.82443 10.9576L10.2735 9.78125L9.09789 9.05425H10.551L11 7.87793Z" fill="white"/>
<path d="M17 7.87793L17.449 9.05425H18.9021L17.7265 9.78125L18.1756 10.9576L17 10.2306L15.8244 10.9576L16.2735 9.78125L15.0979 9.05425H16.551L17 7.87793Z" fill="white"/>
<path d="M23 7.87793L23.449 9.05425H24.9021L23.7265 9.78125L24.1756 10.9576L23 10.2306L21.8244 10.9576L22.2735 9.78125L21.0979 9.05425H22.551L23 7.87793Z" fill="white"/>
<path d="M29 7.87793L29.449 9.05425H30.9021L29.7265 9.78125L30.1756 10.9576L29 10.2306L27.8244 10.9576L28.2735 9.78125L27.0979 9.05425H28.551L29 7.87793Z" fill="white"/>
<path d="M35 7.87793L35.449 9.05425H36.9021L35.7265 9.78125L36.1756 10.9576L35 10.2306L33.8244 10.9576L34.2735 9.78125L33.0979 9.05425H34.551L35 7.87793Z" fill="white"/>
<path d="M41 7.87793L41.449 9.05425H42.9021L41.7265 9.78125L42.1756 10.9576L41 10.2306L39.8244 10.9576L40.2735 9.78125L39.0979 9.05425H40.551L41 7.87793Z" fill="white"/>
<path d="M5 12.9851L5.44903 14.1614H6.90211L5.72654 14.8884L6.17557 16.0647L5 15.3377L3.82443 16.0647L4.27346 14.8884L3.09789 14.1614H4.55097L5 12.9851Z" fill="white"/>
<path d="M11 12.9851L11.449 14.1614H12.9021L11.7265 14.8884L12.1756 16.0647L11 15.3377L9.82443 16.0647L10.2735 14.8884L9.09789 14.1614H10.551L11 12.9851Z" fill="white"/>
<path d="M17 12.9851L17.449 14.1614H18.9021L17.7265 14.8884L18.1756 16.0647L17 15.3377L15.8244 16.0647L16.2735 14.8884L15.0979 14.1614H16.551L17 12.9851Z" fill="white"/>
<path d="M23 12.9851L23.449 14.1614H24.9021L23.7265 14.8884L24.1756 16.0647L23 15.3377L21.8244 16.0647L22.2735 14.8884L21.0979 14.1614H22.551L23 12.9851Z" fill="white"/>
<path d="M29 12.9851L29.449 14.1614H30.9021L29.7265 14.8884L30.1756 16.0647L29 15.3377L27.8244 16.0647L28.2735 14.8884L27.0979 14.1614H28.551L29 12.9851Z" fill="white"/>
<path d="M35 12.9851L35.449 14.1614H36.9021L35.7265 14.8884L36.1756 16.0647L35 15.3377L33.8244 16.0647L34.2735 14.8884L33.0979 14.1614H34.551L35 12.9851Z" fill="white"/>
<path d="M41 12.9851L41.449 14.1614H42.9021L41.7265 14.8884L42.1756 16.0647L41 15.3377L39.8244 16.0647L40.2735 14.8884L39.0979 14.1614H40.551L41 12.9851Z" fill="white"/>
<path d="M5 18.0922L5.44903 19.2685H6.90211L5.72654 19.9955L6.17557 21.1719L5 20.4449L3.82443 21.1719L4.27346 19.9955L3.09789 19.2685H4.55097L5 18.0922Z" fill="white"/>
<path d="M11 18.0922L11.449 19.2685H12.9021L11.7265 19.9955L12.1756 21.1719L11 20.4449L9.82443 21.1719L10.2735 19.9955L9.09789 19.2685H10.551L11 18.0922Z" fill="white"/>
<path d="M17 18.0922L17.449 19.2685H18.9021L17.7265 19.9955L18.1756 21.1719L17 20.4449L15.8244 21.1719L16.2735 19.9955L15.0979 19.2685H16.551L17 18.0922Z" fill="white"/>
<path d="M23 18.0922L23.449 19.2685H24.9021L23.7265 19.9955L24.1756 21.1719L23 20.4449L21.8244 21.1719L22.2735 19.9955L21.0979 19.2685H22.551L23 18.0922Z" fill="white"/>
<path d="M29 18.0922L29.449 19.2685H30.9021L29.7265 19.9955L30.1756 21.1719L29 20.4449L27.8244 21.1719L28.2735 19.9955L27.0979 19.2685H28.551L29 18.0922Z" fill="white"/>
<path d="M35 18.0922L35.449 19.2685H36.9021L35.7265 19.9955L36.1756 21.1719L35 20.4449L33.8244 21.1719L34.2735 19.9955L33.0979 19.2685H34.551L35 18.0922Z" fill="white"/>
<path d="M41 18.0922L41.449 19.2685H42.9021L41.7265 19.9955L42.1756 21.1719L41 20.4449L39.8244 21.1719L40.2735 19.9955L39.0979 19.2685H40.551L41 18.0922Z" fill="white"/>
<path d="M5 23.1994L5.44903 24.3757H6.90211L5.72654 25.1027L6.17557 26.279L5 25.552L3.82443 26.279L4.27346 25.1027L3.09789 24.3757H4.55097L5 23.1994Z" fill="white"/>
<path d="M11 23.1994L11.449 24.3757H12.9021L11.7265 25.1027L12.1756 26.279L11 25.552L9.82443 26.279L10.2735 25.1027L9.09789 24.3757H10.551L11 23.1994Z" fill="white"/>
<path d="M17 23.1994L17.449 24.3757H18.9021L17.7265 25.1027L18.1756 26.279L17 25.552L15.8244 26.279L16.2735 25.1027L15.0979 24.3757H16.551L17 23.1994Z" fill="white"/>
<path d="M23 23.1994L23.449 24.3757H24.9021L23.7265 25.1027L24.1756 26.279L23 25.552L21.8244 26.279L22.2735 25.1027L21.0979 24.3757H22.551L23 23.1994Z" fill="white"/>
<path d="M29 23.1994L29.449 24.3757H30.9021L29.7265 25.1027L30.1756 26.279L29 25.552L27.8244 26.279L28.2735 25.1027L27.0979 24.3757H28.551L29 23.1994Z" fill="white"/>
<path d="M35 23.1994L35.449 24.3757H36.9021L35.7265 25.1027L36.1756 26.279L35 25.552L33.8244 26.279L34.2735 25.1027L33.0979 24.3757H34.551L35 23.1994Z" fill="white"/>
<path d="M41 23.1994L41.449 24.3757H42.9021L41.7265 25.1027L42.1756 26.279L41 25.552L39.8244 26.279L40.2735 25.1027L39.0979 24.3757H40.551L41 23.1994Z" fill="white"/>
</g>
<defs>
<clipPath id="clip0_17_70">
<rect width="80" height="55" fill="white" transform="translate(0 0.25)"/>
</clipPath>
</defs>
</svg>
